<svg id="svg4" xmlns="http://www.w3.org/2000/svg" height="37.5pt" width="37.76pt" version="1.1" viewBox="0 0 37.760482 37.499985">
	<path id="path10732" d="m8.2282 25.528c0.56566-0.08509 1.4917-0.26235 1.6032-0.38997 0.11186-0.12843 0.12526-1.5798 0.18434-2.3395 0 0 0.0081 2.2247 0.11975 2.3321 0.10716 0.10714 1.9551-0.17567 1.9551-0.17567s-1.8036 0.3104-1.9619 0.46403c-0.15836 0.15362-0.12607 1.6651-0.12607 1.6651s-0.063016-1.5569-0.18042-1.6667c-0.12133-0.1103-1.5934 0.11108-1.5934 0.11108z" style="fill-rule:evenodd;fill:#ffffff"/>
	<path id="path10732-1" d="m27.578 20.553c0.56566-0.08507 1.4918-0.26235 1.6032-0.38998 0.11186-0.12841 0.12525-1.5798 0.18438-2.3395 0 0 0.008 2.2247 0.11974 2.332 0.10716 0.10716 1.9551-0.17569 1.9551-0.17569s-1.8036 0.31042-1.9618 0.46403c-0.15836 0.15364-0.12607 1.6651-0.12607 1.6651s-0.06301-1.5569-0.18122-1.6668c-0.12056-0.10954-1.5934 0.11108-1.5934 0.11108z" style="fill-rule:evenodd;fill:#ffffff"/>
	<path id="path10732-67-6" d="m31.117 4.59c0.46009 0.33956 1.24 0.86953 1.4094 0.85779 0.16935-0.01561 1.2059-1.0283 1.7849-1.5237 0 0-1.5645 1.5816-1.5645 1.7335 0 0.15204 1.5066 1.2582 1.5066 1.2582s-1.4951-1.0555-1.7153-1.0592c-0.22061-0.0049-1.2667 1.0882-1.2667 1.0882s1.0584-1.1433 1.0507-1.3065c-0.0082-0.16307-1.2051-1.0483-1.2051-1.0483z" style="fill-rule:evenodd;fill:#ffffff"/>
	<path id="path10732-67-02-8" d="m31.116 4.5898c0.38131 0.8726 1.0638 2.2852 1.3178 2.4092 0.25365 0.12369 2.5936-0.479 3.8403-0.71062 0 0-3.5711 0.97762-3.6975 1.1966-0.12607 0.21902 1.1246 3.0672 1.1246 3.0672s-1.2764-2.7655-1.591-2.954c-0.31356-0.19066-2.7311 0.51445-2.7311 0.51445s2.477-0.76734 2.6015-1.0087c0.12449-0.24186-0.86464-2.5136-0.86464-2.5136z" style="fill-rule:evenodd;fill:#ffffff"/>
	<path id="path10732-67-02-6-7-3" d="m14.491 9.9496c-0.30725 0.90112-0.75632 2.4045-0.65232 2.6673 0.10401 0.26235 2.2377 1.3961 3.3147 2.0656 0 0-3.2959-1.6871-3.5368-1.6106-0.24108 0.07878-1.2386 3.0229-1.2386 3.0229s0.92302-2.9026 0.81792-3.254c-0.10239-0.35215-2.3631-1.4624-2.3631-1.4624s2.3461 1.1045 2.6009 1.0102c0.25448-0.09455 1.0572-2.439 1.0572-2.439z" style="fill-rule:evenodd;fill:#c7c388"/>
	<path id="path10732-67-02-6-7-1-1-0" d="m27.726 16.801c-0.3821-0.01577-1.0116-0.02365-1.1011 0.04727-0.08981 0.0709-0.28596 1.0192-0.42306 1.5095 0 0 0.27969-1.4597 0.22295-1.544-0.05517-0.0843-1.3041-0.13708-1.3041-0.13708s1.2222 0.03153 1.3458-0.04727c0.12444-0.07957 0.29778-1.0751 0.29778-1.0751s-0.16151 1.0282-0.09689 1.1158c0.06301 0.08745 1.0586 0.13314 1.0586 0.13314z" style="fill-rule:evenodd;fill:#c7888e"/>
	<path id="path10732-67-02-6-7-1-1-51-1" d="m19.755 21.536c-0.38209-0.01602-1.0116-0.0233-1.1011 0.04729-0.08981 0.0709-0.28677 1.0192-0.42307 1.5095 0 0 0.2797-1.4596 0.22294-1.5439-0.05517-0.08429-1.3041-0.13787-1.3041-0.13787s1.2222 0.03146 1.3458-0.04724c0.12445-0.07956 0.2978-1.0751 0.2978-1.0751s-0.16153 1.0282-0.09687 1.1158c0.06301 0.08747 1.0586 0.13313 1.0586 0.13313z" style="fill-rule:evenodd;fill:#889fc7"/>
	<path id="path10732-67-02-6-7-1-1-51-2-4" d="m17.872 9.1695c-0.48767-0.32222-1.3113-0.8232-1.4838-0.80233-0.17255 0.02367-1.1778 1.1125-1.7433 1.6482 0 0 1.5155-1.696 1.5076-1.8511-0.0082-0.15518-1.6035-1.2064-1.6035-1.2064s1.5812 0.99999 1.8063 0.99242c0.22531-0.0062 1.2369-1.1768 1.2369-1.1768s-1.0214 1.2222-1.005 1.3885c0.01602 0.16621 1.2848 1.0078 1.2848 1.0078z" style="fill-rule:evenodd;fill:#889fc7"/>
	<path id="path10732-67-02-6-7-1-1-51-2-9" d="m8.6758 25.765c-0.48767-0.32222-1.3114-0.82319-1.4838-0.80232-0.17252 0.0233-1.1778 1.1125-1.7433 1.6482 0 0 1.5155-1.696 1.5076-1.8511-0.00807-0.15518-1.6036-1.2064-1.6036-1.2064s1.5813 1 1.8063 0.99243c0.2253-0.0062 1.237-1.1768 1.237-1.1768s-1.0214 1.2222-1.005 1.3885c0.015769 0.16621 1.2847 1.0078 1.2847 1.0078z" style="fill-rule:evenodd;fill:#889fc7"/>
	<path id="path10732-3" d="m14.549 28.832c0.56566-0.08511 1.4917-0.26233 1.6032-0.38997 0.11108-0.12841 0.12526-1.5798 0.18435-2.3395 0 0 0.01577 2.2247 0.11975 2.332 0.10715 0.10716 1.9551-0.17567 1.9551-0.17567s-1.8036 0.31041-1.9618 0.46403c-0.15835 0.15362-0.12605 1.6651-0.12605 1.6651s-0.06303-1.5569-0.1812-1.6668c-0.12132-0.10952-1.5934 0.11108-1.5934 0.11108z" style="fill-rule:evenodd;fill:#ffffff"/>
	<path id="path10732-1-7" d="m33.899 23.857c0.56566-0.08511 1.4918-0.26235 1.6032-0.38998 0.11108-0.12841 0.12527-1.5798 0.18434-2.3395 0 0 0.008 2.2247 0.11896 2.332 0.10714 0.10716 1.9551-0.17569 1.9551-0.17569s-1.8035 0.31042-1.9618 0.46403c-0.15834 0.15364-0.12607 1.6651-0.12607 1.6651s-0.06303-1.5569-0.18122-1.6667c-0.12054-0.1103-1.5935 0.11108-1.5935 0.11108z" style="fill-rule:evenodd;fill:#ffffff"/>
	<path id="path10732-5-5" d="m9.5812 6.0678c0.56566-0.085069 1.4918-0.26156 1.6033-0.38997 0.11109-0.12841 0.12526-1.5798 0.18434-2.3395 0 0 0.0081 2.2247 0.11898 2.3321 0.10716 0.10716 1.9551-0.17568 1.9551-0.17568s-1.8036 0.31041-1.9619 0.46404c-0.15836 0.15362-0.12606 1.6651-0.12606 1.6651s-0.06302-1.5569-0.18042-1.6667c-0.12133-0.11032-1.5935 0.11109-1.5935 0.11109z" style="fill-rule:evenodd;fill:#ffffff"/>
	<path id="path10732-67-5-5" d="m6.6036 3.1941c0.46009 0.33954 1.2401 0.86952 1.4094 0.85778 0.16937-0.01602 1.2059-1.0283 1.7849-1.5237 0 0-1.5646 1.5816-1.5646 1.7335 0 0.15204 1.5067 1.2582 1.5067 1.2582s-1.4951-1.0556-1.7154-1.0592c-0.2206-0.0051-1.2667 1.0881-1.2667 1.0881s1.0586-1.1433 1.0507-1.3065c-0.00807-0.16307-1.2051-1.0483-1.2051-1.0483z" style="fill-rule:evenodd;fill:#ffffff"/>
	<path id="path10732-67-6-6" d="m11.355 7.6238c0.4601 0.33955 1.2401 0.86953 1.4095 0.85779 0.16937-0.01581 1.2058-1.0284 1.7849-1.5237 0 0-1.5646 1.5816-1.5646 1.7335 0 0.15204 1.5066 1.2582 1.5066 1.2582s-1.495-1.0556-1.7153-1.0592c-0.22061-0.0047-1.2667 1.0881-1.2667 1.0881s1.0585-1.1433 1.0507-1.3065c-0.0082-0.16307-1.2051-1.0482-1.2051-1.0482z" style="fill-rule:evenodd;fill:#ffffff"/>
	<path id="path10732-67-02-8-2" d="m20.895 10.601c0.3805 0.8726 1.0637 2.2852 1.3177 2.4091 0.25365 0.12368 2.5936-0.47821 3.8404-0.71062 0 0-3.5711 0.97754-3.6976 1.1965-0.12607 0.21902 1.1246 3.0672 1.1246 3.0672s-1.2764-2.7654-1.591-2.954c-0.31356-0.19066-2.7311 0.51445-2.7311 0.51445s2.477-0.76734 2.6015-1.0087c0.12445-0.24185-0.86456-2.5136-0.86456-2.5136z" style="fill-rule:evenodd;fill:#ffffff"/>
	<path id="path10732-67-02-6-7-3-3" d="m25.608 4.4327c-0.30726 0.9012-0.75631 2.4046-0.65232 2.6674 0.104 0.26235 2.2377 1.396 3.3148 2.0656 0 0-3.2959-1.6871-3.5369-1.6107-0.24107 0.07874-1.2386 3.023-1.2386 3.023s0.92302-2.9026 0.81792-3.254c-0.10241-0.35215-2.3631-1.4625-2.3631-1.4625s2.3461 1.1045 2.6009 1.0102c0.25526-0.09455 1.0572-2.439 1.0572-2.439z" style="fill-rule:evenodd;fill:#c7c388"/>
	<path id="path10732-67-02-6-7-1-51-2" d="m4.2796 14.349c-0.28677 0.25213-0.74371 0.6862-0.76025 0.79823-0.015769 0.11267 0.50027 0.93318 0.74135 1.3815 0 0-0.8102-1.2459-0.90931-1.2675-0.099273-0.02349-1.0353 0.80484-1.0353 0.80484s0.90135-0.82604 0.93499-0.96934c0.031562-0.14338-0.53021-0.9814-0.53021-0.9814s0.5956 0.85338 0.70353 0.87142c0.10793 0.01577 0.85535-0.63814 0.85535-0.63814z" style="fill-rule:evenodd;fill:#c7c388"/>
	<path id="path10732-67-02-6-7-1-1-0-8" d="m34.046 20.105c-0.3821-0.01577-1.0115-0.02349-1.1011 0.04727-0.08981 0.0709-0.28677 1.0191-0.42306 1.5094 0 0 0.27968-1.4596 0.22294-1.5439-0.05515-0.0843-1.3042-0.13788-1.3042-0.13788s1.2223 0.03157 1.3458-0.04727c0.12447-0.07957 0.2978-1.0751 0.2978-1.0751s-0.16151 1.0282-0.09691 1.1158c0.06303 0.08746 1.0586 0.13315 1.0586 0.13315z" style="fill-rule:evenodd;fill:#c7888e"/>
	<path id="path10732-67-02-6-7-1-1-1-7" d="m5.0629 11.41c-0.3821-0.01577-1.0115-0.02349-1.1011 0.04727-0.089814 0.0709-0.28598 1.0191-0.42306 1.5095 0 0 0.27968-1.4597 0.22296-1.544-0.05515-0.0843-1.304-0.13784-1.304-0.13784s1.2222 0.03157 1.3458-0.04727c0.12447-0.07957 0.2978-1.0751 0.2978-1.0751s-0.16151 1.0282-0.096902 1.1158c0.063024 0.08746 1.0586 0.13315 1.0586 0.13315z" style="fill-rule:evenodd;fill:#c7888e"/>
	<path id="path10732-67-02-6-7-1-1-5-9" d="m16.628 32.342c-0.3821-0.01601-1.0116-0.02369-1.1011 0.04725-0.08981 0.0709-0.286 1.0192-0.42306 1.5095 0 0 0.27969-1.4597 0.22295-1.544-0.05516-0.08429-1.3041-0.13705-1.3041-0.13705s1.2222 0.03146 1.3458-0.04729c0.12448-0.07878 0.29778-1.075 0.29778-1.075s-0.16229 1.0281-0.09689 1.1157c0.06302 0.08747 1.0586 0.13313 1.0586 0.13313z" style="fill-rule:evenodd;fill:#c7888e"/>
	<path id="path10732-67-02-6-7-1-1-51-1-0" d="m26.076 24.84c-0.38209-0.01602-1.0115-0.0233-1.1011 0.04724-0.08981 0.0709-0.28677 1.0192-0.42306 1.5095 0 0 0.2797-1.4597 0.22294-1.544-0.05517-0.08428-1.3041-0.13709-1.3041-0.13709s1.2222 0.03146 1.3458-0.04724c0.12449-0.07878 0.2978-1.075 0.2978-1.075s-0.16153 1.0281-0.09691 1.1157c0.06301 0.08825 1.0586 0.13313 1.0586 0.13313z" style="fill-rule:evenodd;fill:#889fc7"/>
	<path id="path10732-67-02-6-7-1-1-51-2-4-3" d="m31.117 4.59c-0.48767-0.32222-1.3113-0.82328-1.4837-0.80232-0.17251 0.02369-1.1779 1.1124-1.7434 1.6482 0 0 1.5155-1.696 1.5076-1.8511-0.0082-0.15518-1.6035-1.2065-1.6035-1.2065s1.5812 1.0001 1.8063 0.99243c0.22531-0.0062 1.2369-1.1767 1.2369-1.1767s-1.0214 1.2222-1.005 1.3885c0.01601 0.16621 1.2847 1.0077 1.2847 1.0077z" style="fill-rule:evenodd;fill:#889fc7"/>
	<path id="path10732-67-02-6-7-1-1-51-2-9-7" d="m14.996 29.069c-0.48766-0.32222-1.3113-0.8232-1.4838-0.80232-0.17253 0.0233-1.1778 1.1124-1.7433 1.6482 0 0 1.5155-1.696 1.5076-1.8511-0.0079-0.15518-1.6036-1.2065-1.6036-1.2065s1.5813 1.0001 1.8063 0.99243c0.22532-0.0062 1.237-1.1767 1.237-1.1767s-1.0214 1.2222-1.005 1.3885c0.01577 0.16621 1.2847 1.0077 1.2847 1.0077z" style="fill-rule:evenodd;fill:#889fc7"/>
	<path id="path10732-2" d="m11.409 28.021c-0.56566-0.08508-1.4918-0.26235-1.6032-0.38997-0.11109-0.12841-0.12526-1.5798-0.18434-2.3395 0 0-0.00807 2.2247-0.11975 2.332-0.10716 0.10714-1.9551-0.17569-1.9551-0.17569s1.8037 0.3104 1.9619 0.46403c0.15836 0.15362 0.12607 1.6651 0.12607 1.6651s0.063015-1.5569 0.18042-1.6668c0.12133-0.10952 1.5935 0.11108 1.5935 0.11108z" style="fill-rule:evenodd;fill:#ffffff"/>
	<path id="path10732-5-9" d="m19.163 18.192c-0.56566-0.08508-1.4917-0.26156-1.6032-0.38998-0.11108-0.12763-0.12527-1.5798-0.18435-2.3395 0 0-0.01577 2.2247-0.11975 2.3321-0.10714 0.10714-1.955-0.17569-1.955-0.17569s1.8036 0.3104 1.9618 0.46403c0.15835 0.15363 0.12605 1.6651 0.12605 1.6651s0.06303-1.5569 0.1812-1.6667c0.12132-0.10951 1.5934 0.11108 1.5934 0.11108z" style="fill-rule:evenodd;fill:#ffffff"/>
	<path id="path10732-67-5-3" d="m24.345 15.319c-0.46009 0.33954-1.2401 0.86953-1.4094 0.85779-0.16939-0.01601-1.2058-1.0283-1.7848-1.5237 0 0 1.5645 1.5816 1.5645 1.7335 0 0.15204-1.5066 1.2582-1.5066 1.2582s1.4951-1.0556 1.7153-1.0592c0.22059-0.0051 1.2667 1.0881 1.2667 1.0881s-1.0585-1.1433-1.0507-1.3065c0.0078-0.16307 1.2051-1.0483 1.2051-1.0483z" style="fill-rule:evenodd;fill:#ffffff"/>
	<path id="path10732-67-02-3-9" d="m22.593 27.151c-0.38131 0.87268-1.0637 2.2852-1.3177 2.4092-0.25365 0.12371-2.5936-0.479-3.8404-0.71062 0 0 3.5711 0.97762 3.6975 1.1966 0.12607 0.21902-1.1246 3.0672-1.1246 3.0672s1.2765-2.7654 1.591-2.954c0.31356-0.19064 2.7311 0.51445 2.7311 0.51445s-2.477-0.76734-2.6015-1.0087c-0.12449-0.24188 0.86464-2.5136 0.86464-2.5136z" style="fill-rule:evenodd;fill:#ffffff"/>
	<path id="path10732-67-02-6-7-45" d="m10.123 16.037c0.30726 0.90112 0.75631 2.4045 0.65232 2.6674-0.104 0.26235-2.2377 1.3961-3.3147 2.0656 0 0 3.2959-1.6871 3.5369-1.6106 0.24108 0.07878 1.2385 3.0229 1.2385 3.0229s-0.92302-2.9026-0.81784-3.254c0.10244-0.35215 2.363-1.4624 2.363-1.4624s-2.3459 1.1045-2.6009 1.0102c-0.25527-0.09453-1.0571-2.439-1.0571-2.439z" style="fill-rule:evenodd;fill:#c7c388"/>
	<path id="path10732-67-02-6-7-1-51-0" d="m24.464 26.473c0.28677 0.25211 0.74371 0.6862 0.76025 0.79823 0.01581 0.11188-0.50027 0.93318-0.74134 1.3815 0 0 0.8102-1.246 0.90939-1.2675 0.09927-0.02365 1.0352 0.80485 1.0352 0.80485s-0.90135-0.82604-0.93491-0.96934c-0.03152-0.14338 0.53021-0.9814 0.53021-0.9814s-0.5956 0.85337-0.70353 0.87142c-0.10794 0.01581-0.85534-0.63735-0.85534-0.63735z" style="fill-rule:evenodd;fill:#c7c388"/>
	<path id="path10732-67-02-6-7-1-1-1-6" d="m20.895 10.599c0.3821-0.01577 1.0114-0.02365 1.1011 0.04727 0.08981 0.0709 0.28677 1.0191 0.42306 1.5094 0 0-0.27969-1.4596-0.22295-1.5439 0.05517-0.08429 1.304-0.13708 1.304-0.13708s-1.2222 0.03153-1.3458-0.04727c-0.12449-0.07957-0.29778-1.0751-0.29778-1.0751s0.16229 1.0282 0.09689 1.1158c-0.06301 0.08824-1.0586 0.13314-1.0586 0.13314z" style="fill-rule:evenodd;fill:#c7888e"/>
	<path id="path10732-67-02-6-7-1-1-51-2-47" d="m27.609 7.4908c0.48766-0.32222 1.3113-0.8232 1.4837-0.80224 0.17251 0.0233 1.1779 1.1124 1.7434 1.6481 0 0-1.5155-1.696-1.5076-1.851 0.0082-0.15518 1.6035-1.2065 1.6035-1.2065s-1.5813 1.0001-1.8063 0.99243c-0.22531-0.0062-1.2369-1.1767-1.2369-1.1767s1.0214 1.2222 1.005 1.3885c-0.01602 0.16621-1.2847 1.0077-1.2847 1.0077z" style="fill-rule:evenodd;fill:#889fc7"/>
	<path id="path10732-67-02-6-7-1-1-51-2-9-5" d="m13.167 28.258c0.48766-0.323 1.3114-0.8232 1.4838-0.80233 0.17252 0.0237 1.1778 1.1124 1.7433 1.6481 0 0-1.5155-1.696-1.5076-1.851 0.0081-0.15518 1.6036-1.2065 1.6036-1.2065s-1.5813 1.0001-1.8062 0.99243c-0.2253-0.0062-1.2369-1.1767-1.2369-1.1767s1.0214 1.2222 1.005 1.3885c-0.01577 0.16621-1.2847 1.0077-1.2847 1.0077z" style="fill-rule:evenodd;fill:#889fc7"/>
	<path id="path10732-4-4" d="m26.144 17.479c-0.56566 0.08507-1.4918 0.26235-1.6032 0.38997-0.11108 0.12841-0.12527 1.5798-0.18438 2.3395 0 0-0.01581-2.2247-0.11974-2.332-0.10716-0.10716-1.9551 0.17569-1.9551 0.17569s1.8036-0.31042 1.9619-0.46403c0.15836-0.15364 0.12607-1.6651 0.12607-1.6651s0.06301 1.5569 0.18122 1.6668c0.12056 0.10954 1.5934-0.11108 1.5934-0.11108z" style="fill-rule:evenodd;fill:#ffffff"/>
	<path id="path10732-67-54" d="m31.678 29.053c-0.46009-0.33955-1.24-0.86953-1.4094-0.85779-0.16935 0.01581-1.2059 1.0283-1.7848 1.5237 0 0 1.5645-1.5816 1.5645-1.7335 0-0.15204-1.5066-1.2582-1.5066-1.2582s1.495 1.0555 1.7153 1.0592c0.22061 0.0047 1.2667-1.0881 1.2667-1.0881s-1.0586 1.1433-1.0507 1.3065c0.0074 0.16305 1.2051 1.0483 1.2051 1.0483z" style="fill-rule:evenodd;fill:#ffffff"/>
	<path id="path10732-67-02-6-6" d="m8.1127 35.811c-0.38131-0.87268-1.0637-2.2852-1.3177-2.4092-0.25447-0.12371-2.5936 0.479-3.8404 0.71062 0 0 3.5712-0.97761 3.6976-1.1966 0.12607-0.21902-1.1247-3.0672-1.1247-3.0672s1.2765 2.7655 1.591 2.954c0.31356 0.19068 2.7312-0.51445 2.7312-0.51445s-2.4771 0.76734-2.6016 1.0087c-0.12449 0.24185 0.86464 2.5136 0.86464 2.5136z" style="fill-rule:evenodd;fill:#c7c388"/>
	<path id="path10732-67-02-6-7-8" d="m18.039 32.174c0.30725-0.9012 0.75631-2.4046 0.65232-2.6674-0.10401-0.26235-2.2377-1.396-3.3147-2.0656 0 0 3.2959 1.6871 3.5368 1.6107 0.24108-0.07878 1.2386-3.023 1.2386-3.023s-0.92302 2.9026-0.81792 3.254c0.1032 0.35215 2.3631 1.4625 2.3631 1.4625s-2.346-1.1045-2.6009-1.0102c-0.25528 0.09455-1.0572 2.439-1.0572 2.439z" style="fill-rule:evenodd;fill:#c7c388"/>
	<path id="path10732-67-02-6-7-1-1-2" d="m26.076 24.84c0.3821 0.01581 1.0115 0.02349 1.1011-0.04726 0.08981-0.0709 0.28677-1.0192 0.42307-1.5095 0 0-0.27971 1.4597-0.22294 1.5439 0.05517 0.08431 1.304 0.13707 1.304 0.13707s-1.2222-0.03156-1.3458 0.04726c-0.12449 0.07956-0.2978 1.0751-0.2978 1.0751s0.16153-1.0282 0.09687-1.1158c-0.06301-0.08747-1.0586-0.13315-1.0586-0.13315z" style="fill-rule:evenodd;fill:#c7888e"/>
	<path id="path10732-67-02-6-7-1-1-51-9-6" d="m28.229 11.094c0.3821 0.01601 1.0115 0.02369 1.1011-0.04729 0.08981-0.0709 0.28677-1.0191 0.42306-1.5095 0 0-0.27969 1.4597-0.22295 1.544 0.05517 0.08429 1.3041 0.13705 1.3041 0.13705s-1.2222-0.03146-1.3458 0.04724c-0.12445 0.07956-0.29778 1.0751-0.29778 1.0751s0.16151-1.0282 0.09693-1.1158c-0.06301-0.08745-1.0586-0.13313-1.0586-0.13313z" style="fill-rule:evenodd;fill:#889fc7"/>
	<path id="path10732-67-02-6-78-7" d="m31.717 33.942c-0.1039 0.23777-0.28987 0.62267-0.35905 0.65646-0.06934 0.0337-0.70673-0.13052-1.0465-0.19363 0 0 0.97309 0.2664 1.0075 0.32606 0.03435 0.05968-0.30644 0.83575-0.30644 0.83575s0.3478-0.75355 0.43352-0.80492c0.08544-0.05195 0.74417 0.14018 0.74417 0.14018s-0.67494-0.20909-0.70888-0.27484c-0.03392-0.0659 0.23562-0.68492 0.23562-0.68492z" style="fill-rule:evenodd;fill:#c7c388"/>
	<path id="path2" style="color-rendering:auto;text-decoration-color:#000000;color:#000000;font-variant-numeric:normal;text-orientation:mixed;shape-padding:0;shape-rendering:auto;solid-color:#000000;stroke:#ffffff;text-decoration-line:none;stroke-width:.30227;font-variant-position:normal;mix-blend-mode:normal;font-feature-settings:normal;font-variant-alternates:normal;text-indent:0;dominant-baseline:auto;font-variant-caps:normal;image-rendering:auto;white-space:normal;text-decoration-style:solid;font-variant-ligatures:normal;isolation:auto;text-transform:none" d="m15.53 2.8034c-0.07846 0.00199-0.12693 0.04532-0.14875 0.1031-0.02179 0.057699-0.01929 0.12897-0.002 0.19119l0.00063 0.00199 0.002 0.00199c0.24152 0.27184 0.60906 0.35341 0.93878 0.45202 1.5898 0.50087 3.2552 0.72353 4.9156 0.80698h0.00016c2.0175 0.07397 4.0356 0.00998 6.0429-0.17685l0.000419-0.00005 0.000379-0.0000399c1.1002-0.18628 2.2684-0.17075 3.2917 0.31258v0.0001298c0.71272 0.31398 1.2486 0.97027 1.4751 1.7068-0.01929 0.027352-0.04518 0.044222-0.07726 0.053805-0.03368 0.010083-0.07366 0.012378-0.11595 0.01138-0.08216-0.00199-0.17199-0.016271-0.24587-0.00699-0.66217-0.9808-1.7991-1.5707-2.9642-1.6814-2.4074-0.22353-4.8115 0.15422-7.2099 0.28038h-0.000171l-0.000129 0.0000399c-3.3883 0.27313-6.9672 0.39329-10.142-1.0048l-0.00013-0.00005-0.00014-0.0000399c-0.52923-0.21864-0.91605-0.71977-1.4777-0.88469l-0.00202-0.0007088-0.003 0.0004592c-0.10016 0.018268-0.16207 0.064586-0.1924 0.12619-0.030285 0.061592-0.029289 0.13674-0.009 0.21289 0.040578 0.15228 0.15738 0.31043 0.27186 0.38037l-0.00202-0.0009919c0.4805 0.45577 1.0699 0.78541 1.6724 1.051l0.00029 0.0001297 0.00025 0.0000799c1.8939 0.71451 3.9436 0.95202 5.951 1.0993h0.00067c1.7099 0.019765 3.4307 0.067581 5.1385-0.00799l-0.00029 0.0000598c1.4535-0.028051 2.9042-0.18837 4.3584-0.18148h0.00033l0.00034-0.00005c0.8224-0.047217 1.7223 0.26844 2.224 0.93821l0.00038 0.0005489 0.00047 0.0004592c0.04668 0.048814 0.10421 0.16942 0.11809 0.26667 0.007 0.048614 0.003 0.09094-0.01509 0.11555-0.009 0.012278-0.02089 0.020763-0.03818 0.024956-0.01729 0.00399-0.04028 0.00399-0.06957-0.00399l-0.002-0.0003793-0.002 0.0000898c-0.69552 0.04562-1.3631-0.19247-2.0483-0.25313l-0.009-0.0008011-0.002 0.00898c-0.05108 0.17569-0.07117 0.38967-0.03418 0.59073 0.03698 0.20098 0.13153 0.38938 0.30987 0.51122 0.00002 0.00002 0.00005 0.00003 0.00008 0.0000599 0.00006 0.00002 0.00008 0.0000799 0.00014 0.0001297 0.35337 0.25238 0.78502 0.35983 1.1759 0.53691 0.23275 0.1569 0.49026 0.27969 0.67864 0.48674-0.32543 0.01357-0.65012-0.058-0.97411-0.09773l-0.0009-0.00008-0.000899 0.00006c-0.37704 0.01597-0.75862 0.02196-1.1318 0.04193l-0.007 0.00038-0.003 0.006c-0.48179 1.1673-0.5122 2.5548 0.08446 3.6868l0.00006 0.00014 0.00008 0.00014c0.35189 0.62892 0.79867 1.2055 1.2993 1.7215l0.000975 0.000966 0.000974 0.000823c0.60054 0.33268 1.285 0.51783 1.8323 0.9381 0.65356 0.73785 1.0864 1.6377 1.5044 2.5245l-0.00036-0.000824c0.10535 0.28365 0.4254 0.47844 0.72259 0.37355 0.64671-0.18138 1.1055-0.76654 1.2939-1.3886l0.00027-0.000629v-0.000718c0.22905-1.3734-0.23147-2.835 0.27951-4.1563 0.07337-0.14797 0.19987-0.27983 0.30119-0.42242 0.10142-0.14273 0.17761-0.29764 0.14575-0.49007v0.000965c-0.05577-1.0487 0.10864-2.0882 0.193-3.1321 0.50034 0.01088 1.1053 0.02955 1.6457-0.09344 0.5438-0.12374 1.0227-0.3921 1.2581-0.95604l0.000825-0.00199v-0.17131l-0.004-0.00299c-0.31449-0.25629-0.7396-0.22144-1.1058-0.31019l-0.00027-0.0000499-0.000279-0.00006c-0.68878-0.14468-1.3935-0.096131-2.0905-0.10424-0.13018-0.89181-0.42201-1.8171-1.1556-2.4056-0.94351-0.75848-2.1266-1.2567-3.3404-1.3266-2.6106-0.25103-5.1893 0.355-7.7813 0.52581h-0.00014c-0.62792 0.048614-1.2591 0.066983-1.8892 0.057799-1.1108-0.047117-2.2404-0.089443-3.3047-0.43675l-0.00006-0.0000499c-0.44858-0.14406-0.90207-0.27339-1.3385-0.44937l-0.002-0.0007989h-0.18996zm0.000409 0.021562h0.18563c0.43722 0.17611 0.89048 0.30548 1.3379 0.44916 1.068 0.34854 2.1997 0.39072 3.3104 0.4378h0.000311c0.63082 0.00898 1.2627-0.00898 1.8915-0.057898l-0.00014 0.00005c2.5944-0.17098 5.1719-0.77644 7.7779-0.52585h0.00028l0.00027 0.0000399c1.2089 0.069577 2.3882 0.56595 3.3286 1.3219 0.72968 0.58536 1.0202 1.5089 1.1493 2.4011l0.000975 0.00898 0.009 0.0000798c0.70117 0.00898 1.4075-0.040729 2.0953 0.10378 0.36944 0.089443 0.78706 0.057 1.093 0.30317v0.15587c-0.2326 0.55546-0.70279 0.81902-1.2422 0.94175-0.53992 0.12286-1.1481 0.10355-1.6504 0.09264l-0.0102-0.00022-0.000824 0.01008c-0.08406 1.0462-0.25013 2.09-0.194 3.1451v0.001178c0.03068 0.18517-0.04198 0.33318-0.14205 0.47409-0.10013 0.14091-0.2278 0.27335-0.30321 0.42574l-0.00028 0.000418-0.000279 0.000459c-0.51469 1.3302-0.05307 2.794-0.28072 4.1603-0.18681 0.61627-0.64167 1.1949-1.2793 1.3736l-0.000359 0.000091-0.00033 0.00013c-0.28474 0.10069-0.59393-0.08725-0.69548-0.36064l-0.00027-0.000419-0.00028-0.000411c-0.41821-0.88725-0.8518-1.7895-1.5084-2.5305l-0.00072-0.000749-0.000825-0.000638c-0.55149-0.42378-1.237-0.60904-1.8344-0.93969-0.49907-0.5145-0.94427-1.0892-1.2948-1.7158-0.59199-1.1233-0.56306-2.5013-0.08596-3.662 0.37016-0.01966 0.74889-0.02585 1.1237-0.04163 0.33094 0.04063 0.66544 0.11697 1.0034 0.09793l0.02189-0.000992-0.01429-0.01657c-0.19382-0.22401-0.46438-0.34832-0.70267-0.50911l-0.000749-0.000509-0.000825-0.000379c-0.39354-0.17838-0.82384-0.28578-1.173-0.53523l-0.00009-0.0000799-0.000078-0.0000499c-0.17287-0.118-0.26475-0.30047-0.30102-0.49747-0.03568-0.19381-0.01679-0.40096 0.03158-0.57202 0.67827 0.061691 1.3443 0.29792 2.0424 0.25208l-0.003-0.0002896c0.03158 0.00799 0.05797 0.00898 0.07976 0.00399s0.03898-0.01707 0.05068-0.033342c0.02339-0.032343 0.02629-0.079759 0.01899-0.13119-0.01469-0.1028-0.07137-0.22356-0.12386-0.27849-0.50728-0.67632-1.4133-0.99334-2.2416-0.94583-1.4556-0.00699-2.9062 0.15351-4.3582 0.18148h-0.00028c-1.7067 0.075966-3.427 0.02815-5.1371 0.00799h-0.000159c-2.0064-0.14722-4.0536-0.38464-5.9437-1.0977l-0.000139-0.0000498c-0.60116-0.26504-1.1882-0.59365-1.6661-1.0469l-0.0008246-0.0007561-0.0009745-0.0006289c-0.10755-0.065684-0.22342-0.22168-0.26225-0.3675-0.019393-0.072872-0.019694-0.14276 0.00697-0.19787 0.02689-0.054604 0.080761-0.096131 0.17451-0.11383 0.55133 0.16311 0.93722 0.66152 1.4728 0.88285 3.1811 1.4006 6.7638 1.2797 10.153 1.0065 2.3999-0.12624 4.8029-0.5036 7.2067-0.28042 1.1611 0.11034 2.2942 0.69917 2.9517 1.6767l0.004 0.00599 0.007-0.0009919c0.06937-0.010382 0.16245 0.00499 0.24924 0.00699 0.04338 0.0009919 0.08536-0.000992 0.12265-0.012278 0.03728-0.011081 0.06997-0.031644 0.09255-0.066084l0.003-0.00399-0.000974-0.00499c-0.22721-0.74451-0.76794-1.4081-1.489-1.7258-1.0286-0.48574-2.2009-0.50097-3.3034-0.3144-2.0064 0.18672-4.0236 0.25075-6.0401 0.17677l0.00013 0.0000499c-1.6592-0.083353-3.3228-0.30589-4.9104-0.80606l-0.00005-0.0000399h-0.00008c-0.3299-0.098626-0.6911-0.18014-0.92687-0.44378-0.01549-0.058098-0.01729-0.12453 0.002-0.17551 0.01949-0.051609 0.05807-0.087746 0.129-0.089143zm10.595 4.0168c-0.02519-0.00199-0.05227 0.00199-0.08326 0.010481l-0.003 0.0007861-0.002 0.00199c-0.28431 0.29686-0.41004 0.7183-0.60626 1.0552-0.09735-0.055502-0.14323-0.12442-0.15918-0.2036-0.01649-0.081956-0.000974-0.17523 0.02359-0.27243 0.04958-0.19439 0.13804-0.40381 0.06767-0.57286l-0.003-0.00699-0.007-0.0000498c-0.13466-0.0003894-0.23892 0.048814-0.32124 0.12778-0.08236 0.079061-0.14314 0.18741-0.19396 0.30653-0.09885 0.23178-0.16121 0.50342-0.26225 0.68143-0.06257-0.090141-0.1281-0.19151-0.1666-0.29816-0.04058-0.11254-0.05147-0.22929 0.000975-0.34378l0.00038-0.0007563 0.00022-0.000801c0.01629-0.057799 0.03348-0.13417 0.01979-0.1914-0.007-0.02865-0.02269-0.053306-0.05068-0.064586s-0.06577-0.00898-0.11666 0.00799l-0.003 0.0009305-0.002 0.00199c-0.32623 0.36056-0.33733 0.86616-0.45904 1.3053-0.09785-0.01996-0.14765-0.08146-0.17496-0.16772-0.02829-0.08934-0.03139-0.20365-0.03538-0.31511-0.004-0.11146-0.009-0.2201-0.04408-0.30039-0.01759-0.040129-0.04318-0.07337-0.08016-0.094733-0.03698-0.021362-0.08476-0.030646-0.14559-0.025255l-0.004 0.0003795-0.003 0.00299c-0.32126 0.3607-0.36854 0.86042-0.47819 1.3058-0.09545-0.02855-0.14452-0.10881-0.17102-0.20789-0.02749-0.10282-0.03038-0.22273-0.03688-0.31346 0.01909-0.0578 0.01359-0.1091-0.009-0.14936-0.02329-0.041228-0.06317-0.070975-0.10884-0.087746-0.09116-0.033541-0.20752-0.015972-0.26586 0.070975-0.2355 0.30698-0.18933 0.71009-0.27766 1.0591-0.09695 0.003-0.1677-0.04412-0.22739-0.11597-0.06147-0.07397-0.1102-0.17344-0.16011-0.26595-0.04988-0.09254-0.10082-0.17849-0.17039-0.225-0.06957-0.04652-0.15797-0.05031-0.27282 0.01897l-0.005 0.003-0.000081 0.006c-0.005 0.40078-0.01349 0.80248-0.01549 1.2039-0.11412-0.01717-0.20878-0.09693-0.30705-0.17021-0.10175-0.07587-0.2094-0.14301-0.34755-0.11209l-0.006 0.000992-0.002 0.006c-0.09335 0.33566-0.05097 0.69072-0.11472 1.0264-0.07186-0.07017-0.13661-0.16002-0.20937-0.24077-0.07796-0.08645-0.16642-0.16103-0.28583-0.18131l-0.007-0.000992-0.004 0.006c-0.22889 0.3512-0.15601 0.78849-0.25628 1.1709-0.09725-0.02376-0.17371-0.10688-0.25602-0.18371-0.08526-0.07956-0.17935-0.15068-0.3116-0.12694l-0.009 0.002-0.00008 0.009c-0.005 0.37533-0.03408 0.7567-0.09805 1.1242-0.05837 0.02605-0.13167 0.02576-0.20929 0.02425-0.07966-0.002-0.16315-0.003-0.23774 0.02795l-0.005 0.002-0.000974 0.005c-0.08236 0.32171 0.006 0.65753-0.002 0.97833-0.01629 0.03663-0.04048 0.04981-0.07227 0.05371-0.03228 0.004-0.07177-0.003-0.11106-0.01-0.03938-0.006-0.07866-0.01218-0.11272-0.002-0.03398 0.01-0.06087 0.03793-0.07067 0.09094l0.000469-0.002c-0.7742 2.1647-2.0196 4.1404-3.4943 5.8961l-0.00008 0.000139-0.00009 0.000079c-0.99902 1.2435-2.5162 1.8544-3.8136 2.7257l-0.000171 0.000141-0.000129 0.000078c-1.0834 0.78308-2.1968 1.537-3.172 2.4582-0.80143 0.72557-1.1835 1.7436-1.5743 2.7143l-0.00014 0.000291-0.0001399 0.000378c-0.60452 1.8516-0.6405 4.027 0.42296 5.7249h0.00005c1.0311 1.6397 2.9554 2.5625 4.8588 2.6315h0.61676c1.1803-0.03015 2.4317-0.25202 3.3363-1.0771h0.0003c1.1653-1.1364 1.9361-2.7407 1.8816-4.3891-0.08496-2.624-2.4584-4.8731-5.048-5.0179l-0.00042-0.00006c-1.0813-0.10345-2.308 0.1012-3.0741 0.93999l-0.0000495 0.000051-0.0000599 0.00006c-0.70822 0.79119-0.8486 1.9137-0.82982 2.9288v0.000539c0.093555 1.3324 1.3825 2.3281 2.6731 2.3372 0.000079 0.00001 0.00013-0.00001 0.00022 0h0.000668c1.176 0.10089 2.2823-0.92628 2.3315-2.091 0.19928-0.02655 0.38042 0.10586 0.46131 0.28252 0.22806 0.60032 0.04028 1.3083-0.43057 1.7357-0.76529 0.62504-1.8101 1.0986-2.8049 0.78588h-0.00006c-0.69708-0.2177-1.4654-0.36626-1.994-0.90576-0.68213-0.69005-0.84293-1.7116-0.81904-2.6445v-0.000539c-0.026687-1.0784 0.29079-2.2484 1.1418-2.9667l0.0000502-0.00006c0.69112-0.57696 1.6029-0.79627 2.4855-0.84571h0.00014c1.2137-0.08385 2.4754 0.10975 3.5477 0.70481 1.1524 0.64217 1.9717 1.7616 2.4154 2.9867l0.00006 0.00016 0.00008 0.00017c0.02559 0.06439 0.04428 0.14837 0.08296 0.21255 0.01939 0.03215 0.04408 0.05949 0.07746 0.07586 0.03268 0.01607 0.07357 0.02076 0.12369 0.01108 1.9867 0.27774 4.0592 0.43296 6.0199-0.08645l0.01739-0.005-0.01229-0.01308c-0.56664-0.60466-1.1091-1.2519-1.472-1.9995l-0.000139-0.00025-0.000139-0.000249c-0.05527-0.1005-0.08896-0.27194-0.06487-0.39395 0.01209-0.06099 0.03798-0.10873 0.08046-0.13178 0.04198-0.02276 0.10283-0.02276 0.18874 0.01637 0.89878 1.7319 2.5612 2.8879 4.1034 4.0087h0.00016c1.1975 0.82967 2.572 1.428 3.594 2.4852 0.06357 0.07526 0.15098 0.14554 0.21666 0.22412 0.06377 0.07636 0.1056 0.15933 0.08926 0.26276-1.2094-0.14545-2.5621 0.18911-3.6576-0.45198l-0.004-0.002-0.004 0.000878c-0.23184 0.05131-0.44361 0.21322-0.66407 0.34274-0.2202 0.12937-0.44748 0.22651-0.71156 0.15487-0.45202-0.21344-0.67549-0.69034-0.93892-1.0936l-0.004-0.006-0.007 0.000688c-0.85511 0.08625-1.7497 0.35576-2.4072 0.93699l-0.009 0.008 0.008 0.008c0.56023 0.56405 1.3162 0.84852 2.0272 1.1584h0.00013c0.5592 0.23719 1.175 0.37983 1.7851 0.30228 2.0981 0.01507 4.2227-0.20432 6.2963 0.18064l0.000974 0.00027h0.000975c0.15654-0.007 0.33092-0.04272 0.47545-0.1216 0.14452-0.07886 0.25936-0.20116 0.29346-0.37792 0.12597-0.64436-0.24486-1.274-0.74065-1.6592l-0.000531-0.000459c-1.4912-1.3241-2.8812-2.8002-4.019-4.4299 1.4939-0.25887 2.7215-1.2049 3.975-1.9874l0.00047-0.0003 0.00044-0.000299c0.35365-0.27185 0.78482-0.41987 1.2251-0.48216 0.25588-0.0039 0.50974-0.0039 0.76587-0.009 0.11767 0.01727 0.25498 0.03135 0.36658 0.07647 0.11187 0.04512 0.1973 0.1193 0.2162 0.26082v0.001179c0.33146 1.3414 0.27343 2.7629 0.02359 4.1117l-0.000975 0.008 0.008 0.0039c0.16569 0.07747 0.30905 0.22061 0.38578 0.38739 0.07676 0.16678 0.08726 0.35645-0.0112 0.52977-0.126 0.23371-0.35563 0.29006-0.59754 0.3379-0.24183 0.04782-0.49535 0.08625-0.65789 0.28891-0.13882 0.15517-0.18734 0.34685-0.19792 0.54511-0.01059 0.19836 0.01649 0.40384 0.02939 0.5885 0.05797 0.61155-0.03918 1.2492 0.11225 1.8546v0c0.02339 0.12248 0.11182 0.19276 0.20979 0.20457 0.09795 0.01178 0.20565-0.03404 0.26916-0.13859l-0.000975 0.000966c0.72021-0.86358 1.3822-1.781 1.9816-2.7328l0.00028-0.0003c0.53965-0.79688 0.30758-1.8034 0.23008-2.6934v-0.000708c-0.09235-0.60919-0.008-1.2287-0.06457-1.8459-0.03438-1.1078 0.40691-2.1489 0.61199-3.2239l0.00028-0.000824v-0.000823c0.01-0.31658-0.1743-0.55768-0.42708-0.6937-0.25241-0.13582-0.57357-0.16828-0.84288-0.06978-1.8196 0.42387-3.7029 0.34025-5.5511 0.47034l-0.008 0.000588-0.002 0.008c-0.20928 0.92136-0.32804 1.9246-0.95272 2.6728l-0.000281 0.000299-0.00027 0.00034c-0.36551 0.5102-0.94443 0.85012-1.5642 0.93944-0.26635-0.34751-0.34921-0.7983-0.27884-1.2264l0.000139-0.000548v-0.000589c0.04528-0.77719 0.09076-1.5703-0.04538-2.3418-0.11268-1.1302-0.79744-2.0957-1.5285-2.9196l-0.000221-0.000249c-0.69372-0.83156-1.5718-1.5596-2.6279-1.8655 0.45614-0.05331 0.98826 0.24423 1.4585 0.3749 2.303 0.84034 3.4525 3.4568 3.3557 5.7802v0.001258c0.03628 0.48032-0.20698 0.92989-0.20263 1.4094v0.001098c0.01 0.08815 0.04998 0.15158 0.10631 0.19169 0.05637 0.04012 0.12851 0.0571 0.20343 0.0557 0.14985-0.003 0.31219-0.07836 0.38704-0.19998l-0.000749 0.000966c1.0293-1.3087 0.93376-3.1524 0.3486-4.6268l-0.00027-0.00037-0.000281-0.000339c-0.75969-1.5647-1.9955-2.8223-3.155-4.0898-0.53639-0.7179-0.64007-1.6397-0.80612-2.4982v-0.000141c-0.27551-1.5092-0.09685-3.0761 0.30806-4.5454l0.00033-0.000975 0.00006-0.000974c0.002-0.09224 0.03948-0.15865 0.09295-0.20174 0.05337-0.04312 0.12318-0.06259 0.18933-0.0586 0.06617 0.004 0.12823 0.03144 0.16715 0.08086 0.03888 0.04951 0.05577 0.1215 0.02949 0.21856l-0.00009 0.00025-0.00005 0.000249c-0.6603 3.0085 0.01489 6.3908 2.1064 8.7146v0.00017c0.7577 0.8064 1.339 1.7739 1.7136 2.8139l0.02089-0.003c0.03678-1.1552-0.49669-2.2185-0.9211-3.2657v-0.000291c-0.49443-1.3327-0.29675-2.7897-0.01019-4.1471l0.000975-0.007-0.006-0.004c-1.0113-0.74222-1.8261-1.8434-1.9335-3.1233l-0.00006-0.00014v-0.00013c-0.13761-1.2655 0.30149-2.4881 0.50434-3.7228l0.000974-0.00699-0.006-0.00399c-0.26156-0.15331-0.50171-0.35049-0.69901-0.58026-0.01849-0.033342-0.02439-0.085949-0.02439-0.14603-0.00003-0.060394 0.005-0.12823 0.007-0.19237 0.000975-0.064187-0.000749-0.12458-0.01759-0.17151-0.01689-0.046917-0.05097-0.080558-0.10703-0.083952zm-0.000975 0.021462h0.00006c0.04848 0.00299 0.07306 0.027951 0.08806 0.069777 0.01499 0.041827 0.01779 0.10047 0.01629 0.16373-0.000975 0.063289-0.007 0.13115-0.007 0.19288 0.000021 0.061691 0.005 0.11738 0.02739 0.15717l0.000499 0.0009656 0.00072 0.0007861c0.19749 0.23026 0.43759 0.42761 0.69901 0.58178-0.20291 1.2297-0.64129 2.4523-0.50325 3.7218 0.10801 1.2855 0.92442 2.3894 1.9368 3.1343-0.28608 1.3567-0.48371 2.8155 0.01249 4.1527v0.000309c0.41784 1.031 0.93735 2.074 0.91975 3.2004-0.37607-1.0221-0.95053-1.973-1.6972-2.7677l-0.00028-0.00016c-2.086-2.3178-2.7601-5.6932-2.1012-8.6954l-0.00014 0.000509c0.02759-0.10197 0.01-0.18231-0.03338-0.23749-0.04338-0.0552-0.1115-0.08475-0.18276-0.08904-0.07127-0.004-0.14617 0.01647-0.2042 0.06329-0.05757 0.04642-0.09775 0.11904-0.10062 0.21575-0.40548 1.4714-0.58467 3.0414-0.30839 4.5547l0.00005 0.000059v0.00005c0.16587 0.85753 0.26915 1.7835 0.81029 2.5075l0.00034 0.000409 0.000341 0.000419c1.1598 1.268 2.394 2.5243 3.1518 4.0848 0.58301 1.4693 0.67702 3.3046-0.3457 4.605l-0.000381 0.000498-0.0003 0.000509c-0.06957 0.11304-0.22629 0.18709-0.36906 0.18972-0.07137 0.000966-0.13894-0.01507-0.19056-0.05171-0.05147-0.03663-0.08776-0.09334-0.09725-0.17601-0.004-0.47144 0.23897-0.92125 0.20256-1.409v-0.00068c-0.00002-0.000189 0.00001-0.000389 0-0.000589 0.09665-2.3308-1.0559-4.9557-3.3698-5.8001l-0.00038-0.00014-0.000419-0.000139c-0.48495-0.13458-1.0442-0.45947-1.5245-0.37116l-0.000899 0.02096c1.0748 0.29456 1.9678 1.0314 2.6718 1.8753l0.00014 0.00014 0.00008 0.00013c0.73019 0.82284 1.4118 1.7851 1.5235 2.9085l0.00005 0.000419 0.00006 0.00038c0.1355 0.76818 0.09036 1.5596 0.04508 2.3367 0 0.000049 0.00001 0.00008 0 0.000129-0.07117 0.43492 0.01329 0.8939 0.2868 1.2472l0.004 0.005 0.006-0.000878c0.62777-0.08864 1.2142-0.43215 1.5847-0.94885 0.6281-0.75234 0.74768-1.7562 0.9555-2.6739 1.8439-0.12916 3.7257-0.04622 5.5465-0.47039l0.00064-0.000161 0.00063-0.000219c0.26288-0.09663 0.57915-0.06499 0.82646 0.06808 0.24715 0.133 0.42502 0.36588 0.41571 0.67352-0.20458 1.0715-0.64673 2.114-0.61215 3.2275v0.000638c0.05587 0.6141-0.02829 1.2344 0.06477 1.8478 0.07776 0.89226 0.30668 1.8918-0.22676 2.6791v0.000269c-0.59902 0.95118-1.2605 1.8679-1.9802 2.7308l-0.000519 0.000669-0.00044 0.000678c-0.05937 0.09783-0.15859 0.13918-0.24815 0.12838-0.08956-0.01078-0.16933-0.07297-0.19119-0.18724v-0.000609c-0.1502-0.60001-0.05347-1.2366-0.11182-1.852-0.01299-0.18556-0.03978-0.39008-0.02939-0.5856 0.0104-0.19563 0.05787-0.38167 0.19262-0.53216l0.00027-0.000279 0.00028-0.00028c0.1565-0.19538 0.4029-0.23346 0.64546-0.28142 0.24248-0.04791 0.48167-0.10675 0.6122-0.34866 0.10207-0.17976 0.09096-0.3776 0.01199-0.54936-0.07786-0.16922-0.22157-0.31313-0.38894-0.39361 0.24903-1.3483 0.3067-2.7696-0.02489-4.1122v-0.00022c-0.01999-0.14897-0.11342-0.23088-0.22945-0.27773-0.11608-0.04681-0.25533-0.06069-0.37243-0.07786l-0.0009-0.00014h-0.0009c-0.25639 0.0039-0.51074 0.0039-0.76738 0.009h-0.000689l-0.00064 0.00009c-0.44314 0.06259-0.87812 0.21164-1.2356 0.48632 0 0.00008-0.000278 0.000139-0.000359 0.000219-1.2592 0.78608-2.4887 1.7337-3.9831 1.9871l-0.01679 0.003 0.01 0.01388c1.1409 1.637 2.5362 3.1188 4.0327 4.4475l0.0003 0.000278 0.00027 0.000281c0.49119 0.38131 0.85729 1.0043 0.73328 1.6385-0.03278 0.16981-0.14207 0.28648-0.28262 0.36316-0.14027 0.07656-0.31142 0.11241-0.46505 0.11892-2.0774-0.38536-4.203-0.16571-6.2991-0.18077h-0.00143c-0.6053 0.07716-1.2178-0.06428-1.7749-0.3006h-0.00008c-0.708-0.30855-1.4564-0.59159-2.0115-1.1456 0.65016-0.57 1.5328-0.8371 2.379-0.92337 0.26084 0.40055 0.48582 0.8798 0.94505 1.0962l0.000825 0.000378 0.000899 0.000281c0.27227 0.07426 0.50708-0.02646 0.72907-0.15692 0.22088-0.12977 0.43063-0.28842 0.65451-0.33912 1.1076 0.64516 2.4681 0.30529 3.6728 0.45328l0.01 0.000966 0.002-0.01c0.02229-0.11577-0.02559-0.20907-0.09335-0.29017-0.06777-0.08106-0.15574-0.15166-0.21721-0.2247l-0.00027-0.000299-0.000279-0.00028c-1.0258-1.0612-2.4018-1.6599-3.5969-2.4878h-0.00022c-1.5435-1.1217-3.2036-2.277-4.0987-4.0047l-0.002-0.003-0.003-0.002c-0.09115-0.04222-0.16086-0.04412-0.2111-0.01697-0.05028 0.02715-0.07856 0.08186-0.09136 0.14653-0.02559 0.12929 0.009 0.30219 0.06707 0.40837 0.00002 0.00003 0.00002 0.000079 0.00005 0.000139 0.36176 0.74507 0.90054 1.3894 1.4631 1.9908-1.9512 0.51275-4.0146 0.3585-5.9947 0.08166l-0.002-0.00025-0.002 0.00038c-0.04818 0.01-0.08426 0.005-0.11292-0.009-0.02869-0.01407-0.05058-0.03793-0.06847-0.06768-0.03588-0.0595-0.05477-0.14224-0.08136-0.2091l-0.00013-0.0003c-0.44524-1.229-1.2672-2.3527-2.4251-2.9979h-0.00006c-1.0768-0.5976-2.3427-0.79158-3.5597-0.7075-0.88534 0.04961-1.8019 0.2695-2.4981 0.85071v0.00006h-0.0000494c-0.85773 0.72395-1.1762 1.9003-1.1495 2.9832 0 0.00016 0.0000101 0.000339 0 0.000509v0.00005c-0.023888 0.93562 0.13698 1.9633 0.82523 2.6596 0.53452 0.54553 1.3075 0.69409 2.0029 0.91127 1.005 0.31589 2.0567-0.16204 2.8253-0.78988l0.000219-0.00027 0.00022-0.000279c0.47778-0.43359 0.66804-1.1505 0.43635-1.7599l-0.000139-0.000299-0.00017-0.000329c-0.08536-0.18672-0.27878-0.32783-0.49258-0.29467l-0.009 0.000966-0.00033 0.009c-0.04288 1.156-1.1439 2.1807-2.3099 2.0801h-0.000829c-1.2798-0.009-2.5597-0.99745-2.6525-2.3169-0.018688-1.0127 0.12199-2.1291 0.82427-2.9137l0.0000794-0.00008c0.7596-0.83166 1.9793-1.0361 3.0564-0.93297h0.000221l0.000219 0.00006c2.5781 0.14392 4.9436 2.3855 5.0282 4.9971 0.05417 1.6412-0.71371 3.2403-1.8752 4.373-0.89866 0.81945-2.144 1.0411-3.3218 1.0712h-0.61565c-1.8969-0.06878-3.8148-0.98884-4.8414-2.6214-1.0589-1.6906-1.0238-3.8596-0.42081-5.7066 0.0000198-0.00009 0.0000498-0.00014 0.0000798-0.000219 0.39078-0.9709 0.77218-1.9848 1.5686-2.7058l0.0000799-0.00009 0.00009-0.000079c0.97339-0.91946 2.0858-1.6729 3.1695-2.4561l0.00033-0.000219c1.2947-0.86937 2.8145-1.4808 3.818-2.7297l0.000159-0.000221c1.4759-1.7572 2.7227-3.735 3.4979-5.9026l0.0003-0.000823 0.00016-0.000824c0.009-0.04781 0.02829-0.06618 0.05557-0.07417 0.02729-0.008 0.06417-0.003 0.10315 0.003s0.07986 0.01427 0.11717 0.01c0.03728-0.005 0.07147-0.02386 0.09036-0.06778l0.000825-0.002 0.00006-0.002c0.009-0.32387-0.07766-0.65648 0.00046-0.97018 0.06787-0.02695 0.14611-0.02665 0.22385-0.02516 0.07956 0.002 0.15842 0.0039 0.22398-0.02755l0.005-0.002 0.000975-0.005c0.06437-0.36764 0.09345-0.74883 0.09885-1.124 0.11843-0.01747 0.20255 0.04502 0.28469 0.12165 0.08416 0.07856 0.16481 0.17087 0.27656 0.19279l0.01 0.002 0.003-0.01c0.10583-0.38912 0.03218-0.82459 0.25236-1.1694 0.10875 0.02096 0.19136 0.08924 0.26625 0.1724 0.07666 0.08505 0.14485 0.18436 0.22571 0.25854l0.01399 0.01288 0.004-0.01867c0.07047-0.3444 0.02439-0.70452 0.11564-1.0398 0.12614-0.02535 0.22452 0.03494 0.32359 0.10874 0.10083 0.07517 0.2011 0.16343 0.32936 0.17736l0.01189 0.000992 0.00009-0.01188c0.002-0.40349 0.01069-0.80751 0.01559-1.2108 0.10757-0.06329 0.18238-0.0587 0.24461-0.01707 0.06327 0.04232 0.11378 0.12533 0.1634 0.21731 0.04958 0.09194 0.09855 0.19257 0.16247 0.26953 0.06397 0.07696 0.14444 0.13047 0.25345 0.12433l0.008-0.000419 0.002-0.008c0.09276-0.35676 0.04448-0.75948 0.27577-1.0605l0.00022-0.00025 0.000219-0.000289c0.05157-0.077165 0.15726-0.093535 0.24061-0.062889 0.04168 0.015373 0.07726 0.042226 0.09755 0.078162 0.02029 0.03594 0.02609 0.08096 0.007 0.13556l-0.00072 0.002 0.00017 0.002c0.006 0.08984 0.009 0.21126 0.03748 0.31788 0.02849 0.10661 0.08456 0.20014 0.19699 0.22765l0.0104 0.003 0.003-0.01038c0.11202-0.4492 0.15797-0.94819 0.47335-1.3052 0.05527-0.00399 0.09715 0.00399 0.12858 0.022361 0.03238 0.018667 0.05497 0.047516 0.07127 0.084751 0.03258 0.074269 0.03828 0.18125 0.04228 0.29253s0.007 0.22691 0.03638 0.32084c0.02979 0.09394 0.08906 0.16675 0.20162 0.18551l0.01 0.002 0.003-0.009c0.12531-0.44449 0.13477-0.94914 0.45495-1.3051 0.04658-0.015772 0.07856-0.016371 0.09895-0.00799 0.02079 0.00799 0.03198 0.025256 0.03778 0.049613 0.01169 0.048714-0.004 0.12398-0.01959 0.18055l0.00059-0.00199c-0.05527 0.12059-0.04348 0.24413-0.002 0.36002 0.04178 0.11589 0.1135 0.22482 0.17939 0.31889l0.01 0.013577 0.009-0.014275c0.1094-0.18278 0.17102-0.46486 0.27148-0.70035 0.05028-0.11775 0.10997-0.22362 0.18899-0.29947 0.07736-0.07427 0.17314-0.11948 0.2985-0.12106 0.06007 0.15618-0.02139 0.3583-0.07076 0.55197-0.02509 0.098327-0.04148 0.19447-0.02379 0.28197 0.01759 0.087546 0.07037 0.16556 0.17922 0.22433l0.009 0.00499 0.005-0.00898c0.20091-0.34091 0.32591-0.7643 0.60635-1.0587 0.02799-0.00799 0.05198-0.010782 0.07346-0.00898zm5.4478 3.7609c-0.05647 0.00043-0.11302 0.004-0.1717 0.01258l-0.01239 0.002 0.004 0.01198c0.13689 0.46227 0.52398 0.85742 0.81651 1.2471l0.0003 0.00038 0.00031 0.000339c0.13192 0.14709 0.30767 0.31687 0.50215 0.41657 0.19446 0.09973 0.40948 0.12862 0.61341-0.008l0.002-0.002 0.000974-0.003c0.08866-0.18629 0.07986-0.38059 0.01299-0.55727s-0.19133-0.33616-0.33488-0.45542v-0.000139c-0.40994-0.33012-0.88614-0.66914-1.4339-0.66524zm0.00027 0.02156c0.53871-0.004 1.011 0.33098 1.4202 0.66049 0.14094 0.11712 0.26316 0.27403 0.32835 0.44638 0.06487 0.17155 0.07316 0.35794-0.0114 0.53767-0.19616 0.13023-0.39934 0.10261-0.58876 0.006-0.19012-0.09743-0.3645-0.26532-0.49553-0.41136-0.29099-0.38757-0.67018-0.77799-0.80823-1.2273 0.05277-0.007 0.10421-0.01098 0.15536-0.01138zm-19.099 4.3145c-0.05967-0.000966-0.11861 0.009-0.16778 0.03044h-0.000049l-0.02159 0.003-0.000251 0.000061c-0.62788 0.12907-1.2496 0.31205-1.8399 0.56189-1.135 0.36598-2.1108 1.201-2.5653 2.3144l0.0004098-0.000825c-0.23543 0.4578-0.36874 0.95657-0.5653 1.4276-0.084059-0.01018-0.16676-0.03404-0.2508-0.05311-0.57038-0.19317-1.1563-0.35565-1.7558-0.43154l0.0000799 0.00006c-0.48153-0.06599-0.97995-0.09264-1.4604-0.000965-0.73212 0.11302-1.44 0.46994-1.9929 0.9497l-0.0002098 0.000219-0.0002099 0.000171c-0.48725 0.46984-0.98776 0.96959-1.299 1.58l-0.00099926 0.002v0.27806l0.005997 0.003c0.075264 0.04113 0.15106 0.04572 0.22478 0.02735 0.073664-0.01836 0.14566-0.059 0.21636-0.10798 0.1414-0.09803 0.27868-0.22957 0.40885-0.28736l0.0002898-0.00014 0.0003398-0.00017c0.67688-0.35404 1.477-0.41019 2.2193-0.25989 0.64745 0.13267 1.2489 0.42153 1.8038 0.77599 0.63879 0.46534 1.1614 1.062 1.6761 1.6539l0.0008021 0.000878 0.000967 0.000719c0.02109 0.01527 0.042579 0.05161 0.063169 0.09503 0.02059 0.04343 0.04088 0.09383 0.064069 0.13779 0.023189 0.04392 0.048776 0.08216 0.08326 0.10016 0.017192 0.009 0.036782 0.01248 0.057572 0.008 0.02069-0.004 0.04238-0.01587 0.065468-0.03564v0.00006c0.41328-0.3498 0.86245-0.66037 1.2665-1.0224 0.13311-0.08815 0.26771-0.17828 0.38031-0.29442l-0.0009746 0.000966c0.30606-0.23964 0.62445-0.46692 0.91327-0.7284l0.000221-0.00017 0.000169-0.000159c0.007-0.007 0.02009-0.01947 0.02749-0.02685 0.01899-0.01288 0.03628-0.02626 0.05247-0.03993 0.09315-0.06378 0.21275-0.11499 0.26806-0.21419l0.002-0.003-0.00059-0.0039c-0.06627-0.40468-0.10552-0.8149-0.15767-1.2214-0.000824-0.13217 0.002-0.26379-0.002-0.39592v-0.00006c0.03918-1.1794 0.35672-2.3743 1.138-3.285v-0.00006l0.00005-0.000049c0.24531-0.2922 0.53699-0.53801 0.83025-0.78226 0.19445-0.14227 0.44722-0.23901 0.5967-0.43667l0.000719-0.000965 0.00051-0.000966c0.04478-0.10085 0.01909-0.18227-0.04118-0.23547s-0.15293-0.08015-0.24406-0.08186c-0.00002-0.000011-0.00003 0-0.00006 0-0.00005-0.000011-0.00011 0-0.00016 0zm-0.000221 0.02156h0.00005c0.08706 0.002 0.17556 0.02825 0.23021 0.07656 0.05447 0.04802 0.07736 0.11575 0.03618 0.20956-0.14462 0.1903-0.39413 0.28684-0.59158 0.43137l-0.000299 0.000219-0.00024 0.00023c-0.29342 0.24437-0.58624 0.49104-0.8332 0.7852-0.78538 0.91567-1.1038 2.1156-1.1431 3.2983v0.000719c0.004 0.13178 0.000974 0.26367 0.002 0.39672v0.000628l0.00008 0.00063c0.05197 0.4047 0.09126 0.81382 0.15725 1.2182-0.05107 0.08864-0.16482 0.13971-0.25956 0.20452l-0.00046 0.000341-0.00046 0.000378c-0.01609 0.01377-0.03349 0.02705-0.05247 0.03993l-0.000825 0.000588-0.000719 0.000718c-0.007 0.007-0.020893 0.02027-0.028089 0.02735-0.28747 0.2602-0.6053 0.4871-0.91171 0.72701l-0.0005495 0.000459-0.0005503 0.000509c-0.11061 0.11409-0.24396 0.20347-0.37715 0.29173l-0.0006702 0.000459-0.0005892 0.00051c-0.40285 0.36106-0.85217 0.67171-1.2668 1.0226h-0.00005c-0.02119 0.01807-0.039781 0.02755-0.055873 0.03085-0.015992 0.003-0.029786 0.000824-0.043179-0.006-0.026887-0.01407-0.051775-0.04852-0.074164-0.09104s-0.042679-0.09264-0.063569-0.13695c-0.02099-0.04432-0.04198-0.08295-0.069966-0.10331l0.002 0.002c-0.51477-0.59206-1.0384-1.1902-1.6799-1.6574l-0.0002899-0.00017-0.0002499-0.00016c-0.55645-0.35548-1.1603-0.6457-1.8113-0.77911h-0.00006c-0.74605-0.15105-1.5509-0.09493-2.233 0.26162-0.00001 0.00001-0.00002 0.00003-0.00004 0.00006-0.13602 0.06039-0.27306 0.19277-0.41234 0.28929-0.069666 0.04832-0.13966 0.08745-0.20929 0.10479-0.067767 0.01687-0.13495 0.01288-0.2036-0.02296v-0.25927c0.3091-0.60521 0.80678-1.1028 1.2931-1.5718l0.0002099-0.000169c0.0000699-0.00008 0.0001399-0.000141 0.0002099-0.000221 0.55007-0.47714 1.2547-0.8322 1.982-0.9444h0.0001599l0.0001699-0.00005c0.47704-0.09054 0.97321-0.06419 1.4535 0.002h0.0001099c0.59757 0.07567 1.1824 0.23776 1.7521 0.43074l0.0005497 0.00016 0.0005497 0.000139c0.085958 0.01947 0.17211 0.04532 0.26178 0.0551l0.008 0.000877 0.003-0.007c0.19913-0.47518 0.33233-0.97651 0.56765-1.4341l0.0002196-0.00041 0.0002204-0.000419c0.452-1.1072 1.4232-1.9383 2.5529-2.3023l0.00047-0.000141 0.00042-0.000219c0.5888-0.24919 1.2092-0.43175 1.8358-0.56058l0.02219-0.003 0.000974-0.00063c0.04598-0.02066 0.10335-0.03044 0.1615-0.02935zm17.787 1.039-0.005 0.009c-0.34829 0.59047-0.48881 1.3122-0.40456 1.9864v0.000159c0.00001 0.000091-0.000009 0.000171 0 0.00025 0.08886 1.0083 0.73081 1.936 1.5044 2.5363l-0.002-0.002c0.02879 0.04113 0.07087 0.06259 0.11489 0.06768 0.04398 0.005 0.08996-0.006 0.12863-0.02775 0.03868-0.02216 0.07037-0.0561 0.08446-0.09813 0.01409-0.04202 0.01-0.09194-0.02099-0.14334l-0.0003-0.000469-0.000299-0.000409c-0.11941-0.16079-0.18105-0.34574-0.17678-0.54663v-0.000329c-0.004-0.47689-0.03228-0.95359 0-1.4284 0.1685-0.34268 0.18569-0.7704-0.04938-1.0939-0.31897-0.46471-0.66019-0.96657-1.1631-1.253zm0.008 0.02994c0.49195 0.28412 0.82984 0.77887 1.1468 1.2407v0.000269c0.23 0.31648 0.21318 0.73693 0.04648 1.0742l-0.000975 0.002-0.00028 0.002c-0.03238 0.47711-0.004 0.95489 0 1.4316-0.004 0.20545 0.05907 0.39542 0.18104 0.55962l-0.000599-0.000877c0.02829 0.04702 0.03109 0.08934 0.01899 0.12543-0.01209 0.03613-0.03988 0.06629-0.07476 0.08625s-0.07656 0.02955-0.1154 0.02505c-0.03878-0.005-0.07456-0.02256-0.09965-0.0586l-0.000975-0.000966-0.000974-0.000966c-0.76973-0.5974-1.4081-1.521-1.4962-2.5216v-0.000439c-0.08326-0.66583 0.05487-1.3789 0.39643-1.9633z"/>
</svg>
