<?xml version="1.0" encoding="UTF-8" standalone="no"?>
<!-- Created with Inkscape (http://www.inkscape.org/) -->

<svg
   xmlns:dc="http://purl.org/dc/elements/1.1/"
   xmlns:cc="http://creativecommons.org/ns#"
   xmlns:rdf="http://www.w3.org/1999/02/22-rdf-syntax-ns#"
   xmlns:svg="http://www.w3.org/2000/svg"
   xmlns="http://www.w3.org/2000/svg"
   xmlns:sodipodi="http://sodipodi.sourceforge.net/DTD/sodipodi-0.dtd"
   xmlns:inkscape="http://www.inkscape.org/namespaces/inkscape"
   width="210mm"
   height="297mm"
   viewBox="0 0 210 297"
   version="1.1"
   id="svg8339"
   inkscape:version="0.92.2 (5c3e80d, 2017-08-06)"
   sodipodi:docname="computate-letters.svg">
  <defs
     id="defs8333" />
  <sodipodi:namedview
     id="base"
     pagecolor="#ffffff"
     bordercolor="#666666"
     borderopacity="1.0"
     inkscape:pageopacity="0.0"
     inkscape:pageshadow="2"
     inkscape:zoom="0.35"
     inkscape:cx="1070.5849"
     inkscape:cy="560"
     inkscape:document-units="mm"
     inkscape:current-layer="layer1"
     showgrid="false"
     inkscape:window-width="1920"
     inkscape:window-height="1016"
     inkscape:window-x="0"
     inkscape:window-y="27"
     inkscape:window-maximized="1" />
  <metadata
     id="metadata8336">
    <rdf:RDF>
      <cc:Work
         rdf:about="">
        <dc:format>image/svg+xml</dc:format>
        <dc:type
           rdf:resource="http://purl.org/dc/dcmitype/StillImage" />
        <dc:title></dc:title>
      </cc:Work>
    </rdf:RDF>
  </metadata>
  <g
     inkscape:label="Layer 1"
     inkscape:groupmode="layer"
     id="layer1">
    <path
       inkscape:connector-curvature="0"
       d="m -104.51908,300.84523 q -0.38456,0 -0.84599,-0.30762 -0.46145,-0.33327 -0.69217,-0.69217 -1.20491,-1.87143 -1.51253,-2.4867 -0.66655,-1.41001 -0.66655,-2.7687 0,-1.23054 0.56398,-1.89709 2.56364,-2.94808 3.38412,-2.94808 0.64089,0 1.41,0.58965 0.76908,0.58964 1.10235,1.20491 0.58964,0.53837 1.17926,1.92272 0.58964,1.38434 0.58964,2.23036 0,1.25616 -1.7689,3.20461 -1.74328,1.94834 -2.74307,1.94834 z m -1.10236,-9.5368 -0.41018,0.0769 q -0.58964,0.92292 -0.58964,1.87144 0,1.25616 1.17926,3.48655 1.28182,2.46108 2.38417,2.46108 0.58965,0 0.97417,-0.7178 0.30762,-0.61527 0.30762,-1.28182 0,-1.07673 -0.25636,-1.82018 -0.33327,-1.02545 -1.38435,-2.30727 -1.20491,-1.48691 -2.20471,-1.7689 z"
       style="fill:#00ff00;stroke-width:0.28222069"
       id="letter-2-o-6" />
  </g>
</svg>
