<svg id="astronaut-helmet-svg" xmlns="http://www.w3.org/2000/svg" viewBox="0 0 49.659956 63.545456" height="67.782" width="52.971" version="1.1" xmlns:xlink="http://www.w3.org/1999/xlink">
	<defs id="defs85">
		<linearGradient id="linearGradient4237">
			<stop id="stop4239" style="stop-color:#ffffff" offset="0"/>
			<stop id="stop4241" style="stop-color:#ffffff;stop-opacity:0" offset="1"/>
		</linearGradient>
		<clipPath id="clipPath4275-5" clipPathUnits="userSpaceOnUse">
			<path id="path4277-62" style="color:#000000;fill:#ff0000" d="m341.1 643.71c-41.585 3.59-7.3259 88.448-31.472 87.854-11.306-0.27815-46.127-37.092-45.259-82.925 0.86787-45.833 32.771-76.754 56.917-76.16 53.882 1.3257 64.661 67.36 19.814 71.231z"/>
		</clipPath>
		<filter id="filter4269" style="color-interpolation-filters:sRGB" height="1.0984" width="1.1544" y="-.049209" x="-.077220">
			<feGaussianBlur id="feGaussianBlur4271" stdDeviation="2.7181196"/>
		</filter>
		<linearGradient id="linearGradient4223" y2="406.58" gradientUnits="userSpaceOnUse" y1="669.45" x2="389.19" x1="433.07">
			<stop id="stop4219" style="stop-color:#621e62;stop-opacity:.49412" offset="0"/>
			<stop id="stop4221" style="stop-color:#621e62;stop-opacity:0" offset="1"/>
		</linearGradient>
		<radialGradient id="radialGradient4243" cx="303.22" xlink:href="#linearGradient4237" gradientUnits="userSpaceOnUse" cy="611.61" r="17.676" gradientTransform="matrix(-1.7126 5.0806 -2.0282 -.68365 2063 -529.7)"/>
		<filter id="filter4283" style="color-interpolation-filters:sRGB" height="1.0176" width="1.0377" y="-.0088034" x="-.018842">
			<feGaussianBlur id="feGaussianBlur4285" stdDeviation="0.27754453"/>
		</filter>
		<filter id="filter4279" style="color-interpolation-filters:sRGB" height="1.0157" width="1.0509" y="-.0078518" x="-.025440">
			<feGaussianBlur id="feGaussianBlur4281" stdDeviation="0.34035855"/>
		</filter>
		<linearGradient id="linearGradient4321" y2="661.1" xlink:href="#linearGradient4237" gradientUnits="userSpaceOnUse" y1="599.04" x2="384.22" x1="387.21"/>
		<linearGradient id="linearGradient4325" y2="409.2" gradientUnits="userSpaceOnUse" y1="669.45" gradientTransform="matrix(.96367 0 0 .96367 12.059 19.537)" x2="394.95" x1="433.07">
			<stop id="stop4329" style="stop-color:#ffffff;stop-opacity:.55844" offset="0"/>
			<stop id="stop4331" style="stop-color:#ffffff;stop-opacity:0" offset="1"/>
		</linearGradient>
		<linearGradient id="linearGradient4335" y2="407.11" gradientUnits="userSpaceOnUse" y1="669.45" gradientTransform="matrix(-.96367 0 0 .96367 766.87 19.037)" x2="389.72" x1="433.07">
			<stop id="stop4341" style="stop-color:#ffffff;stop-opacity:.14286" offset="0"/>
			<stop id="stop4339" style="stop-color:#ffffff;stop-opacity:.55844" offset="1"/>
		</linearGradient>
	</defs>
	<g id="layer1" transform="translate(-431.34 -117.44)">
		<g id="layer2" transform="matrix(-.20125 0 0 .20125 532.23 37.286)">
			<g id="g4360" transform="rotate(-7.5189 318.55 731.5)">
				<path id="path3413" style="color:#000000;fill:#d4081b" d="m448.39 638.34c33.917 3.8322 4.6166 73.626 24.352 73.626 9.2404 0 38.256-29.871 38.256-67.963s-25.585-64.432-45.32-64.432c-44.039 0-53.866 54.636-17.288 58.769z"/>
				<path id="ellipse3338" d="m328.85 638.34c-33.917 3.8322-4.6166 73.626-24.352 73.626-9.2404 0-38.256-29.871-38.256-67.963s25.585-64.432 45.32-64.432c44.039 0 53.866 54.636 17.288 58.769z" style="color:#000000;fill:#ff0000"/>
				<path id="path3336" style="color:#000000;fill:#ff0000" d="m389.17 405.6c-36.138 27.736-78.223 75.471-78.223 150.07 0 48.109 14.569 90.337 36.502 114.26h83.441c21.933-23.927 36.502-66.155 36.502-114.26 0-74.596-42.085-122.33-78.223-150.07z"/>
				<path id="path4247" style="color:#000000;filter:url(#filter4269);fill:#d4081b" d="m352.56 674.16c-33.917 3.8322-4.6166 73.626-24.352 73.626-9.2404 0-38.256-29.871-38.256-67.963s25.585-64.432 45.32-64.432c44.039 0 53.866 54.636 17.288 58.769z" clip-path="url(#clipPath4275-5)" transform="matrix(.81694 -.020438 .015469 .83073 40.229 110.56)"/>
				<path id="rect3389" style="color:#000000;fill:#ffffff" d="m362.17 429.77c-5.036 5.2889-9.9516 11.006-14.631 17.154h83.258c-4.6792-6.1486-9.5948-11.865-14.631-17.154zm-51.145 120.58c-0.0477 1.7567-0.0801 3.5231-0.0801 5.3105 0 9.4188 0.5661 18.608 1.6289 27.482h153.19c1.0628-8.8747 1.6289-18.064 1.6289-27.482 0-1.7874-0.0324-3.5539-0.0801-5.3105h-156.29zm6.1113 58.02c2.9259 11.904 6.8108 22.93 11.49 32.795h121.08c4.6794-9.8649 8.5643-20.891 11.49-32.795z"/>
				<circle id="path3346" cx="389.17" cy="509.99" r="47.614" style="color:#000000;fill:#808080"/>
				<rect id="rect3391" style="color:#000000;fill:#ff0000" rx="8.8" height="127.65" width="17.154" y="585.17" x="380.42"/>
				<path id="path3415" style="color:#000000;fill:url(#linearGradient4223)" d="m389.17 405.6c22.893 47.917 40.188 78.54 33.783 129.89-4.7814 38.331-28.316 31.306-25.051 134.44h32.988c21.933-23.927 36.502-66.155 36.502-114.26 0-74.596-42.085-122.33-78.223-150.07z"/>
				<path id="circle4225" style="opacity:0.499;color:#000000;fill:#b3b3b3" d="m386.9 463.89a42.821 42.821 0 0 0 -42.82 42.82 42.821 42.821 0 0 0 42.82 42.82 42.821 42.821 0 0 0 42.822 -42.82 42.821 42.821 0 0 0 -42.822 -42.82zm0.002 11.1a31.721 31.721 0 0 1 31.721 31.721 31.721 31.721 0 0 1 -31.721 31.721 31.721 31.721 0 0 1 -31.723 -31.721 31.721 31.721 0 0 1 31.723 -31.721z"/>
				<circle id="path3348" cx="389.17" cy="509.51" r="31.581" style="color:#000000;fill:#00ccff"/>
				<circle id="circle4230" r="20.229" style="color:#000000;fill:#52dcff" cx="385.39" cy="502.19"/>
				<circle id="circle4232" cx="381.6" cy="493.87" r="7.8676" style="color:#000000;fill:#ffffff"/>
				<path id="path4234" d="m288.49 625.25c-9.0881 17.135-12.58 23.493-9.8884 40.748-3.9951-5.4167-7.7454-24.715-1.4112-43.048 6.158-17.822 24.215-40.189 30.256-30.107 7.1133 11.872-9.7711 15.088-18.956 32.406z" style="opacity:0.499;color:#000000;filter:url(#filter4283);fill:url(#radialGradient4243)"/>
				<path id="path4245" d="m485.36 695.66s17.991-17.726 21.19-50.958c1.6503-17.141-15.136-60.544-29.263-51.967-8.7325 5.3019 5.9316 19.887 9.5861 29.767 13.622 36.831-1.5136 73.157-1.5136 73.157z" style="filter:url(#filter4279);fill-rule:evenodd;fill:#ff0000"/>
				<path id="path4287" d="m395.55 603.33c0 3.901-4.676 37.84-8.577 37.84s-5.5498-33.939-5.5498-37.84 3.1624-7.0634 7.0634-7.0634 7.0634 3.1624 7.0634 7.0634z" style="opacity:0.499;fill:url(#linearGradient4321);color-rendering:auto;color:#000000;isolation:auto;mix-blend-mode:normal;solid-color:#000000;shape-rendering:auto;filter:url(#filter4283);image-rendering:auto"/>
				<path id="path4323" style="opacity:0.558;color:#000000;fill:url(#linearGradient4325)" d="m392.14 413.93c30.812 45.204 58.639 90.269 57.169 140.11-1.2043 40.828-7.3532 75.386-33.865 111.08h11.855c21.136-23.058 35.176-63.752 35.176-110.11 0-71.886-36.52-112.34-70.336-141.08z"/>
				<path id="path4333" style="color:#000000;fill:url(#linearGradient4335)" d="m390.33 404.85c-34.344 41.168-64.694 93.296-63.728 148.69 0.71193 40.84 10.38 75.386 36.892 111.08h-11.855c-21.136-23.058-35.68-64.256-35.68-110.62 0-71.886 38.538-119.9 74.372-149.16z"/>
				<circle id="circle4345" r="7.8676" style="color:#000000;fill:#52dcff" cx="399.27" cy="529.19"/>
				<circle id="circle4347" r="3.3268" style="opacity:0.514;color:#000000;fill:#ffffff" cx="406.83" cy="540.28"/>
				<ellipse id="circle4349" style="opacity:.803;color:#000000;fill:#ffffff" rx="7.8676" ry="3.8313" cy="468.66" cx="386.67"/>
				<path id="ellipse4351" d="m406.7 472.98c1.9747 5.2393-8.4614-0.47987-19.522-0.47987-11.06 0-22.229 5.815-20.531 0.47987 1.6707-5.2473 12.923-8.638 20.026-8.638 7.1912 0 17.916 3.0389 20.026 8.638z" style="opacity:0.46;color:#000000;fill:#ffffff"/>
			</g>
		</g>
	</g>
</svg>
