<?xml version="1.0" encoding="UTF-8" standalone="no"?>
<svg
   xmlns:dc="http://purl.org/dc/elements/1.1/"
   xmlns:cc="http://creativecommons.org/ns#"
   xmlns:rdf="http://www.w3.org/1999/02/22-rdf-syntax-ns#"
   xmlns:svg="http://www.w3.org/2000/svg"
   xmlns="http://www.w3.org/2000/svg"
   xmlns:sodipodi="http://sodipodi.sourceforge.net/DTD/sodipodi-0.dtd"
   xmlns:inkscape="http://www.inkscape.org/namespaces/inkscape"
   height="50"
   width="50"
   version="1.1"
   viewBox="0 0 46.875002 46.874998"
   id="svg4880"
   sodipodi:docname="flag-US.svg"
   inkscape:version="0.92.1 unknown">
  <metadata
     id="metadata4886">
    <rdf:RDF>
      <cc:Work
         rdf:about="">
        <dc:format>image/svg+xml</dc:format>
        <dc:type
           rdf:resource="http://purl.org/dc/dcmitype/StillImage" />
      </cc:Work>
    </rdf:RDF>
  </metadata>
  <defs
     id="defs4884" />
  <sodipodi:namedview
     pagecolor="#ffffff"
     bordercolor="#666666"
     borderopacity="1"
     objecttolerance="10"
     gridtolerance="10"
     guidetolerance="10"
     inkscape:pageopacity="0"
     inkscape:pageshadow="2"
     inkscape:window-width="1787"
     inkscape:window-height="1059"
     id="namedview4882"
     showgrid="false"
     inkscape:zoom="18.88"
     inkscape:cx="19.898621"
     inkscape:cy="22.230282"
     inkscape:window-x="133"
     inkscape:window-y="0"
     inkscape:window-maximized="1"
     inkscape:current-layer="layer1" />
  <g
     id="layer1"
     transform="translate(-410.23 -150.17)">
    <path
       id="path5701"
       style="fill:#cdcdbb;fill-rule:evenodd"
       d="m 410.23,195.165 v -19.888 c 15.143,-4.3563 30.841,-6.073 46.875,-6.1942 v 26.083 z"
       inkscape:connector-curvature="0"
       sodipodi:nodetypes="ccccc" />
    <path
       id="path4506"
       d="m439.53 182.82a5.2531 2.4125 0 0 0 -5.253 2.4125 5.2531 2.4125 0 0 0 5.253 2.4125 5.2531 2.4125 0 0 0 0.46576 -0.0114 4.2996 1.7828 0 0 1 -0.0153 0.00017 4.2996 1.7828 0 0 1 -4.2996 -1.7827 4.2996 1.7828 0 0 1 4.2996 -1.7827 4.2996 1.7828 0 0 1 4.2996 1.7827 4.2996 1.7828 0 0 1 -0.32127 0.67368 5.2531 2.4125 0 0 0 0.82442 -1.2923 5.2531 2.4125 0 0 0 -5.2533 -2.4125z"
       style="fill:#b6b698;color-rendering:auto;color:#000000;isolation:auto;mix-blend-mode:normal;shape-rendering:auto;solid-color:#000000;image-rendering:auto" />
    <path
       id="path3448"
       style="color:#000000;isolation:auto;mix-blend-mode:normal;solid-color:#000000;fill:#b6b698;color-rendering:auto;image-rendering:auto;shape-rendering:auto"
       d="m 431.64034,190.34894 c -0.14759,-1.3169 -6.381,-1.6139 -5.2158,0.56363 0.62825,1.1741 2.5412,3.2695 3.8973,3.2531 1.3561,-0.0164 1.4695,-2.4691 1.3185,-3.8168 z"
       inkscape:connector-curvature="0" />
    <path
       id="path3454"
       style="fill:#b6b698;color-rendering:auto;color:#000000;isolation:auto;mix-blend-mode:normal;shape-rendering:auto;solid-color:#000000;image-rendering:auto"
       d="m425.28 184.38c-0.0869-0.77514-3.7559-0.94996-3.0701 0.33176 0.36979 0.69106 1.4958 1.9244 2.294 1.9148 0.79822-0.01 0.86497-1.4533 0.77607-2.2466z" />
    <path
       id="path3460"
       style="fill:#b6b698;color-rendering:auto;color:#000000;isolation:auto;mix-blend-mode:normal;shape-rendering:auto;solid-color:#000000;image-rendering:auto"
       d="m422.19 185.6c-0.0732-0.65279-3.1631-0.80002-2.5855 0.2794 0.31142 0.58198 1.2597 1.6207 1.9319 1.6126 0.67223-0.008 0.72845-1.2239 0.65358-1.892z" />
    <path
       id="path3466"
       style="fill:#b6b698;color-rendering:auto;color:#000000;isolation:auto;mix-blend-mode:normal;shape-rendering:auto;solid-color:#000000;image-rendering:auto"
       d="m416.07 178.1c-0.27699-0.93317-4.8227-0.34199-3.6986 1.0819 0.60608 0.76773 2.2603 2.0356 3.2387 1.8484 0.97847-0.18719 0.74336-1.9754 0.4599-2.9303z" />
    <path
       id="path3472"
       style="fill:#b6b698;color-rendering:auto;color:#000000;isolation:auto;mix-blend-mode:normal;shape-rendering:auto;solid-color:#000000;image-rendering:auto"
       d="m412.83 179.64c-0.15365-0.49278-2.5597-0.14632-1.9533 0.60053 0.32693 0.40268 1.2132 1.0629 1.7307 0.95657 0.51746-0.10635 0.37981-1.0528 0.22258-1.5571z" />
    <path
       id="path3476"
       style="fill:#b6b698;color-rendering:auto;color:#000000;isolation:auto;mix-blend-mode:normal;shape-rendering:auto;solid-color:#000000;image-rendering:auto"
       d="m415.37 180.31a2.4125 5.2531 80.459 0 0 -4.7805 3.2498 2.4125 5.2531 80.459 0 0 5.5802 1.5084 2.4125 5.2531 80.459 0 0 0.45743 -0.0884 1.7828 4.2996 80.459 0 1 -0.015 0.003 1.7828 4.2996 80.459 0 1 -4.5357 -1.0454 1.7828 4.2996 80.459 0 1 3.9447 -2.4707 1.7828 4.2996 80.459 0 1 4.5356 1.0454 1.7828 4.2996 80.459 0 1 -0.20516 0.71761 2.4125 5.2531 80.459 0 0 0.59882 -1.411 2.4125 5.2531 80.459 0 0 -5.5805 -1.5084z" />
    <path
       id="path3450"
       style="color:#000000;isolation:auto;mix-blend-mode:normal;solid-color:#000000;fill:#a1a186;stroke-width:0.113255;color-rendering:auto;image-rendering:auto;shape-rendering:auto"
       d="m 431.51419,190.84599 c -0.64817,1.15538 -4.41861,1.20204 -5.09511,0.063 -0.67656,-1.13896 1.16828,-4.42728 2.49296,-4.44359 1.32469,-0.0164 3.25034,3.22524 2.60215,4.38062 z"
       inkscape:connector-curvature="0" />
    <path
       id="path3456"
       style="fill:#a1a186;color-rendering:auto;color:#000000;isolation:auto;mix-blend-mode:normal;shape-rendering:auto;solid-color:#000000;image-rendering:auto"
       transform="matrix(.066666 0 0 .066662 390.1 137.15)"
       d="m526.61 712.91c-5.7229 10.202-39.013 10.614-44.986 0.55642-5.9735-10.057 10.315-39.093 22.011-39.237 11.696-0.14467 28.698 28.479 22.975 38.681z" />
    <path
       id="path3462"
       transform="matrix(.056144 0 0 .056141 392.56 145.83)"
       style="fill:#a1a186;color-rendering:auto;color:#000000;isolation:auto;mix-blend-mode:normal;shape-rendering:auto;solid-color:#000000;image-rendering:auto"
       d="m526.61 712.91c-5.7229 10.202-39.013 10.614-44.986 0.55642-5.9735-10.057 10.315-39.093 22.011-39.237 11.696-0.14467 28.698 28.479 22.975 38.681z" />
    <path
       id="path3468"
       style="fill:#a1a186;color-rendering:auto;color:#000000;isolation:auto;mix-blend-mode:normal;shape-rendering:auto;solid-color:#000000;image-rendering:auto"
       transform="matrix(.081898 -.014644 .014643 .081894 362.48 127.81)"
       d="m526.61 712.91c-5.7229 10.202-39.013 10.614-44.986 0.55642-5.9735-10.057 10.315-39.093 22.011-39.237 11.696-0.14467 28.698 28.479 22.975 38.681z" />
    <path
       id="path3474"
       style="fill:#a1a186;color-rendering:auto;color:#000000;isolation:auto;mix-blend-mode:normal;shape-rendering:auto;solid-color:#000000;image-rendering:auto"
       transform="matrix(.043319 -.0083593 .0083589 .043317 384.05 153.36)"
       d="m526.61 712.91c-5.7229 10.202-39.013 10.614-44.986 0.55642-5.9735-10.057 10.315-39.093 22.011-39.237 11.696-0.14467 28.698 28.479 22.975 38.681z" />
    <g
       id="g5543"
       transform="matrix(.91522 -.086660 .086660 .91522 -3.5406 54.211)">
      <g
         id="imagebot_1"
         transform="matrix(.056457 0 0 .056457 444.18 150.9)">
        <title
           id="title16844">Layer 1</title>
        <g
           id="imagebot_73"
           transform="matrix(2.9977,0,0,3.8541,0,-1.5022)">
          <g
             id="imagebot_70"
             transform="scale(.52632)"
             label="bg_border">
            <rect
               id="imagebot_71"
               style="stroke:#000000;stroke-dashoffset:0pt;fill:none"
               height="199"
               width="379"
               y="1"
               x="0" />
          </g>
          <g
             id="imagebot_56"
             style="stroke-dashoffset:0pt;fill-rule:evenodd"
             label="stripes"
             transform="scale(.52632)">
            <rect
               id="imagebot_69"
               style="fill:#bf0a30"
               height="16"
               width="379"
               y="184"
               x="0" />
            <rect
               id="imagebot_68"
               style="fill:#ffffff"
               height="16"
               width="379"
               y="168"
               x="0" />
            <rect
               id="imagebot_67"
               style="fill:#bf0a30"
               height="16"
               width="379"
               y="152"
               x="0" />
            <rect
               id="imagebot_66"
               style="fill:#ffffff"
               height="16"
               width="379"
               y="136"
               x="0" />
            <rect
               id="imagebot_65"
               style="fill:#bf0a30"
               height="15"
               width="379"
               y="121"
               x="0" />
            <rect
               id="imagebot_64"
               style="fill:#ffffff"
               height="15"
               width="379"
               y="106"
               x="0" />
            <rect
               id="imagebot_63"
               style="fill:#bf0a30"
               height="15"
               width="379"
               y="91"
               x="0" />
            <rect
               id="imagebot_62"
               style="fill:#ffffff"
               height="15"
               width="379"
               y="76"
               x="0" />
            <rect
               id="imagebot_61"
               style="fill:#bf0a30"
               height="15"
               width="379"
               y="61"
               x="0" />
            <rect
               id="imagebot_60"
               style="fill:#ffffff"
               height="15"
               width="379"
               y="46"
               x="0" />
            <rect
               id="imagebot_59"
               style="fill:#bf0a30"
               height="15"
               width="379"
               y="31"
               x="0" />
            <rect
               id="imagebot_58"
               style="fill:#ffffff"
               height="15"
               width="379"
               y="16"
               x="0" />
            <rect
               id="imagebot_57"
               style="fill:#bf0a30"
               height="15"
               width="379"
               y="1"
               x="0" />
          </g>
          <g
             id="imagebot_54"
             label="field"
             transform="scale(.52632)">
            <rect
               id="imagebot_55"
               style="fill-rule:evenodd;stroke-dashoffset:0pt;fill:#002868"
               height="105"
               width="152"
               y="1"
               x="0" />
          </g>
          <g
             id="imagebot_3"
             style="fill-rule:evenodd;stroke-dashoffset:0pt;fill:#ffffff"
             transform="scale(.52632)"
             label="stars">
            <path
               id="imagebot_53"
               d="m100.33 146.67 4.14-0.78 1.28-4.01 2.01 3.7 4.21-0.03-2.89 3.06 1.32 4-3.8-1.81-3.39 2.49 0.55-4.17z"
               transform="matrix(1.0487 .089951 -.08593 1.0977 -86.263 -76.411)" />
            <path
               id="imagebot_52"
               d="m100.33 146.67 4.14-0.78 1.28-4.01 2.01 3.7 4.21-0.03-2.89 3.06 1.32 4-3.8-1.81-3.39 2.49 0.55-4.17z"
               transform="matrix(1.0487 .089951 -.08593 1.0977 -61.263 -76.411)" />
            <path
               id="imagebot_51"
               d="m100.33 146.67 4.14-0.78 1.28-4.01 2.01 3.7 4.21-0.03-2.89 3.06 1.32 4-3.8-1.81-3.39 2.49 0.55-4.17z"
               transform="matrix(1.0487 .089951 -.08593 1.0977 -35.263 -76.411)" />
            <path
               id="imagebot_50"
               d="m100.33 146.67 4.14-0.78 1.28-4.01 2.01 3.7 4.21-0.03-2.89 3.06 1.32 4-3.8-1.81-3.39 2.49 0.55-4.17z"
               transform="matrix(1.0487 .089951 -.08593 1.0977 -10.263 -76.411)" />
            <path
               id="imagebot_49"
               d="m100.33 146.67 4.14-0.78 1.28-4.01 2.01 3.7 4.21-0.03-2.89 3.06 1.32 4-3.8-1.81-3.39 2.49 0.55-4.17z"
               transform="matrix(1.0487 .089951 -.08593 1.0977 14.737 -76.411)" />
            <path
               id="imagebot_48"
               d="m100.33 146.67 4.14-0.78 1.28-4.01 2.01 3.7 4.21-0.03-2.89 3.06 1.32 4-3.8-1.81-3.39 2.49 0.55-4.17z"
               transform="matrix(1.0487 .089951 -.08593 1.0977 40.737 -76.411)" />
            <path
               id="imagebot_47"
               d="m100.33 146.67 4.14-0.78 1.28-4.01 2.01 3.7 4.21-0.03-2.89 3.06 1.32 4-3.8-1.81-3.39 2.49 0.55-4.17z"
               transform="matrix(1.0487 .089951 -.08593 1.0977 -73.263 -86.411)" />
            <path
               id="imagebot_46"
               d="m100.33 146.67 4.14-0.78 1.28-4.01 2.01 3.7 4.21-0.03-2.89 3.06 1.32 4-3.8-1.81-3.39 2.49 0.55-4.17z"
               transform="matrix(1.0487 .089951 -.08593 1.0977 -86.263 -97.411)" />
            <path
               id="imagebot_45"
               d="m100.33 146.67 4.14-0.78 1.28-4.01 2.01 3.7 4.21-0.03-2.89 3.06 1.32 4-3.8-1.81-3.39 2.49 0.55-4.17z"
               transform="matrix(1.0487 .089951 -.08593 1.0977 -73.263 -107.41)" />
            <path
               id="imagebot_44"
               d="m100.33 146.67 4.14-0.78 1.28-4.01 2.01 3.7 4.21-0.03-2.89 3.06 1.32 4-3.8-1.81-3.39 2.49 0.55-4.17z"
               transform="matrix(1.0487 .089951 -.08593 1.0977 -86.263 -118.41)" />
            <path
               id="imagebot_43"
               d="m100.33 146.67 4.14-0.78 1.28-4.01 2.01 3.7 4.21-0.03-2.89 3.06 1.32 4-3.8-1.81-3.39 2.49 0.55-4.17z"
               transform="matrix(1.0487 .089951 -.08593 1.0977 -73.263 -128.41)" />
            <path
               id="imagebot_42"
               d="m100.33 146.67 4.14-0.78 1.28-4.01 2.01 3.7 4.21-0.03-2.89 3.06 1.32 4-3.8-1.81-3.39 2.49 0.55-4.17z"
               transform="matrix(1.0487 .089951 -.08593 1.0977 -86.263 -139.41)" />
            <path
               id="imagebot_41"
               d="m100.33 146.67 4.14-0.78 1.28-4.01 2.01 3.7 4.21-0.03-2.89 3.06 1.32 4-3.8-1.81-3.39 2.49 0.55-4.17z"
               transform="matrix(1.0487 .089951 -.08593 1.0977 -73.263 -149.41)" />
            <path
               id="imagebot_40"
               d="m100.33 146.67 4.14-0.78 1.28-4.01 2.01 3.7 4.21-0.03-2.89 3.06 1.32 4-3.8-1.81-3.39 2.49 0.55-4.17z"
               transform="matrix(1.0487 .089951 -.08593 1.0977 -86.263 -160.41)" />
            <path
               id="imagebot_39"
               d="m100.33 146.67 4.14-0.78 1.28-4.01 2.01 3.7 4.21-0.03-2.89 3.06 1.32 4-3.8-1.81-3.39 2.49 0.55-4.17z"
               transform="matrix(1.0487 .089951 -.08593 1.0977 -48.263 -86.411)" />
            <path
               id="imagebot_38"
               d="m100.33 146.67 4.14-0.78 1.28-4.01 2.01 3.7 4.21-0.03-2.89 3.06 1.32 4-3.8-1.81-3.39 2.49 0.55-4.17z"
               transform="matrix(1.0487 .089951 -.08593 1.0977 -61.263 -97.411)" />
            <path
               id="imagebot_37"
               d="m100.33 146.67 4.14-0.78 1.28-4.01 2.01 3.7 4.21-0.03-2.89 3.06 1.32 4-3.8-1.81-3.39 2.49 0.55-4.17z"
               transform="matrix(1.0487 .089951 -.08593 1.0977 -48.263 -107.41)" />
            <path
               id="imagebot_36"
               d="m100.33 146.67 4.14-0.78 1.28-4.01 2.01 3.7 4.21-0.03-2.89 3.06 1.32 4-3.8-1.81-3.39 2.49 0.55-4.17z"
               transform="matrix(1.0487 .089951 -.08593 1.0977 -61.263 -118.41)" />
            <path
               id="imagebot_35"
               d="m100.33 146.67 4.14-0.78 1.28-4.01 2.01 3.7 4.21-0.03-2.89 3.06 1.32 4-3.8-1.81-3.39 2.49 0.55-4.17z"
               transform="matrix(1.0487 .089951 -.08593 1.0977 -48.263 -128.41)" />
            <path
               id="imagebot_34"
               d="m100.33 146.67 4.14-0.78 1.28-4.01 2.01 3.7 4.21-0.03-2.89 3.06 1.32 4-3.8-1.81-3.39 2.49 0.55-4.17z"
               transform="matrix(1.0487 .089951 -.08593 1.0977 -61.263 -139.41)" />
            <path
               id="imagebot_33"
               d="m100.33 146.67 4.14-0.78 1.28-4.01 2.01 3.7 4.21-0.03-2.89 3.06 1.32 4-3.8-1.81-3.39 2.49 0.55-4.17z"
               transform="matrix(1.0487 .089951 -.08593 1.0977 -48.263 -149.41)" />
            <path
               id="imagebot_32"
               d="m100.33 146.67 4.14-0.78 1.28-4.01 2.01 3.7 4.21-0.03-2.89 3.06 1.32 4-3.8-1.81-3.39 2.49 0.55-4.17z"
               transform="matrix(1.0487 .089951 -.08593 1.0977 -61.263 -160.41)" />
            <path
               id="imagebot_31"
               d="m100.33 146.67 4.14-0.78 1.28-4.01 2.01 3.7 4.21-0.03-2.89 3.06 1.32 4-3.8-1.81-3.39 2.49 0.55-4.17z"
               transform="matrix(1.0487 .089951 -.08593 1.0977 -23.263 -86.411)" />
            <path
               id="imagebot_30"
               d="m100.33 146.67 4.14-0.78 1.28-4.01 2.01 3.7 4.21-0.03-2.89 3.06 1.32 4-3.8-1.81-3.39 2.49 0.55-4.17z"
               transform="matrix(1.0487 .089951 -.08593 1.0977 -35.263 -97.411)" />
            <path
               id="imagebot_29"
               d="m100.33 146.67 4.14-0.78 1.28-4.01 2.01 3.7 4.21-0.03-2.89 3.06 1.32 4-3.8-1.81-3.39 2.49 0.55-4.17z"
               transform="matrix(1.0487 .089951 -.08593 1.0977 14.737 -97.411)" />
            <path
               id="imagebot_28"
               d="m100.33 146.67 4.14-0.78 1.28-4.01 2.01 3.7 4.21-0.03-2.89 3.06 1.32 4-3.8-1.81-3.39 2.49 0.55-4.17z"
               transform="matrix(1.0487 .089951 -.08593 1.0977 -10.263 -97.411)" />
            <path
               id="imagebot_27"
               d="m100.33 146.67 4.14-0.78 1.28-4.01 2.01 3.7 4.21-0.03-2.89 3.06 1.32 4-3.8-1.81-3.39 2.49 0.55-4.17z"
               transform="matrix(1.0487 .089951 -.08593 1.0977 27.737 -86.411)" />
            <path
               id="imagebot_26"
               d="m100.33 146.67 4.14-0.78 1.28-4.01 2.01 3.7 4.21-0.03-2.89 3.06 1.32 4-3.8-1.81-3.39 2.49 0.55-4.17z"
               transform="matrix(1.0487 .089951 -.08593 1.0977 2.7366 -86.411)" />
            <path
               id="imagebot_25"
               d="m100.33 146.67 4.14-0.78 1.28-4.01 2.01 3.7 4.21-0.03-2.89 3.06 1.32 4-3.8-1.81-3.39 2.49 0.55-4.17z"
               transform="matrix(1.0487 .089951 -.08593 1.0977 -35.263 -160.41)" />
            <path
               id="imagebot_24"
               d="m100.33 146.67 4.14-0.78 1.28-4.01 2.01 3.7 4.21-0.03-2.89 3.06 1.32 4-3.8-1.81-3.39 2.49 0.55-4.17z"
               transform="matrix(1.0487 .089951 -.08593 1.0977 -23.263 -149.41)" />
            <path
               id="imagebot_23"
               d="m100.33 146.67 4.14-0.78 1.28-4.01 2.01 3.7 4.21-0.03-2.89 3.06 1.32 4-3.8-1.81-3.39 2.49 0.55-4.17z"
               transform="matrix(1.0487 .089951 -.08593 1.0977 -35.263 -139.41)" />
            <path
               id="imagebot_22"
               d="m100.33 146.67 4.14-0.78 1.28-4.01 2.01 3.7 4.21-0.03-2.89 3.06 1.32 4-3.8-1.81-3.39 2.49 0.55-4.17z"
               transform="matrix(1.0487 .089951 -.08593 1.0977 -23.263 -128.41)" />
            <path
               id="imagebot_21"
               d="m100.33 146.67 4.14-0.78 1.28-4.01 2.01 3.7 4.21-0.03-2.89 3.06 1.32 4-3.8-1.81-3.39 2.49 0.55-4.17z"
               transform="matrix(1.0487 .089951 -.08593 1.0977 -35.263 -118.41)" />
            <path
               id="imagebot_20"
               d="m100.33 146.67 4.14-0.78 1.28-4.01 2.01 3.7 4.21-0.03-2.89 3.06 1.32 4-3.8-1.81-3.39 2.49 0.55-4.17z"
               transform="matrix(1.0487 .089951 -.08593 1.0977 -23.263 -107.41)" />
            <path
               id="imagebot_19"
               d="m100.33 146.67 4.14-0.78 1.28-4.01 2.01 3.7 4.21-0.03-2.89 3.06 1.32 4-3.8-1.81-3.39 2.49 0.55-4.17z"
               transform="matrix(1.0487 .089951 -.08593 1.0977 40.737 -97.411)" />
            <path
               id="imagebot_18"
               d="m100.33 146.67 4.14-0.78 1.28-4.01 2.01 3.7 4.21-0.03-2.89 3.06 1.32 4-3.8-1.81-3.39 2.49 0.55-4.17z"
               transform="matrix(1.0487 .089951 -.08593 1.0977 -10.263 -118.41)" />
            <path
               id="imagebot_17"
               d="m100.33 146.67 4.14-0.78 1.28-4.01 2.01 3.7 4.21-0.03-2.89 3.06 1.32 4-3.8-1.81-3.39 2.49 0.55-4.17z"
               transform="matrix(1.0487 .089951 -.08593 1.0977 -10.263 -160.41)" />
            <path
               id="imagebot_16"
               d="m100.33 146.67 4.14-0.78 1.28-4.01 2.01 3.7 4.21-0.03-2.89 3.06 1.32 4-3.8-1.81-3.39 2.49 0.55-4.17z"
               transform="matrix(1.0487 .089951 -.08593 1.0977 -10.263 -139.41)" />
            <path
               id="imagebot_15"
               d="m100.33 146.67 4.14-0.78 1.28-4.01 2.01 3.7 4.21-0.03-2.89 3.06 1.32 4-3.8-1.81-3.39 2.49 0.55-4.17z"
               transform="matrix(1.0487 .089951 -.08593 1.0977 27.737 -107.41)" />
            <path
               id="imagebot_14"
               d="m100.33 146.67 4.14-0.78 1.28-4.01 2.01 3.7 4.21-0.03-2.89 3.06 1.32 4-3.8-1.81-3.39 2.49 0.55-4.17z"
               transform="matrix(1.0487 .089951 -.08593 1.0977 2.7366 -107.41)" />
            <path
               id="imagebot_13"
               d="m100.33 146.67 4.14-0.78 1.28-4.01 2.01 3.7 4.21-0.03-2.89 3.06 1.32 4-3.8-1.81-3.39 2.49 0.55-4.17z"
               transform="matrix(1.0487 .089951 -.08593 1.0977 2.7366 -149.41)" />
            <path
               id="imagebot_12"
               d="m100.33 146.67 4.14-0.78 1.28-4.01 2.01 3.7 4.21-0.03-2.89 3.06 1.32 4-3.8-1.81-3.39 2.49 0.55-4.17z"
               transform="matrix(1.0487 .089951 -.08593 1.0977 2.7366 -128.41)" />
            <path
               id="imagebot_11"
               d="m100.33 146.67 4.14-0.78 1.28-4.01 2.01 3.7 4.21-0.03-2.89 3.06 1.32 4-3.8-1.81-3.39 2.49 0.55-4.17z"
               transform="matrix(1.0487 .089951 -.08593 1.0977 40.737 -118.41)" />
            <path
               id="imagebot_10"
               d="m100.33 146.67 4.14-0.78 1.28-4.01 2.01 3.7 4.21-0.03-2.89 3.06 1.32 4-3.8-1.81-3.39 2.49 0.55-4.17z"
               transform="matrix(1.0487 .089951 -.08593 1.0977 14.737 -118.41)" />
            <path
               id="imagebot_9"
               d="m100.33 146.67 4.14-0.78 1.28-4.01 2.01 3.7 4.21-0.03-2.89 3.06 1.32 4-3.8-1.81-3.39 2.49 0.55-4.17z"
               transform="matrix(1.0487 .089951 -.08593 1.0977 14.737 -160.41)" />
            <path
               id="imagebot_8"
               d="m100.33 146.67 4.14-0.78 1.28-4.01 2.01 3.7 4.21-0.03-2.89 3.06 1.32 4-3.8-1.81-3.39 2.49 0.55-4.17z"
               transform="matrix(1.0487 .089951 -.08593 1.0977 14.737 -139.41)" />
            <path
               id="imagebot_7"
               d="m100.33 146.67 4.14-0.78 1.28-4.01 2.01 3.7 4.21-0.03-2.89 3.06 1.32 4-3.8-1.81-3.39 2.49 0.55-4.17z"
               transform="matrix(1.0487 .089951 -.08593 1.0977 40.737 -160.41)" />
            <path
               id="imagebot_6"
               d="m100.33 146.67 4.14-0.78 1.28-4.01 2.01 3.7 4.21-0.03-2.89 3.06 1.32 4-3.8-1.81-3.39 2.49 0.55-4.17z"
               transform="matrix(1.0487 .089951 -.08593 1.0977 27.737 -149.41)" />
            <path
               id="imagebot_5"
               d="m100.33 146.67 4.14-0.78 1.28-4.01 2.01 3.7 4.21-0.03-2.89 3.06 1.32 4-3.8-1.81-3.39 2.49 0.55-4.17z"
               transform="matrix(1.0487 .089951 -.08593 1.0977 40.737 -139.41)" />
            <path
               id="imagebot_4"
               d="m100.33 146.67 4.14-0.78 1.28-4.01 2.01 3.7 4.21-0.03-2.89 3.06 1.32 4-3.8-1.81-3.39 2.49 0.55-4.17z"
               transform="matrix(1.0487 .089951 -.08593 1.0977 27.737 -128.41)" />
          </g>
        </g>
      </g>
      <path
         id="path4527"
         style="fill-rule:evenodd;fill:#9c7155"
         d="m444.37 195.06-0.18812-44.135h-0.87486l-0.65616 44.072z" />
    </g>
  </g>
</svg>
