<?xml version="1.0" encoding="UTF-8" standalone="no"?>
<svg
   xmlns:dc="http://purl.org/dc/elements/1.1/"
   xmlns:cc="http://creativecommons.org/ns#"
   xmlns:rdf="http://www.w3.org/1999/02/22-rdf-syntax-ns#"
   xmlns:svg="http://www.w3.org/2000/svg"
   xmlns="http://www.w3.org/2000/svg"
   xmlns:sodipodi="http://sodipodi.sourceforge.net/DTD/sodipodi-0.dtd"
   xmlns:inkscape="http://www.inkscape.org/namespaces/inkscape"
   height="50"
   width="50"
   version="1.1"
   viewBox="0 0 46.875002 46.874998"
   id="svg4649"
   sodipodi:docname="flag-FR.svg"
   inkscape:version="0.92.1 unknown">
  <metadata
     id="metadata4655">
    <rdf:RDF>
      <cc:Work
         rdf:about="">
        <dc:format>image/svg+xml</dc:format>
        <dc:type
           rdf:resource="http://purl.org/dc/dcmitype/StillImage" />
      </cc:Work>
    </rdf:RDF>
  </metadata>
  <defs
     id="defs4653" />
  <sodipodi:namedview
     pagecolor="#ffffff"
     bordercolor="#666666"
     borderopacity="1"
     objecttolerance="10"
     gridtolerance="10"
     guidetolerance="10"
     inkscape:pageopacity="0"
     inkscape:pageshadow="2"
     inkscape:window-width="1787"
     inkscape:window-height="1059"
     id="namedview4651"
     showgrid="false"
     inkscape:zoom="17.22"
     inkscape:cx="25"
     inkscape:cy="23.686172"
     inkscape:window-x="133"
     inkscape:window-y="0"
     inkscape:window-maximized="1"
     inkscape:current-layer="layer1" />
  <g
     id="layer1"
     transform="translate(-410.23 -150.17)">
    <path
       id="path5701"
       style="fill:#cdcdbb;fill-rule:evenodd"
       d="m 457.1,195.165 v -19.888 c -15.143,-4.3563 -30.841,-6.073 -46.875,-6.1942 v 26.083 z"
       inkscape:connector-curvature="0"
       sodipodi:nodetypes="ccccc" />
    <path
       id="path4496"
       style="fill:#b6b698;color-rendering:auto;color:#000000;isolation:auto;mix-blend-mode:normal;shape-rendering:auto;solid-color:#000000;image-rendering:auto"
       d="m447.26 182.15c-0.14759-1.3169-6.381-1.6139-5.2158 0.56363 0.62825 1.1741 2.5412 3.2695 3.8973 3.2531s1.4695-2.4691 1.3185-3.8168z" />
    <path
       id="path4487"
       style="fill:#b6b698;color-rendering:auto;color:#000000;isolation:auto;mix-blend-mode:normal;shape-rendering:auto;solid-color:#000000;image-rendering:auto"
       d="m442.32 183.16c-0.18214-1.6252-7.875-1.9918-6.437 0.69559 0.77533 1.4489 3.1362 4.035 4.8098 4.0147 1.6736-0.0202 1.8136-3.0471 1.6272-4.7103z" />
    <path
       id="path4513"
       style="color:#000000;isolation:auto;mix-blend-mode:normal;solid-color:#000000;fill:#b6b698;color-rendering:auto;image-rendering:auto;shape-rendering:auto"
       d="m 431.51477,185.54005 a 7.9295,4.5029 6.2975 0 0 -8.3755,3.6059 7.9295,4.5029 6.2975 0 0 7.3875,5.3455 7.9295,4.5029 6.2975 0 0 0.70114,0.056 6.4902,3.3276 6.2976 0 1 -0.0229,-0.002 6.4902,3.3276 6.2976 0 1 -6.086,-4.0193 6.4902,3.3276 6.2976 0 1 6.8161,-2.5954 6.4902,3.3276 6.2976 0 1 6.086,4.0193 6.4902,3.3276 6.2976 0 1 -0.61998,1.1967 7.9295,4.5029 6.2975 0 0 1.5016,-2.261 7.9295,4.5029 6.2975 0 0 -7.3878,-5.3456 z"
       inkscape:connector-curvature="0" />
    <path
       id="path4502"
       style="fill:#b6b698;color-rendering:auto;color:#000000;isolation:auto;mix-blend-mode:normal;shape-rendering:auto;solid-color:#000000;image-rendering:auto"
       d="m449.61 186.64c-0.11038-0.98488-4.7722-1.207-3.9008 0.42152 0.46984 0.87805 1.9005 2.4452 2.9147 2.4329s1.099-1.8466 0.98605-2.8544z" />
    <path
       id="path4511"
       style="fill:#b6b698;color-rendering:auto;color:#000000;isolation:auto;mix-blend-mode:normal;shape-rendering:auto;solid-color:#000000;image-rendering:auto"
       d="m426.88 176.21a13.875 3.0278 4.3214 0 0 -14.261 1.9141 13.875 3.0278 4.3214 0 0 13.401 4.0931 13.875 3.0278 4.3214 0 0 1.2283 0.0824 11.357 2.2375 4.3565 0 1 -0.0402 -0.003 11.357 2.2375 4.3565 0 1 -11.003 -3.1113 11.357 2.2375 4.3565 0 1 11.639 -1.3278 11.357 2.2375 4.3565 0 1 11.003 3.1113 11.357 2.2375 4.3565 0 1 -0.966 0.77213 13.875 3.0278 4.3214 0 0 2.401 -1.4379 13.875 3.0278 4.3214 0 0 -13.402 -4.0931z" />
    <path
       id="path4498"
       style="fill:#a1a186;color-rendering:auto;color:#000000;isolation:auto;mix-blend-mode:normal;shape-rendering:auto;solid-color:#000000;image-rendering:auto"
       transform="matrix(.11326 0 0 .11325 387.49 101.92)"
       d="m526.61 712.91c-5.7229 10.202-39.013 10.614-44.986 0.55642-5.9735-10.057 10.315-39.093 22.011-39.237 11.696-0.14467 28.698 28.479 22.975 38.681z" />
    <path
       id="path4481"
       transform="matrix(.13978 0 0 .13977 368.56 84.135)"
       style="fill:#a1a186;color-rendering:auto;color:#000000;isolation:auto;mix-blend-mode:normal;shape-rendering:auto;solid-color:#000000;image-rendering:auto"
       d="m526.61 712.91c-5.7229 10.202-39.013 10.614-44.986 0.55642-5.9735-10.057 10.315-39.093 22.011-39.237 11.696-0.14467 28.698 28.479 22.975 38.681z" />
    <path
       id="path4504"
       transform="matrix(.084704 0 0 0.0847 404.91 126.63)"
       style="fill:#a1a186;color-rendering:auto;color:#000000;isolation:auto;mix-blend-mode:normal;shape-rendering:auto;solid-color:#000000;image-rendering:auto"
       d="m526.61 712.91c-5.7229 10.202-39.013 10.614-44.986 0.55642-5.9735-10.057 10.315-39.093 22.011-39.237 11.696-0.14467 28.698 28.479 22.975 38.681z" />
    <g
       id="g5691"
       transform="rotate(5.4832 428.02 -94.975)">
      <g
         id="g17485"
         transform="matrix(.083466 0 0 .083466 444.17 150.75)">
        <rect
           id="rect16140"
           style="fill:#002394"
           height="271.19"
           width="136.95"
           y="0"
           x="0" />
        <rect
           id="rect16142"
           style="fill:#f8f8f8"
           height="271.19"
           width="136.95"
           y="0"
           x="135.59" />
        <rect
           id="rect16144"
           style="fill:#ee2838"
           height="271.19"
           width="135.59"
           y="0"
           x="271.19" />
      </g>
      <path
         id="path4527"
         style="fill-rule:evenodd;fill:#9c7155"
         d="m444.36 194.59-0.18684-43.835h-0.86892l-0.65169 43.772z" />
    </g>
  </g>
</svg>
