<?xml version="1.0" encoding="UTF-8" standalone="no"?>
<!-- Created with Inkscape (http://www.inkscape.org/) -->

<svg
   xmlns:dc="http://purl.org/dc/elements/1.1/"
   xmlns:cc="http://creativecommons.org/ns#"
   xmlns:rdf="http://www.w3.org/1999/02/22-rdf-syntax-ns#"
   xmlns:svg="http://www.w3.org/2000/svg"
   xmlns="http://www.w3.org/2000/svg"
   xmlns:sodipodi="http://sodipodi.sourceforge.net/DTD/sodipodi-0.dtd"
   xmlns:inkscape="http://www.inkscape.org/namespaces/inkscape"
   width="28.222221mm"
   height="28.222221mm"
   viewBox="0 0 99.999997 99.999997"
   id="svg7283"
   version="1.1"
   inkscape:version="0.92.1 unknown"
   sodipodi:docname="googleplus.svg">
  <defs
     id="defs7285" />
  <sodipodi:namedview
     id="base"
     pagecolor="#ffffff"
     bordercolor="#666666"
     borderopacity="1.0"
     inkscape:pageopacity="0.0"
     inkscape:pageshadow="2"
     inkscape:zoom="7.9195959"
     inkscape:cx="49.465565"
     inkscape:cy="68.439932"
     inkscape:document-units="px"
     inkscape:current-layer="layer1"
     showgrid="false"
     fit-margin-top="0"
     fit-margin-left="0"
     fit-margin-right="0"
     fit-margin-bottom="0"
     inkscape:window-width="1787"
     inkscape:window-height="1059"
     inkscape:window-x="133"
     inkscape:window-y="0"
     inkscape:window-maximized="1" />
  <metadata
     id="metadata7288">
    <rdf:RDF>
      <cc:Work
         rdf:about="">
        <dc:format>image/svg+xml</dc:format>
        <dc:type
           rdf:resource="http://purl.org/dc/dcmitype/StillImage" />
        <dc:title />
      </cc:Work>
    </rdf:RDF>
  </metadata>
  <g
     inkscape:label="Layer 1"
     inkscape:groupmode="layer"
     id="layer1"
     transform="translate(-283.57144,-630.21928)">
    <g
       id="g4495">
      <path
         inkscape:connector-curvature="0"
         id="path4491"
         d="m 283.96904,646.45114 0.16741,71.17048 46.68666,12.03264 11.2793,-0.14648 41.11308,-51.25612 0.11838,-27.28595 -14.44203,-17.78619 -82.00584,2.57471 z"
         style="fill:#ffffff;fill-rule:evenodd;stroke:none;stroke-width:0.9375px;stroke-linecap:butt;stroke-linejoin:miter;stroke-opacity:1;fill-opacity:1" />
      <path
         inkscape:connector-curvature="0"
         id="path4560"
         d="m 290.77135,729.80637 c -2.45574,-0.28637 -4.72614,-1.25958 -5.76217,-2.46996 -0.32435,-0.37892 -0.74645,-1.10783 -0.93801,-1.61982 -0.34639,-0.92582 -0.34804,-1.1706 -0.30348,-45.07094 l 0.0449,-44.14007 0.3901,-1.0358 c 0.81211,-2.15635 2.43607,-3.63646 4.96153,-4.52206 l 1.38106,-0.4843 42.81301,-0.0482 c 30.62259,-0.0345 43.14003,0.006 43.96148,0.14224 2.33108,0.38672 4.3505,1.84818 5.17558,3.74559 0.74994,1.72461 0.82784,2.88371 0.83421,12.41266 0.005,8.0526 -0.0228,9.01266 -0.26704,9.1064 -0.15018,0.0577 -4.07054,0.1048 -8.71189,0.1048 -8.16656,0 -8.4446,-0.0108 -8.61755,-0.33391 -0.11647,-0.21765 -0.17871,-3.39712 -0.17871,-9.13109 0,-7.86262 -0.0289,-8.80832 -0.27306,-8.90196 -0.35608,-0.13664 -6.86628,-0.13664 -7.22235,0 -0.24413,0.0937 -0.27307,1.05051 -0.27307,9.02871 0,6.71066 -0.0514,8.97531 -0.20717,9.13108 -0.15577,0.15579 -2.42043,0.20717 -9.13109,0.20717 -7.97819,0 -8.93502,0.0289 -9.0287,0.27306 -0.17127,0.44633 -0.11368,6.86877 0.0641,7.15016 0.14087,0.22295 1.41849,0.27094 9.19007,0.34527 l 9.02645,0.0863 0.0863,9.14955 0.0863,9.14955 h 3.79793 3.79793 l 0.0902,-9.14955 c 0.0496,-5.03226 0.10784,-9.16969 0.12948,-9.19429 0.0216,-0.0246 3.98185,-0.0246 8.80047,0 l 8.76113,0.0448 v 30.81915 30.81915 l -0.60422,1.20429 c -0.96031,1.91406 -2.49272,2.82088 -5.37836,3.1827 -1.69653,0.21273 -84.67082,0.21222 -86.49522,-5.2e-4 z m 48.9855,-1.11498 c 0.7602,-1.8194 1.15213,-6.31819 0.77507,-8.89685 -0.43438,-2.97072 -1.7068,-5.96657 -3.76225,-8.85795 -2.06993,-2.91178 -7.21313,-7.66647 -13.9421,-12.88898 -3.42362,-2.65714 -4.46574,-3.70079 -5.15934,-5.16683 -0.47613,-1.00642 -0.53594,-1.30669 -0.5367,-2.69525 -8.6e-4,-1.45396 0.0434,-1.65208 0.63527,-2.84845 0.81028,-1.63777 2.37878,-3.38278 5.04982,-5.61811 2.56141,-2.14357 5.26429,-4.94003 6.3536,-6.57357 1.75167,-2.62686 2.99174,-5.84818 3.42092,-8.88653 0.2909,-2.05949 0.25436,-5.97235 -0.0733,-7.8523 -0.81401,-4.67001 -2.81252,-8.5221 -6.33607,-12.21261 -0.95747,-1.00286 -1.69142,-1.90334 -1.631,-2.00109 0.0704,-0.11393 1.60005,-0.17775 4.26035,-0.17775 h 4.1505 l 3.78603,-3.04745 c 2.08231,-1.6761 3.75763,-3.1327 3.72291,-3.23687 -0.0878,-0.26334 -27.0883,-0.35595 -31.9715,-0.10967 -7.12899,0.35955 -11.82485,1.46455 -16.77027,3.94628 -2.22961,1.11887 -5.11641,3.05176 -6.44262,4.31376 l -1.04207,0.9916 v 17.45122 c 0,20.06734 -0.24496,17.67112 1.96241,19.19708 2.53875,1.75504 5.92952,3.21047 9.17241,3.93712 1.07417,0.2407 2.24425,0.31606 5.26533,0.33915 2.13633,0.0164 3.94136,0.038 4.01118,0.0482 0.0698,0.01 -0.0369,0.4263 -0.23712,0.92479 -0.68022,1.69329 -0.89794,2.77882 -0.9089,4.53162 -0.006,0.94947 0.0936,2.15359 0.2212,2.67581 0.36059,1.47563 1.58743,3.91417 2.76162,5.48912 0.58729,0.78774 1.02937,1.49442 0.98241,1.57041 -0.0469,0.0761 -1.8555,0.19165 -4.01896,0.25702 -4.60355,0.13909 -7.15552,0.34865 -9.87186,0.81067 -3.13356,0.53298 -6.44115,1.75868 -8.43341,3.12517 l -0.73368,0.50324 v 4.07238 4.07238 l 1.42422,-1.36481 c 3.10442,-2.97487 7.02924,-4.88161 12.36896,-6.00903 4.04813,-0.85471 10.94224,-1.4883 13.36787,-1.22853 1.12914,0.12093 1.15092,0.13366 6.01889,3.51941 2.68711,1.86893 5.54599,3.90121 6.35304,4.51618 4.96016,3.77959 7.19436,6.79299 7.63206,10.29386 0.16222,1.29758 0.14912,1.67678 -0.0853,2.47106 -0.15236,0.51604 -0.23788,1.00157 -0.19005,1.07895 0.0478,0.0774 1.91193,0.14071 4.14246,0.14071 h 4.0555 z m -33.98912,-46.7066 c -2.58324,-0.30024 -5.22918,-1.44534 -7.41059,-3.20711 -5.43917,-4.39279 -8.96454,-14.33102 -8.25145,-23.26131 0.43418,-5.43744 1.9975,-8.42751 5.6593,-10.82424 4.52901,-2.96435 9.98135,-2.93517 14.5133,0.0776 1.51149,1.00485 3.84901,3.44709 5.10282,5.33147 3.27167,4.91702 5.63381,12.74437 5.63381,18.66863 0,3.42267 -1.56814,7.27741 -4.01698,9.87437 -1.85809,1.9705 -4.17796,2.99591 -7.56393,3.34338 -1.91136,0.19614 -1.95472,0.19611 -3.66628,-0.002 z"
         style="fill:#dc4b38;stroke-width:0.17263313" />
    </g>
  </g>
</svg>
