<?xml version="1.0" encoding="UTF-8" standalone="no"?>
<!-- Created with Inkscape (http://www.inkscape.org/) -->

<svg
   xmlns:dc="http://purl.org/dc/elements/1.1/"
   xmlns:cc="http://creativecommons.org/ns#"
   xmlns:rdf="http://www.w3.org/1999/02/22-rdf-syntax-ns#"
   xmlns:svg="http://www.w3.org/2000/svg"
   xmlns="http://www.w3.org/2000/svg"
   xmlns:xlink="http://www.w3.org/1999/xlink"
   xmlns:sodipodi="http://sodipodi.sourceforge.net/DTD/sodipodi-0.dtd"
   xmlns:inkscape="http://www.inkscape.org/namespaces/inkscape"
   width="28.222221mm"
   height="28.222221mm"
   viewBox="0 0 99.999997 99.999997"
   id="svg7283"
   version="1.1"
   inkscape:version="0.91 r13725"
   sodipodi:docname="instagram.svg">
  <defs
     id="defs7285">
    <linearGradient
       inkscape:collect="always"
       id="linearGradient4211">
      <stop
         style="stop-color:#ffdf86;stop-opacity:1"
         offset="0"
         id="stop4213" />
      <stop
         id="stop4221"
         offset="0.26886383"
         style="stop-color:#f57133;stop-opacity:1" />
      <stop
         id="stop4219"
         offset="0.71890748"
         style="stop-color:#de2c71;stop-opacity:1" />
      <stop
         style="stop-color:#4768d6;stop-opacity:1"
         offset="1"
         id="stop4215" />
    </linearGradient>
    <radialGradient
       inkscape:collect="always"
       xlink:href="#linearGradient4211"
       id="radialGradient4217"
       cx="312.94928"
       cy="710.09479"
       fx="312.94928"
       fy="710.09479"
       r="52.866353"
       gradientTransform="matrix(2.3330438,-0.63048266,0.48641333,1.7999282,-762.57469,-370.72697)"
       gradientUnits="userSpaceOnUse" />
  </defs>
  <sodipodi:namedview
     id="base"
     pagecolor="#ffffff"
     bordercolor="#666666"
     borderopacity="1.0"
     inkscape:pageopacity="0.0"
     inkscape:pageshadow="2"
     inkscape:zoom="5.6"
     inkscape:cx="72.284404"
     inkscape:cy="66.869233"
     inkscape:document-units="px"
     inkscape:current-layer="layer1"
     showgrid="false"
     fit-margin-top="0"
     fit-margin-left="0"
     fit-margin-right="0"
     fit-margin-bottom="0"
     inkscape:window-width="1787"
     inkscape:window-height="1059"
     inkscape:window-x="133"
     inkscape:window-y="0"
     inkscape:window-maximized="1" />
  <metadata
     id="metadata7288">
    <rdf:RDF>
      <cc:Work
         rdf:about="">
        <dc:format>image/svg+xml</dc:format>
        <dc:type
           rdf:resource="http://purl.org/dc/dcmitype/StillImage" />
        <dc:title></dc:title>
      </cc:Work>
    </rdf:RDF>
  </metadata>
  <g
     inkscape:label="Layer 1"
     inkscape:groupmode="layer"
     id="layer1"
     transform="translate(-283.57144,-630.21928)">
    <g
       id="g4225"
       transform="matrix(0.94258161,0,0,0.94258161,16.352166,59.480431)">
      <path
         id="path4174-3"
         d="m 308.34425,711.27512 c -11.36171,-1.28141 -20.80481,-9.43584 -23.62189,-20.39827 -0.92903,-3.61525 -0.90076,-2.60083 -0.90076,-32.3086 0,-29.38243 -0.021,-28.56416 0.82444,-32.00567 2.41038,-9.81086 10.21629,-17.61677 20.02716,-20.02716 3.4415,-0.84552 2.62323,-0.82443 32.00566,-0.82443 23.83322,0 27.21045,0.0274 28.8103,0.23373 12.75428,1.645 22.49836,11.61886 23.903,24.4667 0.21607,1.97641 0.21607,54.34916 0,56.32559 -0.36029,3.29539 -1.22092,6.30612 -2.63236,9.20855 -4.17664,8.58873 -12.31857,14.28714 -21.91219,15.33598 -1.73168,0.18931 -54.82127,0.18329 -56.50336,-0.005 z"
         style="fill:url(#radialGradient4217);fill-opacity:1"
         inkscape:connector-curvature="0" />
      <path
         id="path4174"
         transform="translate(283.57144,630.21928)"
         d="m 53.109375,-8.0800781 c -20.24965,0 -19.684841,-0.014351 -22.056641,0.5683593 -6.76141,1.6611801 -12.141554,7.04132443 -13.802734,13.8027344 -0.58268,2.3718 -0.568359,1.8069907 -0.568359,22.0566404 0,20.47387 -0.01918,19.776038 0.621093,22.267578 1.94146,7.55504 8.449087,13.173521 16.279297,14.056641 l 0,0.002 c 1.15925,0.13032 37.747977,0.134376 38.941407,0.0039 6.61169,-0.72284 12.223132,-4.651172 15.101562,-10.570312 0.97273,-2.00029 1.566153,-4.074603 1.814453,-6.345703 0.14891,-1.3621 0.14891,-37.45626 0,-38.8183596 -0.96804,-8.85441003 -7.684669,-15.7276381 -16.474609,-16.8613282 -1.10258,-0.1421899 -3.430199,-0.1621093 -19.855469,-0.1621093 z m 0.06445,6.2753906 c 18.11447,0 18.896356,0.00662 19.847656,0.1914063 5.12428,0.99542995 8.996794,4.8400212 10.121094,10.0507812 0.16996,0.78768 0.179688,1.981404 0.179688,19.964844 l 0,19.126953 -0.216797,0.960937 c -1.19422,5.28275 -5.346509,9.195081 -10.574219,9.962891 -0.9473,0.13878 -3.270309,0.156878 -19.480469,0.142578 -10.12299,-0.0089 -18.564955,-0.03263 -18.759765,-0.05273 -1.46653,-0.15171 -3.18398,-0.685555 -4.59375,-1.427735 -3.42603,-1.80362 -5.803628,-5.019298 -6.548828,-8.855468 -0.184371,-0.95129 -0.191407,-1.733187 -0.191407,-19.847657 0,-20.7069896 -0.02997,-19.6268459 0.609375,-21.5351559 1.2803,-3.82143 4.251799,-6.79358872 8.074219,-8.0742187 1.90649,-0.6387 0.828033,-0.6074219 21.533203,-0.6074219 z"
         style="fill:#ffffff;fill-opacity:1"
         inkscape:connector-curvature="0" />
      <path
         id="path4170"
         transform="translate(283.57144,630.21928)"
         d="m 53.597656,10.277344 c -2.032338,-0.0495 -4.08943,0.242532 -6.095703,0.886718 -1.32701,0.42609 -3.706869,1.631062 -4.912109,2.488282 -1.17598,0.83642 -3.286612,2.927592 -4.076172,4.039062 -3.45632,4.86546 -4.385553,10.679894 -2.601563,16.277344 0.94713,2.9717 3.014809,6.096863 5.355469,8.095703 2.79721,2.38873 5.909645,3.771694 9.771484,4.339844 0.16697,0.0245 1.283779,0.02912 2.480469,0.01172 1.75856,-0.02556 2.36956,-0.07212 3.1875,-0.248047 2.21873,-0.47724 4.465089,-1.403985 6.324219,-2.609375 4.03045,-2.61318 6.854806,-6.777863 7.910156,-11.664063 0.20107,-0.93078 0.231375,-1.358236 0.234375,-3.441406 0.0032,-2.07815 -0.02684,-2.519116 -0.226562,-3.503906 -0.97726,-4.81883 -3.709811,-8.908977 -7.769531,-11.628907 -2.880294,-1.929737 -6.194802,-2.960466 -9.582032,-3.042968 z m -0.849609,5.550781 c 0.875007,-0.0194 1.770413,0.01901 2.392578,0.123047 5.46195,0.91331 9.657204,5.164325 10.464844,10.603516 0.26472,1.7828 0.175185,3.306578 -0.302735,5.136718 -0.32084,1.22861 -1.270267,3.17583 -2.060546,4.22461 -0.74783,0.99245 -2.087571,2.274993 -3.03125,2.902343 -1.626711,1.08144 -3.678872,1.845485 -5.576172,2.078125 -5.1649,0.63332 -10.274764,-2.08607 -12.683594,-6.75 -1.02859,-1.99155 -1.448716,-3.945038 -1.353516,-6.292968 0.08052,-1.98559 0.405248,-3.299242 1.236328,-4.988282 1.70055,-3.45611 4.769458,-5.871947 8.648438,-6.810546 0.536055,-0.12971 1.390617,-0.207167 2.265625,-0.226563 z"
         style="fill:#ffffff;fill-opacity:1"
         inkscape:connector-curvature="0" />
      <path
         id="path4155"
         d="m 355.55078,642.40316 c -1.16728,-0.4166 -2.06057,-1.24589 -2.59212,-2.40642 -0.19196,-0.41909 -0.2299,-0.67613 -0.23116,-1.56611 -0.002,-1.00904 0.0166,-1.1015 0.34455,-1.76769 0.4428,-0.89946 1.13744,-1.59336 2.00777,-2.00564 0.63239,-0.29957 0.75971,-0.32315 1.74477,-0.32315 0.98307,0 1.11319,0.024 1.73858,0.32025 0.94085,0.44574 1.52686,1.01946 1.98207,1.94052 0.36463,0.73778 0.37795,0.80257 0.37795,1.83784 0,1.03717 -0.0128,1.09895 -0.38176,1.84554 -0.45193,0.91442 -1.03608,1.48046 -1.99644,1.93456 -0.84658,0.40031 -2.1701,0.48443 -2.99421,0.1903 z"
         style="fill:#ffffff;fill-opacity:1"
         inkscape:connector-curvature="0" />
    </g>
  </g>
</svg>
