<?xml version="1.0" encoding="UTF-8" standalone="no"?>
<!-- Created with Inkscape (http://www.inkscape.org/) -->

<svg
   xmlns:dc="http://purl.org/dc/elements/1.1/"
   xmlns:cc="http://creativecommons.org/ns#"
   xmlns:rdf="http://www.w3.org/1999/02/22-rdf-syntax-ns#"
   xmlns:svg="http://www.w3.org/2000/svg"
   xmlns="http://www.w3.org/2000/svg"
   xmlns:sodipodi="http://sodipodi.sourceforge.net/DTD/sodipodi-0.dtd"
   xmlns:inkscape="http://www.inkscape.org/namespaces/inkscape"
   width="28.222221mm"
   height="28.222221mm"
   viewBox="0 0 99.999997 99.999997"
   id="svg7283"
   version="1.1"
   inkscape:version="0.91 r13725"
   sodipodi:docname="mail.svg">
  <defs
     id="defs7285" />
  <sodipodi:namedview
     id="base"
     pagecolor="#ffffff"
     bordercolor="#666666"
     borderopacity="1.0"
     inkscape:pageopacity="0.0"
     inkscape:pageshadow="2"
     inkscape:zoom="5.6"
     inkscape:cx="33.725668"
     inkscape:cy="44.308126"
     inkscape:document-units="px"
     inkscape:current-layer="layer1"
     showgrid="false"
     fit-margin-top="0"
     fit-margin-left="0"
     fit-margin-right="0"
     fit-margin-bottom="0"
     inkscape:window-width="1787"
     inkscape:window-height="1059"
     inkscape:window-x="133"
     inkscape:window-y="0"
     inkscape:window-maximized="1" />
  <metadata
     id="metadata7288">
    <rdf:RDF>
      <cc:Work
         rdf:about="">
        <dc:format>image/svg+xml</dc:format>
        <dc:type
           rdf:resource="http://purl.org/dc/dcmitype/StillImage" />
        <dc:title></dc:title>
      </cc:Work>
    </rdf:RDF>
  </metadata>
  <g
     inkscape:label="Layer 1"
     inkscape:groupmode="layer"
     id="layer1"
     transform="translate(-283.57144,-630.21928)">
    <g
       id="g4431"
       transform="matrix(0.49468168,0,0,0.49468168,186.70197,109.89331)">
      <path
         inkscape:connector-curvature="0"
         id="path4292"
         d="m 196.12741,1228.1411 c -0.62546,-1.1687 -0.64003,-99.9941 -0.0149,-101.1621 0.46814,-0.8747 7.60663,-5.0985 9.10386,-5.3866 0.85049,-0.1637 0.87887,-0.6413 0.99183,-16.6852 l 0.11629,-16.5166 30.5751,0 c 29.73957,0 30.59153,-0.024 31.17681,-0.8591 0.68419,-0.9768 27.45711,-15.5526 28.56714,-15.5526 1.16979,0 28.09673,14.6884 28.57904,15.5896 0.42154,0.7876 1.66381,0.8221 29.64516,0.8221 24.82429,0 29.44164,0.099 30.78149,0.6586 0.86696,0.3622 1.73965,0.9111 1.9393,1.2198 0.19965,0.3086 0.4628,7.4463 0.58478,15.8615 l 0.22178,15.3003 3.66339,2.0443 c 2.01486,1.1244 4.06078,2.4039 4.54649,2.8435 0.87194,0.7891 0.8831,1.4394 0.8831,51.4706 0,45.7965 -0.0675,50.6973 -0.70162,50.9407 -0.38589,0.148 -45.58872,0.2692 -100.45074,0.2692 -98.16507,0 -99.75641,-0.014 -100.20829,-0.858 z"
         style="fill:#e5e6e7" />
      <path
         inkscape:connector-curvature="0"
         id="path4310"
         d="m 386.0206,1092.2701 c -0.20116,-0.2011 -0.48855,8.6579 -0.63849,19.6865 -0.21156,15.5603 -0.40101,20.1748 -0.84727,20.6021 -1.43946,1.3785 -74.13964,33.455 -75.82451,33.455 -0.6046,0 -1.13928,-0.6051 -1.74652,-1.9778 -0.48114,-1.0877 -1.05876,-2.0917 -1.28389,-2.2308 -0.22515,-0.1392 -1.66621,0.1468 -3.20282,0.635 -11.67699,3.7095 -23.82105,0.9123 -29.49328,-6.7929 -2.93587,-3.9881 -3.90627,-7.6377 -3.90627,-14.6946 0,-5.177 0.1322,-6.1716 1.29776,-9.728 2.43811,-7.4394 7.08525,-12.9212 13.78328,-16.2601 10.68869,-5.3283 23.80837,-3.0667 29.18313,5.0307 2.57094,3.8733 3.19989,6.4047 3.17163,12.7515 -0.0293,6.5887 -0.9607,9.6352 -3.82137,12.4959 -1.49827,1.4983 -1.9829,1.7289 -3.38648,1.6122 -1.46034,-0.1213 -1.65209,-0.2803 -1.76471,-1.4666 -0.0695,-0.7319 0.46094,-5.3316 1.17907,-10.221 1.10305,-7.51 1.22957,-9.2225 0.81435,-11.037 -0.57804,-2.526 -1.55207,-3.0945 -6.96788,-4.0639 -4.6712,-0.8362 -7.73962,-0.7665 -11.78639,0.2685 -4.35826,1.1147 -7.58028,3.0238 -10.61685,6.2913 -6.32191,6.8027 -7.91685,18.1158 -3.4272,24.3048 4.03518,5.5626 11.86787,6.9814 17.53102,3.176 4.01716,-2.6994 3.54132,-2.6323 5.68138,-0.8005 5.2771,4.517 14.4076,3.679 20.0529,-1.8409 4.31403,-4.2183 6.52369,-10.1824 6.50959,-17.5701 -0.0103,-5.3953 -0.92829,-9.4701 -3.1569,-14.0119 -3.59341,-7.3233 -10.9795,-13.1654 -19.45687,-15.3895 -4.2891,-1.1252 -13.29298,-0.9942 -17.96418,0.2616 -9.06541,2.4372 -16.25346,7.6644 -21.18432,15.406 -4.248,6.6695 -5.81221,12.1338 -5.82432,20.3474 -0.009,5.9836 0.52872,8.9633 2.40839,13.3484 0.49041,1.1441 0.79157,2.1799 0.66881,2.3027 -0.30145,0.3014 -13.22227,-5.3163 -36.54866,-15.8919 l -19.3607,-8.7777 -0.12822,-4.3576 c -0.0705,-2.3964 -0.29212,-4.5207 -0.49207,-4.7206 -0.34512,-0.3451 -5.0778,1.9847 -7.69646,3.7884 l -1.21979,0.8404 0,50.2245 c 0,38.4726 0.1242,50.3495 0.53192,50.7573 0.41082,0.4108 23.17523,0.5327 99.76462,0.5327 54.57786,0 99.54854,-0.1213 99.93442,-0.2694 0.63408,-0.2433 0.70173,-5.1128 0.70173,-50.5831 l 0,-50.3138 -1.88513,-1.134 c -1.03682,-0.6238 -3.48195,-2.063 -5.43361,-3.1985 l -3.54848,-2.0644 -0.11695,-14.1784 c -0.0645,-7.7979 -0.28226,-14.3427 -0.48341,-14.5439 z m -90.0271,36.9576 c 0.10793,0 0.20518,0.015 0.29715,0.034 0.0243,0 0.047,0.012 0.0702,0.018 8.8e-4,2e-4 0.002,4e-4 0.003,0 0.0548,0.015 0.10451,0.036 0.15334,0.058 0.01,0 0.0215,0.01 0.0312,0.011 0.0264,0.013 0.0542,0.024 0.0788,0.04 8.8e-4,5e-4 0.002,4e-4 0.003,0 0.005,0 0.01,0.01 0.0147,0.01 0.008,0.01 0.0161,0.012 0.0243,0.017 0.0502,0.035 0.0979,0.073 0.14034,0.1195 0.0567,0.062 0.10473,0.1371 0.14814,0.2192 0.014,0.027 0.0264,0.056 0.039,0.085 0.0286,0.065 0.0543,0.1356 0.0762,0.2122 2.6e-4,0 4.4e-4,0 8.9e-4,0 0.009,0.032 0.0181,0.063 0.026,0.096 0.0538,0.2286 0.0823,0.5043 0.0884,0.8335 8.9e-4,0.039 8.9e-4,0.08 8.9e-4,0.1195 2.9e-4,0.1069 -0.004,0.2256 -0.008,0.3431 -0.008,0.2451 -0.0236,0.5086 -0.0494,0.8022 -0.006,0.064 -0.0118,0.1317 -0.0182,0.1984 -0.0262,0.2715 -0.0619,0.5778 -0.10049,0.8906 -4.1e-4,0 -4.5e-4,0.01 -8.9e-4,0.01 -0.0654,0.5294 -0.14222,1.0968 -0.2391,1.7526 -0.10302,0.6972 -0.21414,1.3521 -0.3344,1.9674 -0.0689,0.3526 -0.14129,0.6882 -0.21659,1.0154 -0.023,0.1 -0.0474,0.1952 -0.071,0.2928 -0.0536,0.2215 -0.1085,0.4388 -0.16547,0.6488 -0.0305,0.1126 -0.062,0.2234 -0.0936,0.3327 -0.0571,0.1979 -0.11624,0.3895 -0.17673,0.577 -0.0294,0.091 -0.0582,0.1843 -0.0884,0.2729 -0.0921,0.2703 -0.18662,0.5332 -0.28676,0.7823 -0.11575,0.2879 -0.24003,0.5568 -0.36732,0.8178 -0.0522,0.107 -0.10429,0.2144 -0.15854,0.3171 -0.0231,0.043 -0.0459,0.088 -0.0693,0.1308 -0.093,0.1701 -0.18774,0.3362 -0.28675,0.4946 -0.21732,0.348 -0.44966,0.669 -0.69826,0.9651 -0.49723,0.5924 -1.05966,1.0869 -1.69887,1.5083 -0.18966,0.1251 -0.37274,0.2315 -0.55272,0.3258 -0.14629,0.077 -0.29126,0.1462 -0.4323,0.2036 -4.4e-4,2e-4 -0.001,4e-4 -0.002,0 -8.9e-4,4e-4 -0.002,4e-4 -0.004,0 -0.12127,0.049 -0.2406,0.091 -0.35866,0.1256 -0.0144,0 -0.0289,0.01 -0.0433,0.013 -0.12087,0.033 -0.24043,0.061 -0.35866,0.079 -0.27417,0.041 -0.54228,0.041 -0.80829,0 -0.0884,-0.014 -0.17615,-0.033 -0.26423,-0.056 -2.6e-4,-10e-5 -4.4e-4,0 -8.9e-4,0 -0.0883,-0.024 -0.17589,-0.052 -0.26423,-0.085 -0.0885,-0.033 -0.17708,-0.07 -0.26596,-0.1126 -0.0887,-0.042 -0.17751,-0.09 -0.26683,-0.1413 -0.0895,-0.052 -0.17898,-0.1085 -0.26943,-0.1698 -0.18054,-0.1223 -0.36303,-0.2634 -0.54925,-0.4236 -0.12329,-0.1061 -0.22905,-0.203 -0.3292,-0.298 -0.0498,-0.047 -0.0932,-0.095 -0.13775,-0.1404 -0.0471,-0.049 -0.0946,-0.099 -0.13601,-0.1472 -0.0451,-0.052 -0.0868,-0.1073 -0.12562,-0.1603 -0.0282,-0.039 -0.0555,-0.08 -0.0806,-0.1196 -4.4e-4,0 -0.001,0 -0.002,0 -0.0399,-0.063 -0.0784,-0.13 -0.11089,-0.1975 -0.01,-0.02 -0.0177,-0.043 -0.0268,-0.064 -3.6e-4,0 -4.4e-4,0 -8.9e-4,0 -0.0575,-0.1313 -0.10406,-0.2779 -0.13947,-0.4383 -0.002,-0.01 -0.004,-0.016 -0.005,-0.024 -0.0353,-0.1666 -0.0626,-0.3548 -0.0797,-0.5683 -2e-5,-4e-4 3e-5,-5e-4 0,0 -4e-5,-5e-4 5e-5,0 0,0 -2.6e-4,0 -4.4e-4,-0.01 -8.8e-4,-0.01 -0.0119,-0.152 -0.0203,-0.3244 -0.0251,-0.5068 0,0 0,0 0,0 -9e-5,-5e-4 9e-5,0 0,0 -0.48052,-3.0031 0.9335,-7.3224 3.41593,-9.9394 0.29684,-0.3129 0.61847,-0.6062 0.95383,-0.881 0.004,0 0.007,-0.01 0.0104,-0.01 0.0127,-0.011 0.0254,-0.022 0.0381,-0.033 0.23396,-0.201 0.47343,-0.3897 0.71992,-0.5657 0,0 8.9e-4,0 8.9e-4,0 1.9e-4,-10e-5 8.8e-4,10e-5 8.8e-4,0 0.22328,-0.1594 0.45105,-0.3072 0.68354,-0.4444 0.0419,-0.025 0.0826,-0.052 0.12475,-0.076 0.002,0 0.004,0 0.006,0 0.0913,-0.052 0.18289,-0.1025 0.27549,-0.1508 0.17464,-0.092 0.35125,-0.1763 0.53019,-0.2546 0.003,0 0.006,0 0.009,0 0.10486,-0.045 0.21003,-0.091 0.31621,-0.1317 0.13311,-0.051 0.26692,-0.098 0.40198,-0.142 0.003,0 0.006,0 0.009,0 0.003,0 0.005,0 0.008,0 0.006,0 0.0122,0 0.0182,-0.01 0.0401,-0.013 0.0793,-0.028 0.11955,-0.04 0.0104,0 0.0191,-0.01 0.0295,-0.01 0.35576,-0.1223 0.6969,-0.2135 1.01273,-0.2659 0.006,0 0.0131,0 0.0191,0 0.0184,0 0.0373,-0.01 0.0554,-0.012 2.7e-4,0 4.4e-4,1e-4 8.9e-4,0 0.004,-4e-4 0.008,0 0.0113,0 0.0286,-0.01 0.0541,-0.01 0.0806,-0.013 0.009,0 0.0177,0 0.0268,0 0.11146,-0.02 0.22272,-0.042 0.32314,-0.053 0.13394,-0.015 0.25802,-0.023 0.37252,-0.021 z"
         style="fill:#81a1d3" />
      <path
         inkscape:connector-curvature="0"
         id="path4290"
         d="m 269.40586,1087.3926 c 0.17715,-0.544 26.3024,-14.9132 27.17229,-14.9451 0.80042,-0.029 26.99795,14.3767 27.1776,14.9451 0.13892,0.4394 -5.49754,0.5544 -27.1776,0.5544 -21.68289,0 -27.31543,-0.1149 -27.17229,-0.5544 z"
         style="fill:#81a1d3" />
      <path
         inkscape:connector-curvature="0"
         id="path4326"
         d="m 385.76295,1132.4062 c -0.44748,-0.4475 -0.27508,-11.1922 0.17958,-11.1922 0.23682,0 1.28474,0.5763 2.32869,1.2807 1.04395,0.7044 3.25669,2.0179 4.91719,2.9189 1.66049,0.901 2.94804,1.8513 2.86122,2.1117 -0.19875,0.5963 -9.94626,5.2213 -10.28668,4.8809 z"
         style="fill:#6090c5" />
      <path
         inkscape:connector-curvature="0"
         id="path4320"
         d="m 201.06146,1129.6026 c -2.30028,-1.066 -3.62959,-1.9282 -3.51424,-2.2793 0.20686,-0.6298 6.45493,-4.3237 7.3249,-4.3306 0.40255,0 0.55445,1.0821 0.55445,3.9614 0,2.1812 -0.1497,4.0552 -0.33267,4.1645 -0.18297,0.1092 -1.99757,-0.573 -4.03244,-1.516 z"
         style="fill:#6090c5" />
      <path
         inkscape:connector-curvature="0"
         id="path4288"
         d="m 270.62989,1087.1662 c 0,-0.1854 5.86701,-3.49 13.0378,-7.3435 l 13.03781,-7.0063 12.79956,6.9237 c 7.03977,3.808 12.9892,7.1125 13.22096,7.3435 0.26509,0.2641 -9.31777,0.4199 -25.83737,0.4199 -14.44232,0 -26.25876,-0.1518 -26.25876,-0.3373 z"
         style="fill:#6090c5" />
      <path
         inkscape:connector-curvature="0"
         id="path4354"
         d="m 294.91232,1104.1224 c -1.11198,0.025 -2.24095,0.1009 -3.38387,0.2304 -17.42036,1.9734 -29.76654,14.3393 -31.99524,32.0455 -0.82128,6.5249 0.4978,14.2722 3.27473,19.2307 0.94419,1.686 1.40865,1.9237 16.40046,8.4078 8.48565,3.67 15.74899,6.8754 16.14142,7.1229 0.57956,0.3656 -0.15381,0.9561 -3.90801,3.143 -2.54208,1.4809 -5.91927,3.3371 -7.505,4.1255 -1.58572,0.7884 -3.48194,1.8761 -4.21382,2.417 -0.73187,0.541 -5.92152,3.5438 -11.53256,6.6734 -21.57359,12.0327 -66.73838,38.2619 -68.07087,39.5314 -0.55572,0.5294 13.43608,0.6185 96.90227,0.6185 83.62683,0 97.45907,-0.089 96.90228,-0.6211 -0.58037,-0.5549 -31.91694,-18.6412 -79.46655,-45.8651 -9.19505,-5.2646 -16.64136,-9.6965 -16.54687,-9.8493 0.0945,-0.1529 2.17868,-1.135 4.63139,-2.1823 3.25,-1.3878 4.45985,-2.1169 4.45985,-2.6882 0,-0.827 -1.04432,-3.569 -1.55072,-4.0718 -0.16397,-0.1628 -1.39449,0.082 -2.735,0.5432 -1.34051,0.4612 -4.15764,1.0674 -6.26009,1.3471 -13.90577,1.8506 -25.03708,-4.7531 -27.8048,-16.4949 -0.88449,-3.7523 -0.86498,-10.7323 0.0407,-14.7301 0.94024,-4.1504 2.35011,-7.2934 4.83237,-10.7719 10.43467,-14.6229 33.81774,-15.0156 41.37671,-0.6948 1.91758,3.6329 2.46005,6.6904 2.18834,12.3261 -0.28922,5.9989 -1.13616,8.4941 -3.83177,11.2856 -2.3904,2.4755 -3.99346,3.0482 -5.59388,1.9995 -1.45868,-0.9557 -1.45419,-2.8676 0.0277,-12.67 0.62317,-4.1221 1.07228,-8.5503 0.99801,-9.8398 l -0.13515,-2.3443 -2.12597,-0.7875 c -1.1691,-0.4329 -3.97039,-1.0137 -6.22543,-1.2908 -3.50237,-0.4304 -4.64704,-0.3932 -7.85413,0.2556 -4.62371,0.9353 -8.32686,2.8484 -11.34197,5.8598 -7.39352,7.3845 -8.44586,21.015 -2.03241,26.3295 2.18785,1.8129 5.7842,2.8374 8.74212,2.4898 2.96146,-0.3481 4.82917,-1.1453 7.30921,-3.1179 1.09781,-0.8732 2.208,-1.5892 2.46731,-1.5914 0.2593,0 1.05771,0.6128 1.77424,1.367 2.38681,2.5124 4.41381,3.2822 8.62169,3.2756 3.30295,-0.01 4.13991,-0.1804 6.75303,-1.4113 7.39762,-3.4843 11.49221,-11.9812 10.85683,-22.5306 -0.97947,-16.262 -13.90676,-27.4445 -30.58659,-27.0718 z m 1.08118,25.1053 c 1.42778,0.028 1.43026,1.4648 0.77883,5.8737 -0.82413,5.5777 -2.15512,8.4372 -4.71196,10.123 -1.68165,1.1088 -2.95021,1.0398 -4.43993,-0.2417 -1.13076,-0.9727 -1.24057,-1.3275 -1.20419,-3.8811 0.0739,-5.1915 3.42271,-10.2241 7.64534,-11.4893 0.82128,-0.2461 1.45598,-0.3938 1.93191,-0.3846 z"
         style="fill:#3278bc" />
      <path
         inkscape:connector-curvature="0"
         id="path4346"
         d="m 385.51194,1126.7585 c 0,-3.0495 0.17516,-5.5445 0.38925,-5.5445 0.21408,0 0.65031,0.3146 0.96938,0.699 0.31908,0.3845 2.01111,1.4844 3.76007,2.4443 1.74897,0.9599 3.50999,2.11 3.91339,2.5557 0.69866,0.772 0.51116,0.9191 -3.95277,3.1002 -2.57742,1.2594 -4.77466,2.2898 -4.88277,2.2898 -0.1081,0 -0.19655,-2.495 -0.19655,-5.5445 z"
         style="fill:#3278bc" />
      <path
         inkscape:connector-curvature="0"
         id="path4340"
         d="m 201.08577,1129.112 c -1.53358,-0.7534 -2.71706,-1.5912 -2.62996,-1.8617 0.17379,-0.5397 6.00922,-4.0468 6.27111,-3.769 0.0893,0.095 0.23337,1.6639 0.32012,3.4869 0.19018,3.9961 0.009,4.0942 -3.96127,2.1438 z"
         style="fill:#3278bc" />
      <path
         inkscape:connector-curvature="0"
         id="path4286"
         d="m 271.51701,1086.8846 c 0,-0.096 1.04791,-0.7219 2.32869,-1.39 1.28078,-0.6681 5.92153,-3.157 10.31277,-5.5309 4.39125,-2.3739 9.02786,-4.8435 10.30359,-5.488 l 2.31951,-1.1718 12.09619,6.4979 c 6.65291,3.5739 12.28582,6.669 12.51758,6.878 0.23451,0.2116 -10.7318,0.3801 -24.72847,0.3801 -13.83242,0 -25.14986,-0.079 -25.14986,-0.1753 z"
         style="fill:#3278bc" />
      <path
         inkscape:connector-curvature="0"
         id="path4372"
         d="m 294.91232,1104.1224 c -1.11198,0.025 -2.24095,0.1009 -3.38387,0.2304 -17.42036,1.9734 -29.76654,14.3393 -31.99524,32.0455 -0.82135,6.5254 0.49859,14.2741 3.27559,19.2307 0.94437,1.6857 1.42685,1.9333 16.92719,8.6833 8.77537,3.8213 16.35437,6.9664 16.84228,6.9895 0.48792,0.023 3.03284,-0.8832 5.65539,-2.0142 3.463,-1.4935 4.76827,-2.269 4.76827,-2.8329 0,-0.821 -1.04646,-3.5633 -1.55072,-4.064 -0.16397,-0.1628 -1.39449,0.082 -2.735,0.5432 -1.34051,0.4612 -4.15764,1.0674 -6.26009,1.3471 -13.90577,1.8506 -25.03708,-4.7531 -27.8048,-16.4949 -0.88449,-3.7523 -0.86498,-10.7323 0.0407,-14.7301 0.94024,-4.1504 2.35011,-7.2934 4.83237,-10.7719 10.43467,-14.6229 33.81774,-15.0156 41.37671,-0.6948 1.91758,3.6329 2.46005,6.6904 2.18834,12.3261 -0.28922,5.9989 -1.13616,8.4941 -3.83177,11.2856 -2.3904,2.4755 -3.99346,3.0482 -5.59388,1.9995 -1.45868,-0.9557 -1.45419,-2.8676 0.0277,-12.67 0.62317,-4.1221 1.07228,-8.5503 0.99801,-9.8398 l -0.13515,-2.3443 -2.12597,-0.7875 c -1.1691,-0.4329 -3.97039,-1.0137 -6.22543,-1.2908 -3.50237,-0.4304 -4.64704,-0.3932 -7.85413,0.2556 -4.62371,0.9353 -8.32686,2.8484 -11.34197,5.8598 -7.39352,7.3845 -8.44586,21.015 -2.03241,26.3295 2.18785,1.8129 5.7842,2.8374 8.74212,2.4898 2.96146,-0.3481 4.82917,-1.1453 7.30921,-3.1179 1.09781,-0.8732 2.208,-1.5892 2.46731,-1.5914 0.2593,0 1.05771,0.6128 1.77424,1.367 2.38681,2.5124 4.41381,3.2822 8.62169,3.2756 3.30295,-0.01 4.13991,-0.1804 6.75303,-1.4113 7.39762,-3.4843 11.49221,-11.9812 10.85683,-22.5306 -0.97947,-16.262 -13.90676,-27.4445 -30.58659,-27.0718 z m 1.08118,25.1053 c 1.42778,0.028 1.43026,1.4648 0.77883,5.8737 -0.82413,5.5777 -2.15512,8.4372 -4.71196,10.123 -1.68165,1.1088 -2.95021,1.0398 -4.43993,-0.2417 -1.13076,-0.9727 -1.24057,-1.3275 -1.20419,-3.8811 0.0739,-5.1915 3.42271,-10.2241 7.64534,-11.4893 0.82128,-0.2461 1.45598,-0.3938 1.93191,-0.3846 z"
         style="fill:#566e8e" />
      <path
         inkscape:connector-curvature="0"
         id="path4364"
         d="m 385.51194,1126.7216 c 0,-4.269 0.13038,-5.5376 0.55445,-5.395 0.33633,0.1132 0.57234,1.0625 0.59993,2.4131 0.025,1.2246 0.18649,2.4547 0.35885,2.7336 0.19474,0.3151 1.72081,0.507 4.03127,0.507 2.04485,0 3.82354,0.1709 3.95264,0.3798 0.18633,0.3015 -8.54698,4.9429 -9.30059,4.9429 -0.1081,0 -0.19655,-2.5116 -0.19655,-5.5814 z"
         style="fill:#566e8e" />
      <path
         inkscape:connector-curvature="0"
         id="path4284"
         d="m 201.10186,1129.1141 c -1.52474,-0.7461 -2.77225,-1.5315 -2.77225,-1.7452 0,-0.2137 1.49321,-0.3886 3.31825,-0.3886 3.16875,0 3.33077,0.05 3.59631,1.1079 0.33746,1.3445 -0.0303,2.4509 -0.80169,2.4116 -0.31261,-0.016 -1.81588,-0.6395 -3.34062,-1.3857 z"
         style="fill:#566e8e" />
      <path
         inkscape:connector-curvature="0"
         id="path4380"
         d="m 295.69115,1104.7305 c -10.02778,-0.018 -17.66855,2.8645 -24.6531,9.3018 -7.25049,6.6824 -11.25604,16.2348 -11.19556,26.6985 0.0309,5.3503 0.86021,9.3521 2.77485,13.3891 l 1.32895,2.8008 15.65022,6.773 c 17.84547,7.723 16.96961,7.5417 23.1916,4.7994 3.81666,-1.6821 4.01201,-2.0014 2.93686,-4.7925 -0.45479,-1.1806 -0.49396,-1.1922 -1.99949,-0.5631 -2.10106,0.8779 -8.70491,1.9891 -11.82365,1.9891 -7.06439,0 -13.64786,-2.5048 -17.99536,-6.8466 -4.60344,-4.5974 -6.36765,-9.0502 -6.69066,-16.8839 -0.27914,-6.7698 0.47295,-10.5529 3.19589,-16.0686 5.49344,-11.1278 17.65533,-17.0527 29.90825,-14.5699 11.14111,2.2574 17.41606,9.9435 17.43225,21.3523 0.0125,8.7955 -3.28752,15.2101 -8.23705,16.0133 -1.28115,0.2079 -1.76616,0.049 -2.70294,-0.888 -1.47385,-1.4739 -1.48409,-3.2602 -0.0762,-12.8104 1.60795,-10.9076 1.64043,-11.2915 0.99715,-11.8254 -1.09026,-0.9048 -6.74152,-1.9449 -10.71129,-1.9709 -6.41906,-0.042 -11.01239,1.6555 -15.20232,5.6181 -4.29519,4.0623 -6.3665,8.8425 -6.46888,14.9277 -0.0862,5.1263 0.70638,7.6382 3.23401,10.247 2.38237,2.4588 4.75025,3.2724 8.53593,2.9325 2.9608,-0.2659 6.47284,-2.0186 8.36526,-4.174 0.70763,-0.8059 1.5473,-1.4649 1.86521,-1.4649 0.31792,0 0.96943,0.7259 1.44763,1.614 0.47821,0.8879 1.65704,2.1354 2.61978,2.7722 1.56444,1.0347 2.1792,1.1583 5.7836,1.1583 3.65365,0 4.30832,-0.1356 6.96095,-1.4416 6.7507,-3.3236 10.55367,-10.7167 10.57354,-20.5545 0.0155,-7.6788 -2.5486,-14.0509 -7.75191,-19.2619 -5.60539,-5.6138 -12.40366,-8.2545 -21.29348,-8.2709 z m -0.45222,23.6127 c 0.30102,-0.01 0.6022,0 0.90358,0.039 l 1.32288,0.1507 -0.071,3.6031 c -0.12904,6.5646 -2.05342,11.596 -5.15899,13.4896 -4.00093,2.4395 -7.51483,-1.0039 -6.71751,-6.5824 0.84258,-5.8951 5.20578,-10.5878 9.72107,-10.7 z"
         style="fill:#2f4d74" />
      <path
         inkscape:connector-curvature="0"
         id="path4376"
         d="m 386.0584,1129.6417 c 0,-0.8539 0.0913,-1.2032 0.20286,-0.7763 0.11156,0.427 0.11156,1.1256 0,1.5525 -0.11157,0.4269 -0.20286,0.078 -0.20286,-0.7762 z"
         style="fill:#2f4d74" />
      <path
         inkscape:connector-curvature="0"
         id="path4282"
         d="m 386.0584,1124.3189 c 0,-0.8538 0.0913,-1.2031 0.20286,-0.7762 0.11156,0.4269 0.11156,1.1255 0,1.5525 -0.11157,0.4269 -0.20286,0.078 -0.20286,-0.7763 z"
         style="fill:#2f4d74" />
    </g>
  </g>
</svg>
