<?xml version="1.0" encoding="UTF-8" standalone="no"?>
<!-- Created with Inkscape (http://www.inkscape.org/) -->

<svg
   xmlns:dc="http://purl.org/dc/elements/1.1/"
   xmlns:cc="http://creativecommons.org/ns#"
   xmlns:rdf="http://www.w3.org/1999/02/22-rdf-syntax-ns#"
   xmlns:svg="http://www.w3.org/2000/svg"
   xmlns="http://www.w3.org/2000/svg"
   xmlns:xlink="http://www.w3.org/1999/xlink"
   xmlns:sodipodi="http://sodipodi.sourceforge.net/DTD/sodipodi-0.dtd"
   xmlns:inkscape="http://www.inkscape.org/namespaces/inkscape"
   width="28.222221mm"
   height="28.222221mm"
   viewBox="0 0 99.999997 99.999997"
   id="svg7283"
   version="1.1"
   inkscape:version="0.91 r13725"
   sodipodi:docname="openclipart.svg">
  <defs
     id="defs7285">
    <linearGradient
       inkscape:collect="always"
       xlink:href="#linearGradient4272"
       id="linearGradient4342"
       gradientUnits="userSpaceOnUse"
       x1="574.87781"
       y1="118.98125"
       x2="140.71425"
       y2="425.8656"
       gradientTransform="matrix(1.9642271,0,0,1.9642271,-133.46684,-411.06358)" />
    <linearGradient
       inkscape:collect="always"
       id="linearGradient4272">
      <stop
         style="stop-color:#003380;stop-opacity:1;"
         offset="0"
         id="stop4274" />
      <stop
         style="stop-color:#000057;stop-opacity:1"
         offset="1"
         id="stop4276" />
    </linearGradient>
    <linearGradient
       inkscape:collect="always"
       xlink:href="#linearGradient4272"
       id="linearGradient4346"
       gradientUnits="userSpaceOnUse"
       x1="574.87781"
       y1="118.98125"
       x2="140.71425"
       y2="425.8656"
       gradientTransform="matrix(4.7215812,0,0,4.7215812,-1405.3341,-625.63802)" />
    <linearGradient
       inkscape:collect="always"
       xlink:href="#linearGradient4272"
       id="linearGradient7617"
       gradientUnits="userSpaceOnUse"
       gradientTransform="matrix(1.9642271,0,0,1.9642271,-133.46684,-411.06358)"
       x1="574.87781"
       y1="118.98125"
       x2="140.71425"
       y2="425.8656" />
  </defs>
  <sodipodi:namedview
     id="base"
     pagecolor="#ffffff"
     bordercolor="#666666"
     borderopacity="1.0"
     inkscape:pageopacity="0.0"
     inkscape:pageshadow="2"
     inkscape:zoom="3.959798"
     inkscape:cx="97.184743"
     inkscape:cy="67.625702"
     inkscape:document-units="px"
     inkscape:current-layer="layer1"
     showgrid="false"
     fit-margin-top="0"
     fit-margin-left="0"
     fit-margin-right="0"
     fit-margin-bottom="0"
     inkscape:window-width="1787"
     inkscape:window-height="1059"
     inkscape:window-x="133"
     inkscape:window-y="0"
     inkscape:window-maximized="1" />
  <metadata
     id="metadata7288">
    <rdf:RDF>
      <cc:Work
         rdf:about="">
        <dc:format>image/svg+xml</dc:format>
        <dc:type
           rdf:resource="http://purl.org/dc/dcmitype/StillImage" />
        <dc:title></dc:title>
      </cc:Work>
    </rdf:RDF>
  </metadata>
  <g
     inkscape:label="Layer 1"
     inkscape:groupmode="layer"
     id="layer1"
     transform="translate(-283.57144,-630.21928)">
    <g
       transform="matrix(0.11675992,0,0,0.11675992,267.06617,666.75348)"
       id="g7469">
      <path
         sodipodi:nodetypes="cccc"
         inkscape:connector-curvature="0"
         id="path4214"
         d="m 984.39321,346.63492 11.80072,-19.65761 -26.44034,11.65492 z"
         style="fill:#4d4d4d;fill-opacity:1;fill-rule:evenodd;stroke:none;stroke-width:1px;stroke-linecap:butt;stroke-linejoin:miter;stroke-opacity:1" />
      <path
         sodipodi:nodetypes="cccc"
         inkscape:connector-curvature="0"
         id="path3400"
         d="m 986.56309,-98.374909 11.7975,-19.658651 -22.88537,13.52017 z"
         style="fill:#4d4d4d;fill-opacity:1;fill-rule:evenodd;stroke:none;stroke-width:1px;stroke-linecap:butt;stroke-linejoin:miter;stroke-opacity:1" />
      <path
         id="path3398"
         d="m 253.26294,-179.54775 c -46.69643,-0.40133 -94.57327,20.09505 -108.59636,58.36347 -20.86939,46.129844 12.60662,100.097517 69.69053,116.6702669 0.18887,0.047216 0.47216,0 0.66103,0 62.27765,22.5219421 139.80602,33.5232261 207.27741,103.3554121 l 25.30768,26.251991 -22.80524,23.23018 c -67.70748,69.73775 -144.99976,80.45574 -207.32463,102.83604 -0.14165,0.0944 -0.47216,-0.0472 -0.61381,0 -56.98948,16.47832 -89.99333,70.11548 -69.73775,116.24533 0.0472,0.0944 -0.0944,0.33051 0,0.47216 17.3282,46.64922 85.36619,67.28253 140.0421,54.91199 0.18886,-0.0472 0.47216,0 0.6138,0 55.99796,-9.77368 101.84451,-55.33694 88.86016,-101.37235 -6.42135,-22.75802 -14.58969,-33.28715 -22.19143,-39.56685 -3.82448,-3.16346 -7.12959,-5.14653 -9.2543,-6.94073 -2.17193,-1.7942 -11.14293,-6.84629 -11.14293,-6.84629 5.57146,-4.06056 8.82936,-5.99641 13.59815,-8.971 7.17681,-4.67437 19.64178,-10.38748 35.78959,-17.32821 32.01232,-13.69258 79.1337,-33.09828 133.29023,-64.26072 97.9256,55.66744 225.17221,127.76599 295.52377,167.61613 70.35156,39.85015 142.35568,19.78343 172.14885,1.51091 l -377.25434,-221.44216 379.42627,-223.566867 c -58.8309,-36.261743 -125.92457,-20.916603 -170.63794,0.8971 -99.34207,56.37568 -199.06187,112.468064 -298.5928,168.65488 -45.42161,-24.835517 -94.14833,-47.593538 -136.35926,-65.7716256 -16.19503,-6.9407244 -28.66,-12.6066218 -35.78959,-17.3282034 -3.5884,-2.313574 -12.65384,-7.412882 -12.65384,-7.412882 8.26277,-4.816013 17.04491,-13.739801 23.41905,-20.491663 6.37413,-6.799076 13.88144,-16.856044 18.2253,-34.373111 11.37901,-46.318708 -32.90942,-92.023618 -88.86016,-101.882278 -10.85964,-2.39384 -22.52194,-2.74796 -32.10675,-3.46092 z m -6.18527,39.0522 c 20.82218,-0.94432 42.30537,4.72158 56.1396,15.8173 20.72774,16.66718 24.64666,39.566846 16.66718,58.358739 -7.97947,18.791893 -27.14909,32.720558 -54.29818,32.673342 l -0.6138,0 c -24.88274,1.133179 -49.10445,-10.340263 -63.55249,-27.243524 -14.44804,-16.856045 -18.55581,-37.819865 -4.29664,-55.856307 l 0,-0.51937 c 9.82089,-14.96741 29.13216,-22.23865 49.95433,-23.23018 z m 16.05338,420.83453 c 1.84142,0 3.73005,-0.0472 4.91044,0 27.14909,0 46.36593,13.88145 54.29819,32.67334 7.97947,18.7919 4.10777,41.73878 -16.61997,58.31153 -13.88145,11.09572 -35.93123,17.3282 -56.80062,16.33667 -20.82217,-0.99153 -39.56685,-8.73492 -49.34052,-23.74955 l -0.61381,-0.47216 c -13.7398,-17.51707 -9.77367,-37.30049 3.68283,-53.92046 13.45651,-16.57275 36.49783,-28.80164 60.48346,-29.17937 z"
         style="color:#000000;text-indent:0;text-transform:none;block-progression:tb;fill:#4d4d4d;fill-opacity:1"
         inkscape:connector-curvature="0" />
      <path
         style="fill:url(#linearGradient7617);fill-opacity:1;fill-rule:evenodd;stroke:none;stroke-width:1px;stroke-linecap:butt;stroke-linejoin:miter;stroke-opacity:1"
         d="m 984.39321,346.63492 11.80072,-19.65761 -26.44034,11.65492 z"
         id="path4260"
         inkscape:connector-curvature="0"
         sodipodi:nodetypes="cccc" />
      <path
         style="fill:url(#linearGradient4342);fill-opacity:1;fill-rule:evenodd;stroke:none;stroke-width:1px;stroke-linecap:butt;stroke-linejoin:miter;stroke-opacity:1"
         d="m 986.56309,-98.374909 11.7975,-19.658651 -22.88537,13.52017 z"
         id="path4264"
         inkscape:connector-curvature="0"
         sodipodi:nodetypes="cccc" />
      <path
         inkscape:connector-curvature="0"
         style="color:#000000;text-indent:0;text-transform:none;block-progression:tb;fill:url(#linearGradient4346);fill-opacity:1"
         d="m 253.26294,-179.54775 c -46.69643,-0.40133 -94.57327,20.09505 -108.59636,58.36347 -20.86939,46.129844 12.60662,100.097517 69.69053,116.6702669 0.18887,0.047216 0.47216,0 0.66103,0 62.27765,22.5219421 139.80602,33.5232261 207.27741,103.3554121 l 25.30768,26.251991 -22.80524,23.23018 c -67.70748,69.73775 -144.99976,80.45574 -207.32463,102.83604 -0.14165,0.0944 -0.47216,-0.0472 -0.61381,0 -56.98948,16.47832 -89.99333,70.11548 -69.73775,116.24533 0.0472,0.0944 -0.0944,0.33051 0,0.47216 17.3282,46.64922 85.36619,67.28253 140.0421,54.91199 0.18886,-0.0472 0.47216,0 0.6138,0 55.99796,-9.77368 101.84451,-55.33694 88.86016,-101.37235 -6.42135,-22.75802 -14.58969,-33.28715 -22.19143,-39.56685 -3.82448,-3.16346 -7.12959,-5.14653 -9.2543,-6.94073 -2.17193,-1.7942 -11.14293,-6.84629 -11.14293,-6.84629 5.57146,-4.06056 8.82936,-5.99641 13.59815,-8.971 7.17681,-4.67437 19.64178,-10.38748 35.78959,-17.32821 32.01232,-13.69258 79.1337,-33.09828 133.29023,-64.26072 97.9256,55.66744 225.17221,127.76599 295.52377,167.61613 70.35156,39.85015 142.35568,19.78343 172.14885,1.51091 l -377.25434,-221.44216 379.42627,-223.566867 c -58.8309,-36.261743 -125.92457,-20.916603 -170.63794,0.8971 -99.34207,56.37568 -199.06187,112.468064 -298.5928,168.65488 -45.42161,-24.835517 -94.14833,-47.593538 -136.35926,-65.7716256 -16.19503,-6.9407244 -28.66,-12.6066218 -35.78959,-17.3282034 -3.5884,-2.313574 -12.65384,-7.412882 -12.65384,-7.412882 8.26277,-4.816013 17.04491,-13.739801 23.41905,-20.491663 6.37413,-6.799076 13.88144,-16.856044 18.2253,-34.373111 11.37901,-46.318708 -32.90942,-92.023618 -88.86016,-101.882278 -10.85964,-2.39384 -22.52194,-2.74796 -32.10675,-3.46092 z m -6.18527,39.0522 c 20.82218,-0.94432 42.30537,4.72158 56.1396,15.8173 20.72774,16.66718 24.64666,39.566846 16.66718,58.358739 -7.97947,18.791893 -27.14909,32.720558 -54.29818,32.673342 l -0.6138,0 c -24.88274,1.133179 -49.10445,-10.340263 -63.55249,-27.243524 -14.44804,-16.856045 -18.55581,-37.819865 -4.29664,-55.856307 l 0,-0.51937 c 9.82089,-14.96741 29.13216,-22.23865 49.95433,-23.23018 z m 16.05338,420.83453 c 1.84142,0 3.73005,-0.0472 4.91044,0 27.14909,0 46.36593,13.88145 54.29819,32.67334 7.97947,18.7919 4.10777,41.73878 -16.61997,58.31153 -13.88145,11.09572 -35.93123,17.3282 -56.80062,16.33667 -20.82217,-0.99153 -39.56685,-8.73492 -49.34052,-23.74955 l -0.61381,-0.47216 c -13.7398,-17.51707 -9.77367,-37.30049 3.68283,-53.92046 13.45651,-16.57275 36.49783,-28.80164 60.48346,-29.17937 z"
         id="path4270" />
      <path
         inkscape:connector-curvature="0"
         style="color:#000000;text-indent:0;text-transform:none;block-progression:tb;fill:#f2f2f2;fill-opacity:1"
         d="m 265.04834,-199.19003 c -46.69643,-0.40133 -94.57327,20.09505 -108.59636,58.36347 -20.86939,46.129844 12.60662,100.097517 69.69053,116.670267 0.18887,0.04722 0.47216,0 0.66103,0 62.27765,22.5219422 139.80602,33.5232264 207.27741,103.355412 l 25.30768,26.251991 -22.80524,23.23018 c -67.70748,69.73775 -144.99976,80.45574 -207.32463,102.83604 -0.14165,0.0944 -0.47216,-0.0472 -0.61381,0 -56.98948,16.47832 -89.99333,70.11548 -69.73775,116.24533 0.0472,0.0944 -0.0944,0.33051 0,0.47216 17.3282,46.64922 85.36619,67.28253 140.0421,54.91199 0.18886,-0.0472 0.47216,0 0.6138,0 55.99796,-9.77368 101.84451,-55.33694 88.86016,-101.37235 -6.42135,-22.75802 -14.58969,-33.28715 -22.19143,-39.56685 -3.82448,-3.16346 -7.12959,-5.14653 -9.2543,-6.94073 -2.17193,-1.7942 -11.14293,-6.84629 -11.14293,-6.84629 5.57146,-4.06056 8.82936,-5.99641 13.59815,-8.971 7.17681,-4.67437 19.64178,-10.38748 35.78959,-17.32821 32.01232,-13.69258 79.1337,-33.09828 133.29023,-64.26072 97.9256,55.66744 225.17221,127.76599 295.52377,167.61613 70.35156,39.85015 142.35568,19.78343 172.14885,1.51091 l -377.25434,-221.44216 379.42627,-223.56687 c -58.8309,-36.26174 -125.92457,-20.9166 -170.63794,0.8971 -99.34207,56.375683 -199.06187,112.4680672 -298.5928,168.654883 -45.42161,-24.835517 -94.14833,-47.593538 -136.35926,-65.771626 -16.19503,-6.940724 -28.66,-12.606621 -35.78959,-17.328203 -3.5884,-2.313574 -12.65384,-7.412882 -12.65384,-7.412882 8.26277,-4.816013 17.04491,-13.739801 23.41905,-20.491663 6.37413,-6.799076 13.88144,-16.856044 18.2253,-34.373111 11.37901,-46.318708 -32.90942,-92.023618 -88.86016,-101.882278 -10.85964,-2.39384 -22.52194,-2.74796 -32.10675,-3.46092 z m -6.18527,39.0522 c 20.82218,-0.94432 42.30537,4.72158 56.1396,15.8173 20.72774,16.66718 24.64666,39.56685 16.66718,58.358739 -7.97947,18.791893 -27.14909,32.720558 -54.29818,32.673342 l -0.6138,0 c -24.88274,1.133179 -49.10445,-10.340263 -63.55249,-27.243524 -14.44804,-16.856045 -18.55581,-37.819867 -4.29664,-55.856307 l 0,-0.51937 c 9.82089,-14.96741 29.13216,-22.23865 49.95433,-23.23018 z m 16.05338,420.83453 c 1.84142,0 3.73005,-0.0472 4.91044,0 27.14909,0 46.36593,13.88145 54.29819,32.67334 7.97947,18.7919 4.10777,41.73878 -16.61997,58.31153 -13.88145,11.09572 -35.93123,17.3282 -56.80062,16.33667 -20.82217,-0.99153 -39.56685,-8.73492 -49.34052,-23.74955 l -0.61381,-0.47216 c -13.7398,-17.51707 -9.77367,-37.30049 3.68283,-53.92046 13.45651,-16.57275 36.49783,-28.80164 60.48346,-29.17937 z"
         id="path4461" />
      <path
         sodipodi:nodetypes="ccccccccccccccccccccscccccccccccccccsccccccccccccccc"
         id="path4314"
         d="m 261.11984,-199.19003 c -46.69643,-0.40133 -94.57327,20.09505 -108.59636,58.36347 -20.86939,46.129844 12.60662,100.097517 69.69053,116.670267 0.18887,0.04722 0.47216,0 0.66103,0 62.27765,22.5219422 139.80602,33.5232264 207.27741,103.355412 l 25.30768,26.251991 -22.80524,23.23018 c -67.70748,69.73775 -144.99976,80.45574 -207.32463,102.83604 -0.14165,0.0944 -0.47216,-0.0472 -0.61381,0 -56.98948,16.47832 -89.99333,70.11548 -69.73775,116.24533 0.0472,0.0944 -0.0944,0.33051 0,0.47216 17.3282,46.64922 85.36619,67.28253 140.0421,54.91199 0.18886,-0.0472 0.47216,0 0.6138,0 55.99796,-9.77368 101.84451,-55.33694 88.86016,-101.37235 -6.42135,-22.75802 -14.58969,-33.28715 -22.19143,-39.56685 -3.82448,-3.16346 -7.12959,-5.14653 -9.2543,-6.94073 -2.17193,-1.7942 -11.14293,-6.84629 -11.14293,-6.84629 5.57146,-4.06056 8.82936,-5.99641 13.59815,-8.971 7.17681,-4.67437 19.64178,-10.38748 35.78959,-17.32821 32.01232,-13.69258 79.1337,-33.09828 133.29023,-64.26072 97.9256,55.66744 225.17221,127.76599 295.52377,167.61613 70.35156,39.85015 146.28073,19.78003 176.0739,1.50751 l -381.17939,-221.43876 383.4161,-223.56687 c -58.8309,-36.26174 -129.9144,-20.9166 -174.62777,0.8971 -99.34207,56.375683 -199.06187,112.4680672 -298.5928,168.654883 -45.42161,-24.835517 -94.14833,-47.593538 -136.35926,-65.771626 -16.19503,-6.940724 -28.66,-12.606621 -35.78959,-17.328203 -3.5884,-2.313574 -12.65384,-7.412882 -12.65384,-7.412882 8.26277,-4.816013 17.04491,-13.739801 23.41905,-20.491663 6.37413,-6.799076 13.88144,-16.856044 18.2253,-34.373111 11.37901,-46.318708 -32.90942,-92.023618 -88.86016,-101.882278 -10.85964,-2.39384 -22.52194,-2.74796 -32.10675,-3.46092 z m -6.18527,39.0522 c 20.82218,-0.94432 42.30537,4.72158 56.1396,15.8173 20.72774,16.66718 24.64666,39.56685 16.66718,58.358739 -7.97947,18.791893 -27.14909,32.720558 -54.29818,32.673342 l -0.6138,0 c -24.88274,1.133179 -49.10445,-10.340263 -63.55249,-27.243524 -14.44804,-16.856045 -18.55581,-37.819867 -4.29664,-55.856307 l 0,-0.51937 c 9.82089,-14.96741 29.13216,-22.23865 49.95433,-23.23018 z m 16.05338,420.83453 c 1.84142,0 3.73005,-0.0472 4.91044,0 27.14909,0 46.36593,13.88145 54.29819,32.67334 7.97947,18.7919 4.10777,41.73878 -16.61997,58.31153 -13.88145,11.09572 -35.93123,17.3282 -56.80062,16.33667 -20.82217,-0.99153 -39.56685,-8.73492 -49.34052,-23.74955 l -0.61381,-0.47216 c -13.7398,-17.51707 -9.77367,-37.30049 3.68283,-53.92046 13.45651,-16.57275 36.49783,-28.80164 60.48346,-29.17937 z"
         style="color:#000000;text-indent:0;text-transform:none;block-progression:tb;fill:#e6e6e6;fill-opacity:1"
         inkscape:connector-curvature="0" />
      <ellipse
         style="opacity:1;fill:#ffffff;fill-opacity:1;stroke:none;stroke-width:10;stroke-miterlimit:4;stroke-dasharray:none;stroke-opacity:1"
         id="ellipse4378"
         cx="526.05219"
         cy="99.019249"
         rx="23.481569"
         ry="19.773951" />
      <ellipse
         ry="19.444857"
         rx="23.090769"
         cy="98.690155"
         cx="526.44299"
         id="path4224"
         style="opacity:1;fill:#002d72;fill-opacity:1;stroke:none;stroke-width:10;stroke-miterlimit:4;stroke-dasharray:none;stroke-opacity:1" />
      <ellipse
         ry="14.565507"
         rx="17.070288"
         cy="95.74897"
         cx="525.56543"
         id="ellipse4376"
         style="opacity:1;fill:#b3b3b3;fill-opacity:1;stroke:none;stroke-width:10;stroke-miterlimit:4;stroke-dasharray:none;stroke-opacity:1" />
      <ellipse
         style="opacity:1;fill:#e6e6e6;fill-opacity:1;stroke:none;stroke-width:10;stroke-miterlimit:4;stroke-dasharray:none;stroke-opacity:1"
         id="ellipse4226"
         cx="525.9776"
         cy="94.91684"
         rx="16.905743"
         ry="14.236413" />
      <text
         xml:space="preserve"
         style="font-style:normal;font-variant:normal;font-weight:500;font-stretch:normal;font-size:53.020298px;line-height:125%;font-family:Tuffy;-inkscape-font-specification:'Tuffy, Medium';text-align:start;letter-spacing:0px;word-spacing:0px;writing-mode:lr-tb;text-anchor:start;fill:#666666;fill-opacity:1;stroke:none;stroke-width:1px;stroke-linecap:butt;stroke-linejoin:miter;stroke-opacity:1"
         x="433.50266"
         y="378.16986"
         id="text4380"
         sodipodi:linespacing="125%"
         transform="matrix(0.87800109,-0.5108879,0.51851136,0.83724135,0,0)"><tspan
           sodipodi:role="line"
           id="tspan4382"
           x="433.50266"
           y="378.16986">openclipart.org</tspan></text>
      <text
         transform="matrix(0.87800109,-0.5108879,0.51851136,0.83724135,0,0)"
         sodipodi:linespacing="125%"
         id="text4512"
         y="377.73462"
         x="433.74973"
         style="font-style:normal;font-variant:normal;font-weight:500;font-stretch:normal;font-size:53.020298px;line-height:125%;font-family:Tuffy;-inkscape-font-specification:'Tuffy, Medium';text-align:start;letter-spacing:0px;word-spacing:0px;writing-mode:lr-tb;text-anchor:start;fill:#666666;fill-opacity:1;stroke:none;stroke-width:1px;stroke-linecap:butt;stroke-linejoin:miter;stroke-opacity:1"
         xml:space="preserve"><tspan
           y="377.73462"
           x="433.74973"
           id="tspan4514"
           sodipodi:role="line">openclipart.org</tspan></text>
      <rect
         style="opacity:1;fill:#ffffff;fill-opacity:1;stroke:none;stroke-width:10;stroke-miterlimit:4;stroke-dasharray:none;stroke-opacity:1"
         id="rect4392"
         width="1.3163759"
         height="26.327517"
         x="527.03595"
         y="-88.554504"
         transform="matrix(0.94902946,0.31518738,-0.31518738,0.94902946,0,0)" />
      <rect
         transform="matrix(0.94902946,0.31518738,-0.31518738,0.94902946,0,0)"
         y="-88.848976"
         x="526.93817"
         height="26.327517"
         width="1.3163759"
         id="rect4390"
         style="opacity:1;fill:#cccccc;fill-opacity:1;stroke:none;stroke-width:10;stroke-miterlimit:4;stroke-dasharray:none;stroke-opacity:1" />
    </g>
  </g>
</svg>
