<?xml version="1.0" encoding="UTF-8" standalone="no"?>
<!-- Created with Inkscape (http://www.inkscape.org/) -->

<svg
   xmlns:dc="http://purl.org/dc/elements/1.1/"
   xmlns:cc="http://creativecommons.org/ns#"
   xmlns:rdf="http://www.w3.org/1999/02/22-rdf-syntax-ns#"
   xmlns:svg="http://www.w3.org/2000/svg"
   xmlns="http://www.w3.org/2000/svg"
   xmlns:xlink="http://www.w3.org/1999/xlink"
   xmlns:sodipodi="http://sodipodi.sourceforge.net/DTD/sodipodi-0.dtd"
   xmlns:inkscape="http://www.inkscape.org/namespaces/inkscape"
   width="22.456671mm"
   height="12.500748mm"
   viewBox="0 0 22.456671 12.500748"
   version="1.1"
   id="svg8"
   inkscape:version="0.92.1 unknown"
   sodipodi:docname="pin-it.svg">
  <defs
     id="defs2">
    <linearGradient
       inkscape:collect="always"
       id="linearGradient4529">
      <stop
         style="stop-color:#dbdbdb;stop-opacity:1;"
         offset="0"
         id="stop4525" />
      <stop
         style="stop-color:#dbdbdb;stop-opacity:0;"
         offset="1"
         id="stop4527" />
    </linearGradient>
    <linearGradient
       inkscape:collect="always"
       xlink:href="#linearGradient4529"
       id="linearGradient4531"
       x1="104.81937"
       y1="173.2092"
       x2="104.82539"
       y2="163.45386"
       gradientUnits="userSpaceOnUse" />
    <linearGradient
       inkscape:collect="always"
       xlink:href="#linearGradient4529"
       id="linearGradient4542"
       gradientUnits="userSpaceOnUse"
       x1="104.81937"
       y1="173.2092"
       x2="104.82539"
       y2="163.45386" />
  </defs>
  <sodipodi:namedview
     id="base"
     pagecolor="#ffffff"
     bordercolor="#666666"
     borderopacity="1.0"
     inkscape:pageopacity="0.0"
     inkscape:pageshadow="2"
     inkscape:zoom="2.8"
     inkscape:cx="112.15226"
     inkscape:cy="42.85783"
     inkscape:document-units="mm"
     inkscape:current-layer="layer1"
     showgrid="false"
     inkscape:window-width="1787"
     inkscape:window-height="1059"
     inkscape:window-x="133"
     inkscape:window-y="0"
     inkscape:window-maximized="1" />
  <metadata
     id="metadata5">
    <rdf:RDF>
      <cc:Work
         rdf:about="">
        <dc:format>image/svg+xml</dc:format>
        <dc:type
           rdf:resource="http://purl.org/dc/dcmitype/StillImage" />
        <dc:title></dc:title>
      </cc:Work>
    </rdf:RDF>
  </metadata>
  <g
     inkscape:label="Layer 1"
     inkscape:groupmode="layer"
     id="layer1"
     transform="translate(-93.393593,-162.61571)">
    <g
       id="g4540">
      <rect
         ry="1.4174107"
         y="162.86571"
         x="93.643593"
         height="12.000748"
         width="21.956671"
         id="rect4496"
         style="color:#000000;clip-rule:nonzero;display:inline;overflow:visible;visibility:visible;opacity:1;isolation:auto;mix-blend-mode:normal;color-interpolation:sRGB;color-interpolation-filters:linearRGB;solid-color:#000000;solid-opacity:1;vector-effect:none;fill:url(#linearGradient4542);fill-opacity:1;fill-rule:nonzero;stroke:#b0afaf;stroke-width:0.5;stroke-linecap:butt;stroke-linejoin:miter;stroke-miterlimit:4;stroke-dasharray:none;stroke-dashoffset:0;stroke-opacity:1;marker:none;color-rendering:auto;image-rendering:auto;shape-rendering:auto;text-rendering:auto;enable-background:accumulate" />
      <g
         style="fill:#cc2329;fill-opacity:1"
         transform="matrix(0.73057688,0,0.19575748,0.92815383,-6.5092957,16.47221)"
         id="g4523">
        <path
           inkscape:connector-curvature="0"
           id="path4502"
           style="font-style:normal;font-variant:normal;font-weight:normal;font-stretch:normal;font-size:medium;line-height:125%;font-family:Alison;-inkscape-font-specification:Alison;letter-spacing:0px;word-spacing:0px;fill:#cc2329;fill-opacity:1;stroke:none;stroke-width:0.26458332px;stroke-linecap:butt;stroke-linejoin:miter;stroke-opacity:1"
           d="m 101.77576,164.21773 q -0.0212,0 -0.34925,0.53975 -0.3175,0.52916 -0.70908,1.016 -0.381,0.48683 -1.016002,0.96308 -0.624417,0.47625 -1.407584,0.81492 -0.783166,0.33866 -1.49225,0.33866 -0.783166,0 -1.397,-0.40216 -0.116416,-0.0635 -0.179916,-0.21167 -0.0635,-0.15875 -0.0635,-0.34925 0,-0.22225 0.09525,-0.40217 0.09525,-0.17991 0.243416,-0.21166 0.15875,-0.0318 0.201084,-0.0318 0.243416,0 0.370416,0.16933 0.137584,0.15875 0.137584,0.34925 0,0.23283 -0.137584,0.23283 -0.148166,0 -0.148166,0.127 0,0.13759 0.127,0.30692 0.127,0.15875 0.275166,0.1905 0.148167,0.0318 0.328084,0.0318 0.624416,0 1.11125,-0.41275 0.497416,-0.41275 0.994833,-1.016 0.508,-0.61383 0.910167,-1.22767 0.412752,-0.61383 0.793752,-1.18533 0.39158,-0.5715 0.93133,-1.13241 0.55033,-0.56092 1.651,-0.93134 0.48683,-0.0952 0.97367,-0.1905 -0.0423,0.127 -0.0635,0.21167 -0.0212,0.0741 -0.0952,0.0741 -0.26459,0 -0.64559,0.30692 -0.381,0.29633 -0.73025,0.8255 -0.34925,0.51858 -0.635,0.9525 0.23284,0.13758 0.59267,0.13758 0.74083,0 1.40758,-0.51858 0.67734,-0.51858 0.67734,-1.3335 0,-0.65617 -0.55034,-1.12183 -0.53975,-0.46567 -1.524,-0.46567 -1.31233,0 -2.20133,0.51858 -0.878416,0.508 -1.280582,1.016 -0.402167,0.49742 -0.613834,1.02659 -0.211666,0.52916 -0.211666,0.94191 0,0.71967 0.497416,0.71967 0.05292,-0.0106 0.08467,-0.0106 0.465667,-0.0529 1.005417,-0.59266 0.08467,-0.0317 0.169333,-0.0635 0,0.16933 -0.137583,0.30691 -0.137584,0.13759 -0.359834,0.30692 -0.22225,0.15875 -0.338666,0.21167 -0.105834,0.0529 -0.359834,0.13758 -0.243416,0.0741 -0.486833,0.0741 -0.550333,0 -0.92075,-0.40216 -0.370417,-0.40217 -0.370417,-1.00542 0,-0.53975 0.3175,-1.10066 0.3175,-0.5715 0.994834,-1.10067 0.677333,-0.53975 1.862659,-0.86783 1.18534,-0.32809 2.32834,-0.32809 0.21166,0 0.43391,0.0212 0.23284,0.0106 0.73025,0.0953 0.49742,0.0741 1.25942,0.51858 0.77258,0.4445 0.77258,1.16417 0,0.58208 -0.37041,0.97367 -0.37042,0.39158 -0.93134,0.65616 -0.56091,0.26459 -0.889,0.34925 -0.32808,0.0741 -0.62441,0.0741 -0.17992,0 -0.508,-0.0423 -0.32809,-0.0423 -0.52917,-0.0423 z" />
        <path
           inkscape:connector-curvature="0"
           id="path4504"
           style="font-style:normal;font-variant:normal;font-weight:normal;font-stretch:normal;font-size:medium;line-height:125%;font-family:Alison;-inkscape-font-specification:Alison;letter-spacing:0px;word-spacing:0px;fill:#cc2329;fill-opacity:1;stroke:none;stroke-width:0.26458332px;stroke-linecap:butt;stroke-linejoin:miter;stroke-opacity:1"
           d="m 106.5992,164.1119 q -0.0106,0.0318 -0.0635,0.13758 -0.0423,0.10583 -0.0847,0.22225 -0.0318,0.10583 -0.48684,0.64558 -0.4445,0.53975 -0.762,1.00542 -0.30691,0.45508 -0.30691,0.70908 0,0.254 0.23283,0.254 0.13758,0 0.34925,-0.127 0.21167,-0.127 0.43392,-0.34925 0.23283,-0.23283 0.68791,-0.73025 0.46567,-0.508 0.51859,-0.46567 -0.24342,0.35984 -0.47625,0.71967 -0.13759,0.15875 -0.59267,0.66675 -0.45508,0.49742 -0.94192,0.77258 -0.48683,0.27517 -0.83608,0.27517 -0.65617,0 -0.65617,-0.70908 0,-0.508 0.35984,-1.11125 0.35983,-0.60325 0.66675,-0.93134 0.3175,-0.33866 0.61383,-0.65616 0.0529,-0.0952 0.0741,-0.17992 0.0212,-0.0847 0.0423,-0.14816 z m -0.508,-1.61925 q 0.0635,-0.23284 0.23284,-0.34925 0.16933,-0.127 0.37041,-0.127 0.26459,0 0.47625,0.1905 0.21167,0.1905 0.21167,0.49741 0,0.127 -0.0423,0.28575 -0.0317,0.14817 -0.1905,0.26459 -0.15875,0.11641 -0.37042,0.11641 -0.27517,0 -0.49742,-0.1905 -0.22225,-0.1905 -0.22225,-0.47625 0,-0.0952 0.0318,-0.21166 z" />
        <path
           inkscape:connector-curvature="0"
           id="path4506"
           style="font-style:normal;font-variant:normal;font-weight:normal;font-stretch:normal;font-size:medium;line-height:125%;font-family:Alison;-inkscape-font-specification:Alison;letter-spacing:0px;word-spacing:0px;fill:#cc2329;fill-opacity:1;stroke:none;stroke-width:0.26458332px;stroke-linecap:butt;stroke-linejoin:miter;stroke-opacity:1"
           d="m 110.38714,166.89531 q -0.381,0.47625 -0.80433,0.71967 -0.41275,0.24341 -0.77259,0.24341 -0.28575,0 -0.47625,-0.15875 -0.17991,-0.16933 -0.17991,-0.4445 0,-0.254 0.13758,-0.55033 0.14817,-0.30692 0.508,-0.71967 0.35983,-0.42333 0.55033,-0.762 0.1905,-0.33866 0.1905,-0.51858 0,-0.16933 -0.14816,-0.16933 -0.23284,0 -0.635,0.37041 -0.39159,0.35984 -1.016,1.34409 -0.61384,0.98425 -0.78317,1.23825 -0.15875,0.254 -0.23283,0.33866 h -1.32292 l 1.34408,-2.02141 q 0.0106,-0.0212 0.381,-0.56092 0.381,-0.53975 0.51859,-0.89958 l 0.0847,-0.21167 h 1.18534 l 0.0106,0.17992 q 0,0.0635 -0.0106,0.11641 -0.0106,0.0423 -0.0423,0.10584 0.28575,-0.20108 0.56092,-0.29633 0.28575,-0.10584 0.53975,-0.10584 0.635,0 0.6985,0.53975 0.0635,0.40217 -0.67733,1.40758 -0.73025,1.00542 -0.73025,1.17475 0,0.0635 0.0423,0.0952 0.14817,0.11642 0.42333,-0.11641 0.27517,-0.23284 0.65617,-0.62442 0.381,-0.39158 0.77258,-0.73025 0.39159,-0.34925 0.46567,-0.30692 -0.26458,0.27517 -0.60325,0.61384 -0.32808,0.32808 -0.635,0.70908 z" />
        <path
           inkscape:connector-curvature="0"
           id="path4508"
           style="font-style:normal;font-variant:normal;font-weight:normal;font-stretch:normal;font-size:medium;line-height:125%;font-family:Alison;-inkscape-font-specification:Alison;letter-spacing:0px;word-spacing:0px;fill:#cc2329;fill-opacity:1;stroke:none;stroke-width:0.26458332px;stroke-linecap:butt;stroke-linejoin:miter;stroke-opacity:1"
           d="m 115.65298,164.1119 q -0.0106,0.0318 -0.0635,0.13758 -0.0423,0.10583 -0.0847,0.22225 -0.0317,0.10583 -0.48684,0.64558 -0.4445,0.53975 -0.762,1.00542 -0.30691,0.45508 -0.30691,0.70908 0,0.254 0.23283,0.254 0.13758,0 0.34925,-0.127 0.21167,-0.127 0.43392,-0.34925 0.23283,-0.23283 0.68791,-0.73025 0.46567,-0.508 0.51859,-0.46567 -0.24342,0.35984 -0.47625,0.71967 -0.13759,0.15875 -0.59267,0.66675 -0.45508,0.49742 -0.94192,0.77258 -0.48683,0.27517 -0.83608,0.27517 -0.65617,0 -0.65617,-0.70908 0,-0.508 0.35984,-1.11125 0.35983,-0.60325 0.66675,-0.93134 0.3175,-0.33866 0.61383,-0.65616 0.0529,-0.0952 0.0741,-0.17992 0.0212,-0.0847 0.0423,-0.14816 z m -0.508,-1.61925 q 0.0635,-0.23284 0.23284,-0.34925 0.16933,-0.127 0.37041,-0.127 0.26459,0 0.47625,0.1905 0.21167,0.1905 0.21167,0.49741 0,0.127 -0.0423,0.28575 -0.0318,0.14817 -0.1905,0.26459 -0.15875,0.11641 -0.37042,0.11641 -0.27517,0 -0.49742,-0.1905 -0.22225,-0.1905 -0.22225,-0.47625 0,-0.0952 0.0318,-0.21166 z" />
        <path
           inkscape:connector-curvature="0"
           id="path4510"
           style="font-style:normal;font-variant:normal;font-weight:normal;font-stretch:normal;font-size:medium;line-height:125%;font-family:Alison;-inkscape-font-specification:Alison;letter-spacing:0px;word-spacing:0px;fill:#cc2329;fill-opacity:1;stroke:none;stroke-width:0.26458332px;stroke-linecap:butt;stroke-linejoin:miter;stroke-opacity:1"
           d="m 118.46931,164.31298 -1.16417,1.87325 q -0.24342,0.39158 -0.24342,0.65616 0,0.24342 0.21167,0.24342 0.13758,0 0.34925,-0.127 0.21167,-0.127 0.59267,-0.508 0.39158,-0.39158 0.75141,-0.6985 0.37042,-0.30692 0.42334,-0.26458 -0.28575,0.33866 -0.56092,0.66675 -0.41275,0.40216 -0.75142,0.77258 -0.32808,0.35983 -0.80433,0.64558 -0.46567,0.27517 -0.80433,0.27517 -0.59267,0 -0.59267,-0.65617 0,-0.51858 0.4445,-1.23825 l 1.03717,-1.64041 h -0.81492 l 0.0423,-0.20108 h 0.89959 q 0.60325,-0.94192 0.85725,-1.3335 0.26458,-0.40217 0.28575,-0.52917 0.0318,-0.13758 0.0635,-0.1905 0.0318,-0.0635 0.0635,-0.10583 h 1.21708 q -0.0317,0.0635 -0.0423,0.0847 -0.0106,0.0212 -0.0635,0.17992 -0.0423,0.14817 -0.26459,0.41275 -0.21166,0.254 -1.00541,1.48167 h 0.53975 l -0.0318,0.20108 z" />
      </g>
    </g>
  </g>
</svg>
