<?xml version="1.0" encoding="UTF-8" standalone="no"?>
<!-- Created with Inkscape (http://www.inkscape.org/) -->

<svg
   xmlns:dc="http://purl.org/dc/elements/1.1/"
   xmlns:cc="http://creativecommons.org/ns#"
   xmlns:rdf="http://www.w3.org/1999/02/22-rdf-syntax-ns#"
   xmlns:svg="http://www.w3.org/2000/svg"
   xmlns="http://www.w3.org/2000/svg"
   xmlns:sodipodi="http://sodipodi.sourceforge.net/DTD/sodipodi-0.dtd"
   xmlns:inkscape="http://www.inkscape.org/namespaces/inkscape"
   width="28.222221mm"
   height="28.222221mm"
   viewBox="0 0 99.999997 99.999997"
   id="svg7283"
   version="1.1"
   inkscape:version="0.91 r13725"
   sodipodi:docname="pinterest.svg">
  <defs
     id="defs7285" />
  <sodipodi:namedview
     id="base"
     pagecolor="#ffffff"
     bordercolor="#666666"
     borderopacity="1.0"
     inkscape:pageopacity="0.0"
     inkscape:pageshadow="2"
     inkscape:zoom="0.7"
     inkscape:cx="160.89274"
     inkscape:cy="-26.609979"
     inkscape:document-units="px"
     inkscape:current-layer="layer1"
     showgrid="false"
     fit-margin-top="0"
     fit-margin-left="0"
     fit-margin-right="0"
     fit-margin-bottom="0"
     inkscape:window-width="1787"
     inkscape:window-height="1059"
     inkscape:window-x="133"
     inkscape:window-y="0"
     inkscape:window-maximized="1" />
  <metadata
     id="metadata7288">
    <rdf:RDF>
      <cc:Work
         rdf:about="">
        <dc:format>image/svg+xml</dc:format>
        <dc:type
           rdf:resource="http://purl.org/dc/dcmitype/StillImage" />
        <dc:title></dc:title>
      </cc:Work>
    </rdf:RDF>
  </metadata>
  <g
     inkscape:label="Layer 1"
     inkscape:groupmode="layer"
     id="layer1"
     transform="translate(-283.57144,-630.21928)">
    <g
       id="g7362"
       transform="matrix(0.12796747,0,0,0.12796747,290.88515,593.17334)">
      <circle
         r="390.71429"
         cy="680.2193"
         cx="333.57144"
         id="path7360"
         style="color:#000000;clip-rule:nonzero;display:inline;overflow:visible;visibility:visible;opacity:1;isolation:auto;mix-blend-mode:normal;color-interpolation:sRGB;color-interpolation-filters:linearRGB;solid-color:#000000;solid-opacity:1;fill:#ffffff;fill-opacity:1;fill-rule:nonzero;stroke:#ffffff;stroke-width:0.02;stroke-linecap:butt;stroke-linejoin:miter;stroke-miterlimit:4;stroke-dasharray:none;stroke-dashoffset:0;stroke-opacity:1;color-rendering:auto;image-rendering:auto;shape-rendering:auto;text-rendering:auto;enable-background:accumulate" />
      <path
         inkscape:connector-curvature="0"
         id="path7356"
         d="m 314.47585,1011.6046 c -0.4557,-0.029 -1.5595,-0.1008 -2.4527,-0.1589 -23.4846,-1.529 -46.664,-5.5437 -69.473,-12.03288 -2.9084,-0.8274 -2.9989,-0.8573 -2.9542,-0.9737 0.021,-0.056 0.5719,-0.9555 1.2236,-1.9998 15.0359,-24.0949 25.791,-46.9969 31.6217,-67.3348 1.8956,-6.6122 9.4023,-35.8221 20.8165,-81.0006 1.0961,-4.3388 2.2117,-8.752 2.4789,-9.8072 0.2673,-1.0552 0.5138,-1.9279 0.5479,-1.9392 0.034,-0.012 0.2378,0.3001 0.4527,0.6922 1.7661,3.2222 4.2777,6.7094 7.2215,10.0267 1.7133,1.9307 5.033,5.1317 7.3683,7.105 3.7445,3.164 8.4675,6.4582 13.0262,9.0856 13.7684,7.9353 29.482,12.7837 45.3761,14.0007 8.6094,0.6592 20.2573,0.1717 30.759,-1.2873 27.9209,-3.8791 53.6201,-14.8418 75.8981,-32.3764 15.0456,-11.8421 28.479,-26.6741 39.6633,-43.7931 10.8287,-16.5748 19.6524,-35.2243 26.1577,-55.2867 8.3318,-25.6952 12.948,-52.806 14.0302,-82.3996 0.2152,-5.8856 0.2505,-15.3194 0.072,-19.125 -0.4612,-9.8032 -1.4433,-18.035 -3.2269,-27.0467 -8.1668,-41.2627 -30.9248,-79.0779 -64.3937,-106.9979 -14.44,-12.0459 -30.5987,-22.0514 -48.1936,-29.8415 -24.5115,-10.8524 -51.3431,-17.1619 -79.8474,-18.7761 -11.7062,-0.663 -25.7128,-0.4706 -38.6145,0.5304 -41.2115,3.1974 -78.5646,14.6173 -110.5734,33.8053 -20.1464,12.077 -37.7935,26.9034 -52.9071,44.4505 -13.3235,15.4689 -24.4787,33.092 -32.7076,51.6719 -9.5108,21.4746 -15.0799,43.9357 -16.4363,66.291 -0.2326,3.833 -0.2689,5.2763 -0.2671,10.6065 0,5.259 0.047,7.1708 0.2667,11.2695 1.6813,31.3603 10.0406,58.7905 24.2398,79.5402 9.1482,13.3687 20.5187,23.7822 33.9602,31.102 3.5346,1.9248 8.6505,4.2749 10.81,4.9658 4.2585,1.3623 8.1475,0.7573 11.1356,-1.7326 1.6188,-1.3489 2.9456,-3.4041 3.7628,-5.8288 0.2784,-0.8258 0.8706,-3.118 3.5261,-13.6483 1.712,-6.7885 2.3679,-9.3717 3.7701,-14.8491 1.7681,-6.9065 1.1859,-10.0192 -2.8626,-15.3048 -0.3455,-0.451 -1.1992,-1.51 -1.897,-2.3533 -1.7493,-2.1139 -2.4497,-2.9919 -3.523,-4.4162 -10.4635,-13.8862 -16.4175,-30.2049 -18.0557,-49.4869 -0.2944,-3.4663 -0.3979,-5.7585 -0.4455,-9.8773 -0.1109,-9.6 0.6269,-19.2071 2.2044,-28.704 5.7854,-34.8297 22.5142,-66.2581 47.6921,-89.5991 13.5738,-12.5836 29.4868,-22.6626 46.932,-29.726 16.4987,-6.6803 34.3732,-10.7129 53.1653,-11.9945 5.1355,-0.3503 9.078,-0.4585 15.0812,-0.414 4.9992,0.037 6.2865,0.076 10.4408,0.3153 34.813,2.0055 64.1664,12.9257 86.0457,32.0111 3.5422,3.0898 7.4132,6.9604 10.5453,10.5442 16.7501,19.1651 26.6689,43.8434 28.8954,71.8925 0.3964,4.9949 0.4926,8.2574 0.4455,15.1144 -0.038,5.4689 -0.076,7.0938 -0.2779,11.6009 -1.9797,44.3179 -13.1542,84.904 -31.5207,114.4845 -11.6292,18.7296 -25.8125,32.448 -41.5314,40.1699 -9.0498,4.4458 -18.2562,6.8581 -28.2399,7.3997 -1.8874,0.1023 -6.9654,0.043 -8.5516,-0.1003 -7.279,-0.6567 -13.3958,-2.2406 -19.5227,-5.0553 -10.528,-4.8365 -19.1333,-13.0135 -24.1604,-22.9576 -4.9338,-9.7597 -6.4719,-20.7106 -4.5112,-32.118 0.3497,-2.0344 0.6578,-3.3984 1.7971,-7.9549 2.7187,-10.8729 5.1507,-19.2722 12.313,-42.5257 3.6524,-11.858 5.0864,-16.6005 6.6644,-22.0417 7.4124,-25.5579 10.064,-41.486 9.0554,-54.3956 -1.3136,-16.8112 -8.2047,-29.9707 -19.6203,-37.4674 -6.0422,-3.968 -13.2049,-6.21 -21.5434,-6.7434 -1.5916,-0.1017 -5.4126,-0.084 -6.9949,0.033 -14.8248,1.0924 -28.4141,8.454 -39.2182,21.2453 -9.4809,11.2247 -16.2183,26.2385 -19.2768,42.9566 -0.8989,4.9135 -1.4303,9.4914 -1.7778,15.3132 -0.1165,1.9526 -0.1157,10.8282 0,12.8936 0.541,9.5569 1.6926,17.5643 3.7543,26.1057 1.5719,6.5121 3.9646,13.7446 6.1636,18.6313 0.2766,0.6146 0.5029,1.1614 0.5029,1.215 0,0.1024 -9.6124,40.8439 -30.2377,128.1612 -13.2802,56.2217 -12.9128,54.6573 -13.5081,57.5172 -2.819,13.5436 -4.3777,28.0523 -4.9237,45.8304 -0.1703,5.5455 -0.097,17.1397 0.1495,23.5257 0.043,1.1215 0.047,1.839 0.01,1.8771 -0.1439,0.1439 -8.3736,-3.6653 -14.4315,-6.6798 -31.6121,-15.7306 -60.4965,-36.4123 -85.7723,-61.4144 -33.5603,-33.1967 -59.6708,-73.1404 -76.5268,-117.0698 -11.5465,-30.0921 -18.6258,-61.8694 -20.9932996,-94.2326 -0.4324,-5.9126 -0.3905,-3.5237 -0.4161,-23.699 -0.025,-19.8717 -0.042,-18.6851 0.3528,-24.3288 3.3569996,-47.9337 16.9565996,-94.15 40.0861996,-136.228 12.9045,-23.4762 28.7664,-45.4913 47.046298,-65.2961 5.666699,-6.1395 12.757302,-13.2297 18.895802,-18.8947 28.666,-26.4551 61.6209,-47.6052 97.4625,-62.5505 32.8552,-13.7001 67.8363,-21.9987 103.4976,-24.5531 5.8697,-0.4204 4.5254,-0.3981 24.0725,-0.3987 19.0821,0 18.1659,-0.014 23.2261,0.335 49.3818,3.4033 97.1099,17.745 140.1391,42.1101 22.1327,12.5325 42.9433,27.7193 61.65,44.9899 6.1893,5.7142 13.2758,12.8006 19.0289,19.0288 22.61,24.4769 41.6565,52.6406 55.9263,82.697 18.2738,38.4903 28.8419,79.7276 31.3783,122.4394 0.1232,2.075 0.1299,3.0973 0.1299,19.8542 0,19.3301 0.02,18.1163 -0.3969,23.9642 -3.4151,47.8923 -17.102,94.1833 -40.2586,136.1609 -12.8817,23.3515 -28.714,45.3052 -46.779,64.8658 -5.8076,6.2885 -13.2177,13.6863 -19.4923,19.4602 -31.5639,29.0448 -68.7631,51.8552 -108.8754,66.762 -30.6765,11.40008 -62.6299,18.12308 -95.5741,20.10858 -2.1234,0.128 -2.901,0.1327 -20.2747,0.1236 -9.9366,-0.01 -18.4394,-0.034 -18.8951,-0.063 z"
         style="fill:#ca1f26" />
    </g>
  </g>
</svg>
