<?xml version="1.0" encoding="UTF-8" standalone="no"?>
<!-- Created with Inkscape (http://www.inkscape.org/) -->

<svg
   xmlns:dc="http://purl.org/dc/elements/1.1/"
   xmlns:cc="http://creativecommons.org/ns#"
   xmlns:rdf="http://www.w3.org/1999/02/22-rdf-syntax-ns#"
   xmlns:svg="http://www.w3.org/2000/svg"
   xmlns="http://www.w3.org/2000/svg"
   xmlns:sodipodi="http://sodipodi.sourceforge.net/DTD/sodipodi-0.dtd"
   xmlns:inkscape="http://www.inkscape.org/namespaces/inkscape"
   width="28.222221mm"
   height="28.222221mm"
   viewBox="0 0 99.999997 99.999997"
   id="svg7283"
   version="1.1"
   inkscape:version="0.91 r13725"
   sodipodi:docname="twitter.svg">
  <defs
     id="defs7285" />
  <sodipodi:namedview
     id="base"
     pagecolor="#ffffff"
     bordercolor="#666666"
     borderopacity="1.0"
     inkscape:pageopacity="0.0"
     inkscape:pageshadow="2"
     inkscape:zoom="5.6"
     inkscape:cx="65.842117"
     inkscape:cy="50.073662"
     inkscape:document-units="px"
     inkscape:current-layer="layer1"
     showgrid="false"
     fit-margin-top="0"
     fit-margin-left="0"
     fit-margin-right="0"
     fit-margin-bottom="0"
     inkscape:window-width="1787"
     inkscape:window-height="1059"
     inkscape:window-x="133"
     inkscape:window-y="0"
     inkscape:window-maximized="1" />
  <metadata
     id="metadata7288">
    <rdf:RDF>
      <cc:Work
         rdf:about="">
        <dc:format>image/svg+xml</dc:format>
        <dc:type
           rdf:resource="http://purl.org/dc/dcmitype/StillImage" />
        <dc:title></dc:title>
      </cc:Work>
    </rdf:RDF>
  </metadata>
  <g
     inkscape:label="Layer 1"
     inkscape:groupmode="layer"
     id="layer1"
     transform="translate(-283.57144,-630.21928)">
    <rect
       style="color:#000000;clip-rule:nonzero;display:inline;overflow:visible;visibility:visible;opacity:1;isolation:auto;mix-blend-mode:normal;color-interpolation:sRGB;color-interpolation-filters:linearRGB;solid-color:#000000;solid-opacity:1;fill:#ffffff;fill-opacity:1;fill-rule:nonzero;stroke:none;stroke-width:0;stroke-linecap:butt;stroke-linejoin:miter;stroke-miterlimit:4;stroke-dasharray:none;stroke-dashoffset:0;stroke-opacity:1;color-rendering:auto;image-rendering:auto;shape-rendering:auto;text-rendering:auto;enable-background:accumulate"
       id="rect4739"
       width="86.607147"
       height="86.298378"
       x="290.35715"
       y="637.15936" />
    <path
       style="fill:#6cb6e9"
       d="m 290.65789,729.24769 c -3.04433,-0.72147 -5.66055,-3.43458 -6.32312,-6.55724 -0.29159,-1.37429 -0.33191,-82.15255 -0.0422,-84.3991 0.50887,-3.945 3.4888,-6.93848 7.41005,-7.44378 0.80535,-0.1038 20.00739,-0.19183 42.67119,-0.19566 44.49147,-0.008 42.30137,-0.0606 44.53469,1.07875 1.98157,1.01092 3.71121,3.36595 4.21945,5.74509 0.18855,0.88268 0.23462,11.63657 0.18561,43.33303 l -0.0651,42.159 -0.51414,1.28078 c -0.71041,1.76972 -2.83926,3.89857 -4.60897,4.60898 l -1.28079,0.51413 -42.69265,0.0329 c -24.32101,0.0188 -43.0375,-0.0487 -43.49401,-0.15695 z m 35.7026,-17.80848 c 8.06035,-1.21776 15.30382,-4.38782 21.55978,-9.4355 2.04911,-1.65334 5.94958,-5.68514 7.49835,-7.75082 5.93366,-7.91406 9.57872,-18.42051 9.57872,-27.60955 0,-1.77942 0.0853,-2.71944 0.26682,-2.93813 0.14676,-0.17687 1.06761,-0.9857 2.04634,-1.79741 2.25662,-1.87155 5.66684,-5.85005 5.31554,-6.20135 -0.0626,-0.0626 -0.92156,0.1713 -1.90881,0.51975 -1.44087,0.50856 -5.48075,1.52856 -6.05415,1.52856 -0.30086,0 0.0958,-0.43444 1.33017,-1.45693 0.72386,-0.59959 1.74858,-1.65221 2.27715,-2.33912 1.07542,-1.39759 2.65678,-4.43384 2.4283,-4.66233 -0.0816,-0.0816 -1.18164,0.33663 -2.44457,0.92937 -2.28907,1.07437 -3.96432,1.67745 -6.30604,2.27014 l -1.23483,0.31254 -1.29447,-1.12894 c -1.73176,-1.51032 -3.56151,-2.56843 -5.62827,-3.25471 -1.52073,-0.50497 -2.04661,-0.56864 -4.80293,-0.58156 -3.52191,-0.0165 -4.84026,0.2519 -7.2997,1.48622 -4.24422,2.13002 -7.22887,5.72074 -8.54527,10.28045 -0.40722,1.41055 -0.47876,2.1514 -0.46497,4.81559 0.0123,2.37623 -0.0487,3.14858 -0.24909,3.14858 -0.14597,0 -1.45092,-0.15259 -2.89989,-0.33908 -6.42467,-0.8269 -13.55158,-3.37059 -18.64427,-6.65438 -3.47879,-2.24315 -7.46436,-5.66411 -10.20706,-8.7611 -0.55155,-0.62279 -1.08928,-1.0789 -1.19498,-1.01358 -0.3603,0.22268 -1.47569,3.20892 -1.81473,4.85856 -1.11892,5.44436 0.78985,11.30573 4.91171,15.08266 0.76338,0.6995 1.30812,1.32117 1.21052,1.38148 -0.30877,0.19083 -3.16513,-0.44786 -4.63778,-1.03702 -0.77911,-0.3117 -1.54263,-0.51834 -1.69671,-0.4592 -0.59896,0.22983 0.33178,4.92795 1.39368,7.03499 1.76687,3.50578 5.1603,6.58186 8.78998,7.96792 0.84572,0.32296 1.62223,0.65919 1.72557,0.7472 0.33912,0.28877 -1.42484,0.50854 -3.87014,0.48218 -1.80269,-0.0194 -2.40147,0.0412 -2.40147,0.24306 0,0.14793 0.3789,1.02454 0.84198,1.94801 1.59069,3.17216 4.20358,5.74256 7.37637,7.25647 1.55746,0.74314 4.44152,1.57361 5.46486,1.57361 0.3265,0 0.64899,0.0896 0.71667,0.19907 0.20778,0.33619 -2.19221,1.90012 -5.22657,3.40586 -4.74048,2.35239 -8.82624,3.28968 -14.37835,3.29845 -3.92533,0.006 -3.9153,-0.0237 -0.5994,1.78386 4.75673,2.5929 11.26983,4.59429 16.85507,5.17932 2.59047,0.27135 9.52435,0.0936 12.21687,-0.31319 z"
       id="path4147"
       inkscape:connector-curvature="0" />
  </g>
</svg>
